<?xml version="1.0" encoding="utf-8"?>
<!-- Generator: Adobe Illustrator 24.2.1, SVG Export Plug-In . SVG Version: 6.00 Build 0)  -->
<svg version="1.1" id="Layer_1" xmlns="http://www.w3.org/2000/svg" xmlns:xlink="http://www.w3.org/1999/xlink" x="0px" y="0px"
	 viewBox="0 0 450 393.48" style="enable-background:new 0 0 450 393.48;" xml:space="preserve">
<style type="text/css">
	.st0{opacity:0.3;}
	.st1{fill:#C84030;}
	.st2{fill:#AB281F;}
	.st3{fill:#8A1C14;}
	.st4{fill:#FA5C52;}
	.st5{fill:#A39C95;}
	.st6{fill:#E0DEDC;}
	.st7{fill:#F4EFE9;}
	.st8{fill:#F7E6BB;}
	.st9{fill:#C79D5C;}
	.st10{fill:#D9AF6F;}
	.st11{fill:#EFC58B;}
	.st12{fill:#FFFFFF;}
	.st13{fill:#E3BD5E;}
	.st14{fill:#CC934C;}
	.st15{fill:#FBE979;}
	.st16{fill:#AC8854;}
	.st17{fill:#995D43;}
	.st18{fill:#B88F5A;}
	.st19{fill:#A16739;}
	.st20{opacity:0.5;fill:#AC8854;}
	.st21{opacity:0.5;fill:#FFFFFF;}
	.st22{opacity:0.5;fill:#F7EDD4;}
	.st23{opacity:0.5;fill:#FA5C52;}
	.st24{fill:#D8D1C7;}
	.st25{fill:#8CCCCB;}
	.st26{fill:#389998;}
	.st27{fill:#3E6669;}
	.st28{fill:#418080;}
	.st29{fill:#D1D1D1;}
	.st30{fill:#A87C49;}
	.st31{fill:#403531;}
	.st32{fill:#685750;}
	.st33{fill:#836E69;}
	.st34{fill:#F2B63D;}
	.st35{fill:#544540;}
	.st36{fill:#DBB276;}
	.st37{fill:#9FB366;}
	.st38{fill:#A3763D;}
	.st39{fill:#E6E1DD;}
	.st40{fill:#0A0808;}
	.st41{fill:#362C29;}
	.st42{fill:#D6A950;}
	.st43{fill:#574943;}
	.st44{fill:#211A1A;}
	.st45{fill:#4290B8;}
	.st46{fill:#17435C;}
	.st47{fill:#24546E;}
	.st48{fill:#2B6582;}
	.st49{fill:#E8F3FF;}
	.st50{fill:#A1B4BF;}
	.st51{fill:#B4CED6;}
	.st52{fill:#C8DFE8;}
	.st53{fill:#785B56;}
	.st54{fill:#C26A5E;}
	.st55{fill:#FCA48F;}
	.st56{fill:#D57A70;}
	.st57{fill:#A6495D;}
	.st58{fill:#853E2A;}
	.st59{fill:#D18067;}
	.st60{fill:#693121;}
	.st61{fill:#944E39;}
	.st62{fill:#B5AFA7;}
	.st63{fill:#DE822B;}
	.st64{opacity:0.4;fill:#574943;}
	.st65{fill:#AB531F;}
	.st66{fill:#736656;}
	.st67{fill:#A39685;}
</style>
<g>
	<g>
		<g>
			<path class="st0" d="M213.36,324.8l21.28-6.12l-0.44-0.6l-19.15,3.53l5.89-11.08l-1.05-0.25l-10.34,12.34l-3.77,0.7l-0.94,0.23
				l-0.22-0.31l-15.45,2.14l-7.16-1.76l-4.4,1.07l-1.8,2.55l1.85,2.54l4.42,1.04l20.38-4.95l0.31-0.3l4.35,0.67l1.21,2.53l0,0
				l-0.52,0.18l-8.35,11.82l1.85,2.54l4.42,1.04l4.4-1.07l1.8-2.55l-3.13-4.11l3.53-8.94l-0.53-0.13l0.38-0.54L213.36,324.8z
				 M185.29,329.07l-3.21,0.78l-3.23-0.76l-1.35-1.86l1.32-1.87l3.22-0.78l3.23,0.76l1.35,1.86L185.29,329.07z M208.91,338.87
				l1.35,1.86l-1.32,1.87l-3.22,0.78l-3.23-0.76l-1.35-1.86l1.32-1.86l3.22-0.78L208.91,338.87z"/>
			<g>
				<polygon class="st1" points="177.67,329.47 175.82,326.94 175.82,325.49 178.17,327.95 				"/>
				<polygon class="st2" points="183,328.58 177.67,328.03 177.67,329.47 182.09,330.51 				"/>
				<polygon class="st2" points="204.85,323.25 202.47,325.56 201.46,324.12 204.85,321.8 				"/>
				<polygon class="st3" points="202.47,325.56 182.09,330.51 182.09,329.07 195.12,325.28 202.47,324.12 				"/>
				<polygon class="st3" points="182.03,324.28 178.81,325.07 178.49,323.31 182.28,322.37 				"/>
				<polygon class="st2" points="178.81,325.07 177.5,326.93 177,325.49 178.81,323.62 				"/>
				<polygon class="st1" points="186.29,326.46 185.26,325.05 185.13,323.21 186.99,325.36 				"/>
				<polygon class="st2" points="185.26,325.05 182.03,324.28 182.03,322.73 185.26,323.22 				"/>
				<path class="st4" d="M204.85,321.8l-0.22-0.31l-15.45,2.14l-7.16-1.76l-4.4,1.07l-1.8,2.55l1.85,2.54l4.42,1.04l20.38-4.95
					L204.85,321.8z M182.08,328.1l-3.23-0.76l-1.35-1.86l1.32-1.87l3.22-0.78l3.23,0.76l1.35,1.86l-1.32,1.86L182.08,328.1z"/>
			</g>
			<polygon class="st1" points="212.44,322.68 212.88,322.05 212.42,321.43 211.34,321.18 210.27,321.44 209.82,322.06 
				210.28,322.68 211.36,322.94 			"/>
			<g>
				<polygon class="st5" points="234.64,317.4 234.64,317.9 207.95,325.57 202.78,324.78 202.78,324.28 205.79,322.54 				"/>
				<polygon class="st6" points="234.2,316.8 234.64,317.4 207.95,325.07 202.78,324.28 204.85,322.27 205.79,322.05 				"/>
			</g>
			<g>
				<polygon class="st5" points="220.95,309.75 220.95,309.26 207.47,324.38 206.92,324.5 206.92,325 208.34,327.98 211.8,326.76 
					212.19,326.22 				"/>
				<polygon class="st7" points="220.95,309.26 219.9,309.01 206.92,324.5 208.34,327.48 211.8,326.26 212.19,325.72 				"/>
			</g>
			<g>
				<path class="st4" d="M211.98,321.49l-1.27,0l-0.89,0.52v0.73l0.89,0.52h1.27l0.89-0.52V322L211.98,321.49z"/>
				<polygon class="st3" points="212.88,322.89 211.98,323.41 211.69,323.36 211.98,323.25 212.88,322.73 				"/>
				<polygon class="st1" points="210.72,323.41 209.83,322.89 209.83,322.73 210.72,323.25 211.23,323.36 				"/>
				<rect x="210.72" y="323.25" class="st2" width="1.27" height="0.16"/>
			</g>
			<g>
				<polygon class="st3" points="212.34,327.36 208.81,336.31 208.11,334.68 212.34,325.92 				"/>
				<polygon class="st3" points="202.46,338.59 201.15,340.46 200.74,339.01 202.76,336.67 				"/>
				<polygon class="st1" points="210.26,340.43 208.91,338.57 208.65,336.67 210.86,338.73 				"/>
				<polygon class="st2" points="208.91,337.12 207.53,336.1 205.33,335.95 205.68,337.81 208.91,338.57 				"/>
				<polygon class="st1" points="205.68,337.81 202.46,338.59 202.46,337.14 204.24,335.95 205.68,336.36 				"/>
				<polygon class="st3" points="211.94,340.42 210.14,342.97 209.63,341.41 211.94,338.97 				"/>
				<polygon class="st1" points="205.74,344.04 201.33,343 201.33,341.55 206.17,342.3 				"/>
				<path class="st4" d="M207.82,327.19l-8.35,11.82l1.85,2.54l4.42,1.04l4.4-1.07l1.8-2.55l-3.13-4.11l3.53-8.94l-0.53-0.13
					L207.82,327.19z M202.46,337.14l3.22-0.78l3.23,0.76l1.35,1.86l-1.32,1.87l-3.22,0.78l-3.23-0.76l-1.35-1.86L202.46,337.14z"/>
				<polygon class="st2" points="210.14,342.97 205.74,344.04 205.74,342.59 210.14,341.52 				"/>
				<polygon class="st1" points="201.33,343 199.48,340.46 199.48,339.01 201.33,341.55 				"/>
			</g>
		</g>
		<g>
			<polygon class="st0" points="148.38,168.84 63.76,217.76 138.62,260.99 223.23,212.07 			"/>
			<g>
				<path class="st8" d="M160.87,55.78l-12.58,47.89l71.74,41.54l12.58-47.9L160.87,55.78z"/>
				<polygon class="st8" points="232.61,97.3 160.87,55.78 161.69,56.02 233.43,97.54 				"/>
				<polygon class="st9" points="220.02,145.2 232.61,97.3 233.43,97.54 220.46,146.24 				"/>
			</g>
			<g>
				<g>
					<path class="st9" d="M67.15,150.73v67.59l81.88-47.42v-67.58L67.15,150.73z"/>
					<polygon class="st10" points="67.15,150.73 149.03,103.31 148.18,102.83 66.3,150.24 					"/>
					<polygon class="st11" points="67.15,218.32 67.15,150.73 66.3,150.24 66.3,217.83 					"/>
				</g>
				<g>
					<path class="st11" d="M148.18,103.8v67.59l70.58,40.76v-67.59L148.18,103.8z"/>
					<polygon class="st8" points="218.76,144.55 148.18,103.8 149.03,103.31 219.61,144.07 					"/>
					<polygon class="st9" points="218.76,212.14 218.76,144.55 219.61,144.07 219.61,211.66 					"/>
				</g>
			</g>
			<polygon class="st12" points="196.88,142.96 195.14,142.96 195.14,142.12 193.1,140.08 193.1,137.15 190.65,134.7 187.19,134.7 
				185.77,136.11 184.04,136.11 183.94,136.21 183.32,135.59 182.5,135.59 182.5,133.18 180.04,130.73 176.58,130.73 174.19,133.12 
				173.42,132.34 169.95,132.34 168.64,133.65 168.64,132.97 168.24,132.56 169.69,131.11 169.69,127.65 167.23,125.2 163.77,125.2 
				161.47,127.49 161.47,126.43 159.56,124.52 159.56,123.46 157.11,121.02 153.65,121.02 151.2,123.46 151.2,123.98 150.09,123.98 
				149.81,124.25 149.81,122.24 147.36,119.79 143.9,119.79 141.45,122.24 141.45,125.2 139.86,125.2 138.19,126.87 136.96,125.63 
				133.5,125.63 131.04,128.08 131.04,130.52 128.16,130.52 126.17,132.5 124.4,130.73 120.94,130.73 118.48,133.18 118.48,133.72 
				117.1,132.34 113.63,132.34 111.18,134.79 111.18,136.96 110.49,136.27 107.02,136.27 104.57,138.72 104.57,142.18 
				105.65,143.26 105.06,143.85 101.75,143.85 99.3,146.3 99.3,148.42 98.15,148.42 98.09,148.47 96.85,147.24 93.39,147.24 
				90.94,149.69 90.94,151.03 89.55,149.65 86.09,149.65 83.64,152.1 83.64,155.56 84.06,155.98 81.91,155.98 79.46,158.43 
				79.46,161.89 81.91,164.34 85.37,164.34 86.57,163.15 86.97,163.54 90.43,163.54 92.88,161.09 92.88,159.66 93.39,160.16 
				96.85,160.16 99.3,157.71 99.3,156.78 101.61,156.78 104.06,154.33 104.06,152.22 105.22,152.22 106.1,151.34 109.4,151.34 
				111.85,148.89 111.85,147.14 114.64,147.14 116.85,144.93 117.82,145.89 121.28,145.89 123.73,143.44 128.16,138.88 
				131.62,138.88 134.07,136.43 134.07,134 136.96,134 138.63,132.33 139.86,133.56 143.33,133.56 145.78,131.11 145.78,128.16 
				147.36,128.16 147.64,127.88 147.64,129.89 150.09,132.34 153.56,132.34 154.56,131.34 154.8,131.58 154.8,134.07 157.25,136.52 
				160.37,136.52 162.73,138.88 166.19,138.88 167.5,137.57 167.5,138.25 169.95,140.71 170.12,140.71 170.12,141.51 172.57,143.96 
				176.04,143.96 177.94,142.05 179.85,143.96 183.11,143.96 182.59,144.48 182.59,147.94 185.04,150.39 188.51,150.39 
				190.86,148.03 190.96,148.03 190.96,148.88 193.41,151.32 196.88,151.32 199.33,148.88 199.33,145.41 			"/>
			<g>
				<polygon class="st0" points="146.82,169.04 216.15,209.08 149.32,247.72 79.98,207.67 				"/>
				<polygon class="st13" points="149.28,202.18 82.25,163.47 82.25,207.94 149.28,246.66 				"/>
				<polygon class="st14" points="213.88,209.31 149.28,246.66 149.28,202.18 213.88,164.83 				"/>
				<polygon class="st15" points="146.86,126.12 213.88,164.83 149.28,202.18 82.25,163.47 				"/>
				<g>
					<polygon class="st4" points="120.02,185.15 116.78,185.88 111.45,180.21 176.1,142.88 184.68,147.83 					"/>
					<polygon class="st1" points="120.02,229.79 111.45,224.84 111.45,180.21 120.02,185.15 					"/>
				</g>
				<g>
					<polygon class="st4" points="177.4,185.89 180.63,186.62 185.96,180.95 118.94,142.24 110.36,147.19 					"/>
					<polygon class="st3" points="177.4,230.52 185.96,225.57 185.96,180.95 177.4,185.89 					"/>
				</g>
				<g>
					<rect x="118.15" y="160.8" class="st0" width="59.83" height="7.16"/>
					<g>
						<path class="st1" d="M150.69,159.48h-5.25l-3.72,2.14v3.03l3.72,2.14h5.25l3.72-2.14v-3.03L150.69,159.48z"/>
						<polygon class="st3" points="154.41,165.72 150.69,167.87 149.25,167.33 150.69,166.8 154.41,164.65 						"/>
						<polygon class="st3" points="145.44,167.87 141.72,165.72 141.72,164.65 145.44,166.8 147.13,167.2 						"/>
						<rect x="145.44" y="166.8" class="st2" width="5.25" height="1.07"/>
					</g>
					<g>
						<polygon class="st4" points="127.15,158.45 127.15,165.61 148.07,166.27 148.07,159.12 						"/>
						<polygon class="st1" points="118.15,147.55 118.15,154.7 127.15,165.61 127.15,158.45 						"/>
						<polygon class="st4" points="118.15,147.55 118.15,154.7 132.26,155.18 132.26,148.02 						"/>
						<polygon class="st3" points="132.26,148.02 132.26,155.18 148.07,166.27 148.07,159.12 						"/>
					</g>
					<g>
						<polygon class="st1" points="132.26,146.07 131.24,147.55 132.26,153.23 148.07,166.27 148.07,159.12 						"/>
						<polygon class="st3" points="127.97,134.07 127.97,141.23 132.26,153.23 132.26,146.07 						"/>
						<polygon class="st1" points="127.97,134.07 127.97,141.23 140.48,146.64 141.54,145.28 140.48,139.48 						"/>
						<polygon class="st3" points="140.48,139.48 140.48,146.64 148.07,166.27 148.07,159.12 						"/>
					</g>
					<g>
						<polygon class="st4" points="168.98,158.45 168.98,165.61 148.07,166.27 148.07,159.12 						"/>
						<polygon class="st2" points="177.98,147.55 175.31,153.23 177.98,154.7 168.98,165.61 168.98,158.45 						"/>
						<polygon class="st4" points="177.98,147.55 177.98,154.7 163.87,155.18 163.87,148.02 						"/>
						<polygon class="st3" points="163.87,148.02 163.87,155.18 148.07,166.27 148.07,159.12 						"/>
					</g>
					<g>
						<polygon class="st4" points="163.87,146.07 164.89,147.55 163.87,153.23 148.07,166.27 148.07,159.12 						"/>
						<polygon class="st1" points="168.16,134.07 168.16,141.23 163.87,153.23 163.87,146.07 						"/>
						<polygon class="st4" points="168.16,134.07 168.16,141.23 155.65,146.64 154.59,145.28 155.65,139.48 						"/>
						<polygon class="st3" points="155.65,139.48 155.65,146.64 148.07,166.27 148.07,159.12 						"/>
					</g>
					<g>
						<polygon class="st3" points="141.02,137.18 142.49,138.86 141.02,144.33 148.07,166.27 148.07,159.12 						"/>
						<polygon class="st4" points="148.03,126.88 149.95,132.22 148.03,134.03 141.02,144.33 141.02,137.18 						"/>
						<polygon class="st4" points="155,136.78 154.17,141.23 155,143.93 148.07,166.27 148.07,159.12 						"/>
						<polygon class="st1" points="148.03,126.88 148.03,134.03 155,143.93 155,136.78 						"/>
					</g>
				</g>
			</g>
			<g>
				<path class="st16" d="M90.81,117.37l-23.67,33.35l81.88-47.4l23.67-33.36L90.81,117.37z"/>
				<polygon class="st8" points="90.81,117.37 172.69,69.95 172.14,69.27 90.26,116.68 				"/>
				<polygon class="st11" points="67.15,150.71 90.81,117.37 90.26,116.68 66.3,150.23 				"/>
			</g>
			<g>
				<g>
					<path class="st11" d="M67.15,150.73v67.58l70.58,40.77v-67.59L67.15,150.73z"/>
					<polygon class="st8" points="137.73,191.48 67.15,150.73 68,150.24 138.58,191 					"/>
					<polygon class="st11" points="137.73,259.08 137.73,191.48 138.58,191 138.58,258.59 					"/>
				</g>
				<g>
					<path class="st9" d="M138.58,191.96v67.6l81.88-47.42v-67.59L138.58,191.96z"/>
					<g>
						<g>
							<path class="st17" d="M159.46,223.5l-15.75,9.1l0,18.19l15.75-9.1L159.46,223.5z M144.4,249.57V233l14.35-8.28l0.01,16.57
								L144.4,249.57z"/>
							<polygon class="st17" points="148.97,243.33 150.33,242.55 150.33,233.74 151.01,233.34 149.65,231.09 148.28,234.92 
								148.97,234.52 							"/>
							<polygon class="st17" points="148.28,246.07 154.88,242.26 154.88,240.7 148.28,244.51 							"/>
							<polygon class="st17" points="152.16,232.67 152.84,232.28 152.84,241.1 154.2,240.32 154.2,231.5 154.88,231.1 
								153.52,228.86 							"/>
						</g>
						<g>
							<path class="st17" d="M178.51,212.5l-15.75,9.1l0,18.18l15.75-9.09V212.5z M163.46,238.57l0-16.57l14.35-8.29l0,16.57
								L163.46,238.57z"/>
							<polygon class="st17" points="165.98,229.15 167.13,229.82 167.67,229.51 167.67,234.31 167.13,234.62 165.98,235.71 
								165.98,235.79 169.9,233.53 169.9,233.45 168.75,233.68 168.21,234 168.21,229.2 168.75,228.88 169.9,226.89 169.9,220.6 
								165.98,222.86 							"/>
							<path class="st17" d="M171.38,226.03l1.15,0.66l0.54-0.31v4.79l-0.54,0.32l-1.15,1.09v0.08l3.92-2.26v-0.08l-1.15,0.24
								l-0.54,0.31v-4.79l0.54-0.31l1.15-1.99v-6.3l-3.92,2.26V226.03z M171.73,219.94l3.22-1.86v5.6l-1.05,1.83l-1.37,0.79
								l-0.8-0.46V219.94z"/>
						</g>
					</g>
					<polygon class="st16" points="138.58,191.96 220.46,144.55 219.61,144.07 137.73,191.48 					"/>
					<polygon class="st11" points="138.58,259.56 138.58,191.96 137.73,191.48 137.73,259.08 					"/>
				</g>
			</g>
			<g>
				<path class="st10" d="M126,144.08l12.58,47.9l81.88-47.42l-12.58-47.89L126,144.08z"/>
				<polygon class="st8" points="126,144.08 207.88,96.67 207.06,96.91 125.18,144.32 				"/>
				<polygon class="st11" points="138.58,191.97 126,144.08 125.18,144.32 137.73,191.48 				"/>
			</g>
			<g>
				<path class="st8" d="M66.3,150.24l-35.72,39.1l72.28,41.74l35.72-39.11L66.3,150.24z"/>
				<polygon class="st9" points="102.86,231.07 138.58,191.96 138.58,193.09 103.48,231.48 				"/>
			</g>
		</g>
		<g>
			<g>
				<polygon class="st0" points="259.29,212.6 348.02,263.85 262.48,313.3 173.75,262.05 				"/>
				<polygon class="st11" points="262.43,240.71 176.65,191.17 176.65,262.38 262.43,311.94 				"/>
				<polygon class="st9" points="345.12,264.14 262.43,311.94 262.43,240.71 345.12,192.91 				"/>
				<g>
					<g>
						<path class="st17" d="M284.18,272.23l-15.75,9.1l0,18.19l15.75-9.1L284.18,272.23z M269.13,298.3v-16.57l14.35-8.28
							l0.01,16.57L269.13,298.3z"/>
						<polygon class="st17" points="273.69,292.06 275.05,291.28 275.05,282.47 275.74,282.07 274.37,279.82 273.01,283.65 
							273.69,283.25 						"/>
						<polygon class="st17" points="273.01,294.8 279.61,290.99 279.61,289.43 273.01,293.24 						"/>
						<polygon class="st17" points="276.88,281.41 277.57,281.01 277.57,289.83 278.92,289.05 278.92,280.23 279.61,279.84 
							278.24,277.59 						"/>
					</g>
					<g>
						<path class="st17" d="M303.24,261.23l-15.75,9.1l0,18.18l15.75-9.09V261.23z M288.19,287.3l0-16.57l14.35-8.29l0,16.57
							L288.19,287.3z"/>
						<polygon class="st17" points="290.71,277.88 291.85,278.55 292.4,278.24 292.4,283.04 291.85,283.35 290.71,284.44 
							290.71,284.53 294.62,282.26 294.62,282.18 293.48,282.42 292.93,282.73 292.93,277.93 293.48,277.61 294.62,275.63 
							294.62,269.33 290.71,271.59 						"/>
						<path class="st17" d="M296.1,274.76l1.15,0.66l0.54-0.31v4.79l-0.54,0.32l-1.15,1.09v0.08l3.92-2.26v-0.08l-1.15,0.24
							l-0.54,0.31v-4.79l0.54-0.31l1.15-1.99v-6.3l-3.92,2.26V274.76z M296.45,268.67l3.22-1.86v5.6l-1.05,1.83l-1.37,0.79
							l-0.8-0.46V268.67z"/>
					</g>
				</g>
				<polygon class="st8" points="259.35,143.37 345.12,192.92 262.43,240.71 176.65,191.17 				"/>
				<g>
					<polygon class="st18" points="224.99,218.92 220.85,219.85 214.02,212.6 296.76,164.82 307.74,171.15 					"/>
					<polygon class="st19" points="224.99,235.11 214.02,228.77 214.02,212.6 224.99,218.92 					"/>
				</g>
			</g>
			<g>
				<polygon class="st18" points="307.74,171.15 373.87,132.97 362.81,126.59 296.68,164.77 292.83,172.39 				"/>
				<g>
					<polygon class="st20" points="372.88,131.85 372.88,131.52 353.1,146.43 353.1,146.76 					"/>
					<polygon class="st21" points="353.1,146.43 339,138.3 339,138.63 353.1,146.76 					"/>
					<polygon class="st22" points="372.88,131.52 358.79,123.38 339,138.3 353.1,146.43 					"/>
					<polygon class="st23" points="348.49,131.15 353.17,127.62 367.26,135.75 362.58,139.28 					"/>
				</g>
				<g>
					<polygon class="st24" points="354.24,92.02 352.44,90.97 352.44,121.13 354.24,122.17 357.78,98.96 					"/>
					<polygon class="st24" points="357.75,85.94 355.94,84.9 352.44,90.97 354.24,92.02 357.3,91.94 					"/>
					<polygon class="st7" points="373.02,77.13 371.22,76.09 355.94,84.9 357.75,85.94 364.17,84.06 					"/>
					<polygon class="st5" points="376.52,109.3 373.02,115.37 357.75,124.19 354.24,122.17 354.24,92.02 357.75,85.94 373.02,77.13 
						376.52,79.15 					"/>
				</g>
				<g>
					<polygon class="st25" points="395.55,102.37 393.41,95.59 387.17,91.99 387.17,107.37 393.41,110.97 					"/>
					<polygon class="st25" points="409.71,88.52 403.47,84.93 388.97,92.5 395.21,96.11 405.53,94.03 					"/>
					<polygon class="st26" points="410.62,86.94 404.38,83.33 403.47,84.93 409.71,88.53 411.07,88.14 					"/>
					<polygon class="st25" points="427.28,79.01 421.04,75.41 404.38,83.33 410.62,86.94 423.02,82.08 					"/>
					<polygon class="st26" points="394.64,95.11 388.4,91.51 387.17,91.99 393.41,95.59 394.22,96.06 					"/>
					<polygon class="st27" points="393.41,110.97 393.41,95.59 394.64,95.11 395.21,96.11 409.71,88.52 410.62,86.94 427.28,79.01 
						427.28,91.19 421.15,95.83 397.31,107.61 					"/>
					<polygon class="st0" points="394.18,92.76 398.05,94.99 398.05,107.32 397.31,107.61 393.41,110.97 393.41,95.59 394.64,95.11 
											"/>
				</g>
				<g>
					<polygon class="st28" points="389.57,89.58 376.49,82.02 376.49,108.64 389.57,116.2 391.56,102.99 					"/>
					<polygon class="st26" points="391.46,86.31 378.38,78.75 376.49,82.02 389.57,89.58 390.95,89.67 					"/>
					<polygon class="st25" points="394.13,84.76 381.05,77.2 378.38,78.75 391.46,86.31 392.84,86.4 					"/>
					<polygon class="st27" points="391.46,117.29 389.57,116.2 389.57,89.58 391.46,86.31 394.13,84.76 396.02,85.85 396.02,112.47 
						394.13,115.75 					"/>
					<g>
						<polygon class="st25" points="391.68,114.62 393.94,113.31 395.53,110.55 395.53,88.08 394.98,87.76 393.16,107.17 
							391.13,114.3 						"/>
						<polygon class="st29" points="391.13,114.3 393.38,113 394.98,110.23 394.98,87.76 393.93,87.16 391.68,88.47 390.08,91.23 
							390.08,113.7 						"/>
					</g>
				</g>
				<polygon class="st30" points="388.99,114.96 385.78,99.9 374.72,93.51 377.93,108.57 				"/>
				<g>
					<path class="st31" d="M379.38,131.6l5.63-3.25l3.98-6.89v-6.5l-3.98-2.3l-3.43,1.02l-2.19,2.23l-3.98,6.89v6.5L379.38,131.6
						L379.38,131.6z"/>
					
						<rect x="366.87" y="108.02" transform="matrix(0.5002 -0.8659 0.8659 0.5002 85.2638 378.8762)" class="st32" width="7.96" height="15.11"/>
					<polygon class="st33" points="375.4,129.3 375.4,122.8 362.32,115.24 362.32,121.74 					"/>
					<polygon class="st33" points="379.38,115.91 385.01,112.66 371.93,105.1 366.3,108.35 					"/>
				</g>
				<g>
					<polygon class="st25" points="374.29,120.01 360.19,111.87 358.38,112.92 372.47,121.06 					"/>
					
						<rect x="360.64" y="111.62" transform="matrix(0.4999 -0.8661 0.8661 0.4999 78.2472 375.0107)" class="st26" width="6.39" height="16.27"/>
					<polygon class="st25" points="369.28,126.59 355.19,118.45 355.19,123.67 369.28,131.8 					"/>
					<polygon class="st27" points="374.29,132.59 372.47,133.64 369.28,131.8 369.28,126.59 372.47,121.06 374.29,120.01 					"/>
				</g>
				<g>
					<polygon class="st14" points="369.3,124.95 367.56,125.38 368.06,133.89 369.3,133.17 					"/>
					<polygon class="st15" points="369.3,124.95 355.21,116.81 353.97,117.53 361.9,123.94 368.06,125.66 					"/>
					<polygon class="st13" points="368.06,125.66 353.97,117.53 353.97,125.76 368.06,133.89 					"/>
				</g>
				<g>
					<polygon class="st25" points="385.19,114.82 384.02,114.15 371.32,121.49 372.48,122.16 					"/>
					
						<rect x="366.64" y="124.19" transform="matrix(0.4995 -0.8663 0.8663 0.4995 77.0973 383.1613)" class="st26" width="7.01" height="1.34"/>
					<polygon class="st28" points="368.97,128.23 367.81,127.56 367.81,133.29 368.97,133.96 					"/>
					<polygon class="st27" points="388.69,122.57 385.19,128.64 372.48,135.98 368.97,133.96 368.97,128.23 372.48,122.16 
						385.19,114.82 388.69,116.84 					"/>
					<g>
						<polygon class="st25" points="383.65,125.65 386.08,124.25 387.62,121.58 387.62,119.07 387.32,118.89 384.89,122.62 
							383.35,125.48 						"/>
						<polygon class="st29" points="383.35,125.48 385.77,124.08 387.32,121.41 387.32,118.89 386.08,118.18 383.65,119.58 
							382.11,122.25 382.11,124.77 						"/>
					</g>
					<g>
						<polygon class="st25" points="371.67,132.57 374.1,131.17 375.64,128.5 375.64,125.99 375.34,125.81 373.5,129.19 
							371.37,132.4 						"/>
						<polygon class="st29" points="371.37,132.4 373.79,130.99 375.33,128.33 375.34,125.81 374.1,125.1 371.67,126.5 
							370.13,129.17 370.13,131.68 						"/>
					</g>
				</g>
				<g>
					<polygon class="st7" points="364.98,101.81 369.47,94.03 380.53,100.42 378.4,104.6 376.04,108.19 					"/>
					<polygon class="st29" points="358.63,105.47 364.98,101.81 376.04,108.19 369.63,112.32 					"/>
					<polygon class="st12" points="369.47,86.7 369.47,94.03 380.53,100.42 380.82,92.78 					"/>
					<g>
						<polygon class="st26" points="368.96,103.44 362.03,99.44 358.78,105.12 365.71,109.12 367.87,108.13 						"/>
						<polygon class="st26" points="369.59,94.78 362.67,90.79 358.76,97.56 365.68,101.55 367.85,100.56 						"/>
						<polygon class="st26" points="376.13,91.01 369.21,87.01 365.94,92.68 372.86,96.67 375.93,94.76 						"/>
						<polygon class="st27" points="369.59,111.36 365.68,109.11 368.96,103.44 365.68,101.55 369.59,94.78 372.86,96.67 
							376.13,91.01 380.04,93.27 376.77,98.93 380.04,100.82 376.13,107.59 372.86,105.7 						"/>
					</g>
					<g>
						<polygon class="st15" points="375.13,97.1 374.24,96.58 371.5,98.16 372.41,99.8 						"/>
						<polygon class="st13" points="372.39,98.68 371.5,98.16 369.56,101.5 370.45,105.19 						"/>
						<polygon class="st34" points="370.46,102.02 369.56,101.5 369.56,104.67 370.45,105.19 						"/>
						<polygon class="st14" points="372.39,106.3 370.45,105.19 370.46,102.02 372.39,98.68 375.13,97.1 377.05,98.21 
							377.06,101.37 375.13,104.72 						"/>
					</g>
					<g>
						<polygon class="st33" points="375.14,100.67 374.23,100.14 373.3,100.67 374.22,101.59 						"/>
						<polygon class="st32" points="374.21,101.21 373.3,100.67 372.64,101.81 373.56,103.41 						"/>
						<polygon class="st35" points="373.56,102.34 372.64,101.81 372.64,102.88 373.56,103.41 						"/>
						<polygon class="st31" points="374.21,103.79 373.56,103.41 373.56,102.34 374.21,101.21 375.14,100.67 375.79,101.05 
							375.8,102.12 375.14,103.25 						"/>
					</g>
					<path class="st10" d="M369.42,93.56l6.89-3.98l4.87,2.81v7.96l-4.87,8.44l-6.89,3.98l-4.88-2.81V102L369.42,93.56z
						 M376.04,90.49l-6.35,3.67l-4.49,7.78v7.33l4.49,2.59l6.35-3.67l4.49-7.78l0-7.33L376.04,90.49z"/>
					<path class="st19" d="M369.42,112.78l-4.88-2.81V102l4.87-8.44l6.89-3.98l4.87,2.81v7.96l-4.87,8.44L369.42,112.78
						L369.42,112.78z M367.51,119.19l10.7-6.18l7.57-13.11l0-12.36l-7.57-4.37l-6.53,1.94l-4.17,4.24l-7.57,13.11v12.36
						L367.51,119.19L367.51,119.19z"/>
					
						<rect x="350.63" y="86.33" transform="matrix(0.5 -0.866 0.866 0.5 98.8092 356.5662)" class="st18" width="15.14" height="12.77"/>
					<polygon class="st30" points="359.95,114.81 359.95,102.46 348.89,96.07 348.89,108.43 					"/>
					<polygon class="st36" points="367.51,89.35 378.22,83.17 367.16,76.78 356.45,82.96 					"/>
				</g>
			</g>
		</g>
		<g>
			<g>
				<polygon class="st0" points="365.1,264.34 390.97,279.26 402.05,272.87 376.18,257.95 				"/>
				<polygon class="st7" points="381.44,249.72 385.93,257.5 374.86,263.89 372.3,259.96 370.37,256.11 				"/>
				<polygon class="st29" points="381.44,242.38 381.44,249.72 370.37,256.11 370,248.48 				"/>
				<polygon class="st12" points="392.29,261.17 385.93,257.5 374.86,263.89 381.34,267.97 				"/>
				<path class="st8" d="M386.37,257.69v7.97l-4.88,2.82l-6.9-3.98l-4.88-8.45v-7.97l4.88-2.82l6.9,3.98L386.37,257.69z
					 M385.71,264.97v-7.34l-4.49-7.79l-6.36-3.67l-4.5,2.6v7.34l4.5,7.78l6.36,3.67L385.71,264.97z"/>
				<path class="st18" d="M369.71,248.07l4.88-2.82l6.9,3.98l4.88,8.45v7.97l-4.88,2.82l-6.9-3.98l-4.88-8.45V248.07L369.71,248.07z
					 M365.1,243.21v12.37l7.58,13.12l10.71,6.19l7.58-4.38l1.59-6.63l-1.59-5.74l-7.58-13.12l-10.71-6.19L365.1,243.21L365.1,243.21
					z"/>
				
					<rect x="386.33" y="240.82" transform="matrix(0.8659 -0.5002 0.5002 0.8659 -71.5843 229.7243)" class="st30" width="12.79" height="15.15"/>
				<polygon class="st36" points="372.68,238.84 383.4,245.03 394.47,238.63 383.76,232.45 				"/>
				<polygon class="st19" points="390.97,258.15 390.97,262.15 392.95,264.32 390.97,266.52 390.97,270.52 402.05,264.13 
					402.05,260.13 399.9,257.61 402.05,255.76 402.05,251.76 				"/>
				<g>
					<polygon class="st12" points="390.97,262.15 390.97,266.52 402.05,260.13 402.05,255.76 					"/>
					<g>
						<polygon class="st37" points="391.8,264.78 391.8,265.47 392.38,265.14 392.38,264.44 392.67,264.28 392.09,263.69 
							391.51,264.95 						"/>
						<polygon class="st37" points="393.5,262 392.92,261.41 392.34,262.67 392.63,262.5 392.63,263.19 393.21,262.86 
							393.21,262.17 						"/>
						<polygon class="st37" points="394.82,261.23 394.82,261.93 395.4,261.59 395.4,260.9 395.69,260.73 395.11,260.14 
							394.53,261.4 						"/>
						<polygon class="st37" points="397.01,259.97 397.01,260.66 397.59,260.33 397.59,259.63 397.88,259.46 397.3,258.88 
							396.72,260.14 						"/>
						<polygon class="st37" points="399.21,258.7 399.21,259.39 399.78,259.06 399.78,258.37 400.08,258.2 399.5,257.61 
							398.92,258.87 						"/>
						<polygon class="st37" points="393.99,263.51 393.99,264.21 394.57,263.87 394.57,263.18 394.87,263.01 394.28,262.42 
							393.7,263.68 						"/>
						<polygon class="st37" points="396.19,262.25 396.19,262.94 396.77,262.61 396.77,261.91 397.06,261.74 396.48,261.16 
							395.9,262.42 						"/>
						<polygon class="st37" points="398.38,260.98 398.38,261.67 398.96,261.34 398.96,260.65 399.25,260.48 398.67,259.89 
							398.09,261.15 						"/>
						<polygon class="st37" points="400.57,259.71 400.57,260.41 401.15,260.08 401.15,259.38 401.44,259.21 400.86,258.63 
							400.28,259.88 						"/>
					</g>
				</g>
			</g>
			<g>
				<path class="st0" d="M351.55,290.01h-0.07l-10.9-6.29v-9.04l10.9-6.29h15.29l10.9,6.29v9.04l-10.9,6.29H351.55z"/>
				<polygon class="st7" points="363.63,272.94 354.64,272.94 354.64,260.15 359.33,259.9 363.63,260.15 				"/>
				<polygon class="st12" points="369.98,276.6 363.63,272.94 363.63,260.15 370.41,263.64 				"/>
				<polygon class="st6" points="348.28,276.6 354.64,272.94 354.64,260.15 347.87,263.72 				"/>
				<path class="st8" d="M354.25,273.22l-6.9-3.98v-5.63l6.9-3.98h9.76l6.9,3.98v5.63l-6.9,3.98H354.25z M348.28,269.01l6.36,3.67
					h8.99l6.35-3.67v-5.19l-6.35-3.67l-8.99,0l-6.36,3.67V269.01z"/>
				<path class="st36" d="M370.91,263.6v5.63l-6.9,3.98h-9.76l-6.9-3.98v-5.63l6.9-3.98h9.76L370.91,263.6L370.91,263.6z
					 M377.42,262.04l-10.71-6.18h-15.15l-10.71,6.18v8.75l4.95,4.69l5.76,1.5l15.15,0l10.71-6.19V262.04L377.42,262.04z"/>
				<rect x="351.55" y="276.97" class="st30" width="15.15" height="12.78"/>
				<polygon class="st19" points="377.42,270.79 366.71,276.97 366.71,289.76 377.42,283.57 				"/>
				<polygon class="st18" points="351.55,276.97 348.09,274.98 345.22,275.6 344.31,272.79 340.84,270.79 340.84,283.57 
					344.31,285.58 347.57,284.97 348.09,287.76 351.55,289.76 				"/>
				<g>
					<polygon class="st12" points="348.09,274.98 344.31,272.79 344.31,285.58 348.09,287.76 					"/>
					<g>
						<polygon class="st37" points="345.4,274.38 344.8,274.03 344.8,274.7 345.4,275.05 345.4,275.38 346.2,275.17 345.4,274.04 
													"/>
						<polygon class="st37" points="346.96,277.24 347.76,277.03 346.96,275.9 346.96,276.23 346.36,275.89 346.36,276.56 
							346.96,276.9 						"/>
						<polygon class="st37" points="346.96,278.76 346.36,278.42 346.36,279.09 346.96,279.43 346.96,279.77 347.76,279.56 
							346.96,278.43 						"/>
						<polygon class="st37" points="346.96,281.3 346.36,280.95 346.36,281.62 346.96,281.96 346.96,282.3 347.76,282.09 
							346.96,280.96 						"/>
						<polygon class="st37" points="346.96,283.83 346.36,283.48 346.36,284.15 346.96,284.5 346.96,284.83 347.76,284.62 
							346.96,283.49 						"/>
						<polygon class="st37" points="345.4,276.91 344.8,276.56 344.8,277.23 345.4,277.58 345.4,277.91 346.2,277.7 345.4,276.57 
													"/>
						<polygon class="st37" points="345.4,279.44 344.8,279.09 344.8,279.76 345.4,280.11 345.4,280.45 346.2,280.23 345.4,279.11 
													"/>
						<polygon class="st37" points="345.4,281.97 344.8,281.63 344.8,282.29 345.4,282.64 345.4,282.98 346.2,282.77 345.4,281.64 
													"/>
						<polygon class="st37" points="345.4,284.5 344.8,284.16 344.8,284.83 345.4,285.17 345.4,285.51 346.2,285.3 345.4,284.17 
													"/>
					</g>
				</g>
			</g>
		</g>
		<g>
			<polygon class="st0" points="307.87,198.01 300.86,197.45 298.47,198.84 295.86,198.84 260.56,219.22 260.56,221.45 
				263.29,223.03 267.16,223.03 302.45,202.65 302.45,201.14 			"/>
			<polygon class="st15" points="301.83,199.39 299.91,197.69 301,197.07 302.14,197.73 302.09,198.12 			"/>
			<polygon class="st38" points="300.68,200.36 301.4,201.66 302.14,198.09 302.14,197.73 301.87,199.01 			"/>
			<g>
				<polygon class="st5" points="307.87,195.21 298.47,200.63 294.49,198.29 307.87,195.1 				"/>
				<polygon class="st39" points="307.87,195.1 298.47,200.52 294.49,198.22 300.86,194.54 				"/>
			</g>
			<polygon class="st38" points="301.87,199.01 301.87,198.53 302.14,197.23 302.14,196.7 299.64,198.47 300.68,200.36 
				301.63,199.69 			"/>
			<polygon class="st14" points="301.11,196.11 294.94,196.53 301.4,200.26 302.14,196.7 			"/>
			<polygon class="st13" points="301.11,196.11 296.17,196.2 298.76,198.42 300.16,198.5 302.14,196.7 			"/>
			<polygon class="st38" points="266.91,221.82 300.16,202.62 301.4,201.66 296.17,200.32 262.92,219.52 			"/>
			<polygon class="st40" points="268.15,220.86 266.91,221.82 264.16,221.73 266.54,220.8 			"/>
			<polygon class="st41" points="264.16,221.73 260.17,219.43 260.17,218.03 265.77,219.62 			"/>
			<polygon class="st14" points="301.4,201.66 268.15,220.86 268.15,219.46 287.7,206.95 301.4,200.26 			"/>
			<polygon class="st13" points="261.68,215.73 294.94,196.53 296.17,196.2 294.43,197.7 264.84,214.74 262.92,215.88 			"/>
			<polygon class="st42" points="266.91,218.75 266.91,217.7 272.42,213.98 293.46,201.84 300.16,198.5 301.4,200.26 268.15,219.46 
							"/>
			<polygon class="st15" points="266.91,217.7 300.16,198.5 296.17,196.2 262.92,215.4 			"/>
			<polygon class="st39" points="295.97,199.91 276.31,211.26 274.6,210.22 294.22,198.34 			"/>
			<polygon class="st14" points="276.31,211.26 275.84,211.53 274.13,210.5 265.71,215.36 265.23,215.08 274.13,209.94 			"/>
			<polygon class="st38" points="275.84,211.53 267.46,216.37 265.71,215.36 274.13,210.5 			"/>
			<polygon class="st13" points="294.22,198.34 296.45,199.63 295.97,199.91 294.22,198.9 293.9,198.9 			"/>
			<polygon class="st14" points="294.22,198.9 274.6,210.22 274.13,209.94 294.22,198.34 			"/>
			<g>
				<polygon class="st40" points="274.06,213.22 282.69,208.24 282.69,206.84 279.74,208.2 270.86,210.55 				"/>
				<polygon class="st41" points="274.06,213.22 274.06,212.4 272.6,210.64 270.86,210.55 270.86,211.38 				"/>
				<polygon class="st43" points="276.44,207.33 270.86,210.55 274.06,212.4 279.64,209.18 				"/>
				<polygon class="st41" points="279.64,209.18 282.69,206.84 279.5,204.99 276.44,207.33 				"/>
			</g>
			<polygon class="st41" points="260.17,218.03 260.83,216.22 261.68,215.73 262.92,215.4 261.98,217.31 			"/>
			<polygon class="st40" points="267.06,219.58 264.16,220.33 264.16,221.73 267.29,221.35 268.15,220.86 268.15,219.46 			"/>
			<polygon class="st44" points="266.91,217.7 268.15,219.46 267.29,219.96 264.16,220.33 264.8,218.44 			"/>
			<polygon class="st43" points="262.92,215.4 266.91,217.7 264.16,220.33 260.17,218.03 			"/>
		</g>
		<g>
			<g>
				<path class="st0" d="M191.79,297.25l-3.03-1.75v-2.58l3.03-1.75h4.18l3.03,1.75v2.58l-3.03,1.75H191.79z M189.15,295.27
					l2.74,1.58h3.97l2.74-1.58v-2.13l-2.74-1.58h-3.97l-2.74,1.58V295.27z"/>
				<g>
					<path class="st45" d="M198.8,289.91l-2.88-1.67h-4.08l-2.88,1.67v2.36l1.33,1.26l1.55,0.4h4.08l2.89-1.66L198.8,289.91
						L198.8,289.91z"/>
					<polygon class="st46" points="198.8,292.27 195.92,293.93 195.03,295.72 195.92,297.05 198.8,295.39 					"/>
					<polygon class="st47" points="195.92,293.93 191.84,293.93 190.85,295.06 191.84,297.05 195.92,297.05 					"/>
					<polygon class="st48" points="191.84,293.93 188.95,292.27 188.95,295.39 191.84,297.05 					"/>
				</g>
				<g>
					<path class="st43" d="M198.8,271.59l-2.88-1.67h-4.08l-2.88,1.67v2.36l1.33,1.26l1.55,0.4h4.08l2.89-1.67L198.8,271.59
						L198.8,271.59z"/>
					<polygon class="st29" points="198.8,273.95 195.92,275.61 195.03,278.33 195.92,293.93 198.8,292.27 					"/>
					<polygon class="st7" points="195.92,275.61 191.84,275.61 190.85,278.04 191.84,293.93 195.92,293.93 					"/>
					<polygon class="st12" points="191.84,275.61 188.95,273.95 188.95,292.27 191.84,293.93 					"/>
					<polygon class="st4" points="189.38,276.91 191.41,278.08 191.41,290.97 189.38,289.8 					"/>
				</g>
				<g>
					<path class="st45" d="M198.8,265.08l-2.88-1.67h-4.08l-2.88,1.66v2.36l1.33,1.26l1.55,0.4h4.08l2.89-1.67L198.8,265.08
						L198.8,265.08z"/>
					<polygon class="st46" points="198.8,267.43 195.92,269.1 195.03,271.81 195.92,275.61 198.8,273.95 					"/>
					<polygon class="st47" points="195.92,269.1 191.84,269.1 190.85,271.53 191.84,275.61 195.92,275.61 					"/>
					<polygon class="st48" points="191.84,269.1 188.95,267.43 188.95,273.95 191.84,275.61 					"/>
				</g>
			</g>
			<g>
				<path class="st0" d="M202.81,301.89l-3.03-1.75v-2.58l3.03-1.75H207l3.03,1.75v2.58l-3.03,1.75H202.81z M200.18,299.91
					l2.74,1.58h3.97l2.74-1.58l0-2.13l-2.74-1.58h-3.97l-2.74,1.58V299.91z"/>
				<g>
					<path class="st45" d="M209.83,294.54l-2.89-1.66h-4.08l-2.88,1.66v2.36l1.33,1.26l1.55,0.4h4.08l2.89-1.66V294.54
						L209.83,294.54z"/>
					<polygon class="st46" points="209.83,296.9 206.94,298.56 206.05,300.35 206.94,301.68 209.83,300.02 					"/>
					<polygon class="st47" points="206.94,298.56 202.86,298.56 201.88,299.69 202.86,301.68 206.94,301.68 					"/>
					<polygon class="st48" points="202.86,298.56 199.98,296.9 199.98,300.02 202.86,301.68 					"/>
				</g>
				<g>
					<path class="st12" d="M209.83,276.22l-2.89-1.66h-4.08l-2.88,1.66v2.36l1.33,1.26l1.55,0.4h4.08l2.89-1.66V276.22
						L209.83,276.22z"/>
					<polygon class="st29" points="209.83,278.58 206.94,280.24 206.05,282.96 206.94,298.56 209.83,296.9 					"/>
					<polygon class="st6" points="206.94,280.24 202.86,280.24 201.88,282.67 202.86,298.56 206.94,298.56 					"/>
					<polygon class="st7" points="202.86,280.24 199.98,278.58 199.98,296.9 202.86,298.56 					"/>
					<polygon class="st4" points="200.41,281.54 202.44,282.71 202.44,295.6 200.41,294.43 					"/>
				</g>
				<g>
					<path class="st12" d="M209.3,273.95l-2.58-1.49h-3.64l-2.58,1.49v2.1l1.19,1.13l1.39,0.36h3.64l2.58-1.49V273.95L209.3,273.95z
						"/>
					<polygon class="st29" points="209.3,276.06 206.73,277.54 205.93,278.34 206.73,279.77 209.3,278.29 					"/>
					<polygon class="st6" points="206.73,277.54 203.08,277.54 202.2,278.08 203.08,279.77 206.73,279.77 					"/>
					<polygon class="st7" points="203.08,277.54 200.5,276.06 200.5,278.29 203.08,279.77 					"/>
				</g>
				<g>
					<path class="st49" d="M209.04,269.06l-2.43-1.4h-3.43l-2.43,1.4v1.98l1.12,1.06l1.3,0.34h3.43l2.43-1.4V269.06L209.04,269.06z"
						/>
					<path class="st12" d="M205.3,269.89h-0.79l-0.56,0.32v0.07l0.56,0.33h0.79l0.56-0.33v-0.07L205.3,269.89z"/>
					<polygon class="st50" points="205.86,269.83 205.86,270.21 205.3,269.89 204.51,269.89 203.95,270.21 203.95,269.83 
						204.51,269.5 205.3,269.5 					"/>
					<polygon class="st50" points="209.04,271.04 206.62,272.44 205.87,273.19 206.62,277.26 209.04,275.86 					"/>
					<polygon class="st51" points="206.62,272.44 203.19,272.44 202.36,272.95 203.19,277.26 206.62,277.26 					"/>
					<polygon class="st52" points="203.19,272.44 200.76,271.04 200.76,275.86 203.19,277.26 					"/>
				</g>
			</g>
			<g>
				<path class="st0" d="M194.44,307.4l-3.03-1.75v-2.59l3.03-1.75h4.19l3.03,1.75v2.59l-3.03,1.75H194.44z M191.81,305.42
					l2.74,1.58l3.98,0l2.74-1.58l0-2.13l-2.74-1.58h-3.98l-2.74,1.58V305.42z"/>
				<path class="st45" d="M201.46,296.65l-2.89-1.67l-4.08,0l-2.88,1.67v2.36l1.33,1.26l1.55,0.4h4.08l2.89-1.66V296.65
					L201.46,296.65z"/>
				<polygon class="st46" points="201.46,299.01 198.57,300.67 197.68,303.39 198.57,307.19 201.46,305.52 				"/>
				<polygon class="st47" points="198.57,300.67 194.49,300.67 193.5,303.1 194.49,307.19 198.57,307.19 				"/>
				<polygon class="st48" points="194.49,300.67 191.61,299.01 191.61,305.52 194.49,307.19 				"/>
			</g>
		</g>
		<g>
			<g>
				<polygon class="st0" points="145,337.07 97.61,364.4 97.01,364.75 97.05,364.84 95.96,365.47 95.41,365.79 95.7,366.41 
					96.66,366.96 97.73,367.12 98.28,366.81 99.37,366.18 99.52,366.21 100.12,365.86 147.52,338.53 150.94,335.12 				"/>
				<g>
					<polygon class="st33" points="149.59,334.52 149.33,334.23 150.94,333.81 					"/>
					<polygon class="st31" points="149.76,334.98 149.63,334.61 150.94,333.81 					"/>
					<polygon class="st32" points="149.76,334.69 149.61,334.69 149.59,334.38 150.94,333.81 					"/>
					<polygon class="st11" points="147,337.74 145.58,336.67 145.55,335.22 147.06,334.97 149.59,334.38 149.76,334.69 
						147.86,336.38 					"/>
					<polygon class="st9" points="147,337.74 147,336.76 149.76,334.69 149.76,334.98 					"/>
					<polygon class="st8" points="146.4,335.71 145.55,335.22 149.33,334.23 149.59,334.38 					"/>
				</g>
				<g>
					<polygon class="st53" points="103.19,362.05 102.59,361 101.74,360.51 101.14,360.86 101.14,361.84 101.74,362.88 
						102.59,363.38 103.19,363.03 					"/>
					<polygon class="st25" points="102.59,361 101.74,360.51 145.55,335.22 146.4,335.71 102.7,361.02 					"/>
					<polygon class="st26" points="103.19,362.05 102.59,361 146.4,335.71 147,336.76 103.3,362.09 					"/>
					<polygon class="st27" points="103.19,363.03 103.19,362.05 147,336.76 147,337.74 					"/>
				</g>
				<g>
					<polygon class="st24" points="99.63,364.1 99.03,363.06 98.18,362.57 97.58,362.92 97.58,363.9 98.18,364.94 99.03,365.43 
						99.63,365.09 					"/>
					<polygon class="st39" points="99.03,363.06 98.18,362.57 101.74,360.51 102.59,361 99.14,363.07 					"/>
					<polygon class="st29" points="99.63,364.1 99.03,363.06 102.59,361 103.19,362.05 99.74,364.15 					"/>
					<polygon class="st5" points="99.63,365.09 99.63,364.1 103.19,362.05 103.19,363.03 					"/>
				</g>
				<g>
					<polygon class="st54" points="97.83,365.09 97.28,364.13 96.49,363.68 95.94,364 95.94,364.9 96.49,365.86 97.28,366.31 
						97.83,365.99 					"/>
					<polygon class="st55" points="97.28,364.13 96.49,363.68 98.13,362.74 98.91,363.19 97.38,364.14 					"/>
					<polygon class="st56" points="97.83,365.09 97.28,364.13 98.91,363.19 99.47,364.15 97.93,365.13 					"/>
					<polygon class="st57" points="97.83,365.99 97.83,365.09 99.47,364.15 99.47,365.05 					"/>
				</g>
				<g>
					<polygon class="st15" points="105.66,359.24 104.81,358.75 106.11,357.99 106.96,358.48 105.76,359.25 					"/>
					<polygon class="st13" points="106.26,360.28 105.66,359.24 106.96,358.48 107.57,359.52 106.36,360.33 					"/>
					<polygon class="st14" points="106.26,361.26 106.26,360.28 107.57,359.52 107.57,360.5 					"/>
				</g>
			</g>
			<g>
				<g>
					<g>
						<polygon class="st24" points="165.41,290.07 165.18,290.07 165.02,289.98 165.02,289.84 165.18,289.75 165.41,289.75 
							165.57,289.84 165.57,289.98 						"/>
						<polygon class="st7" points="165.18,290.07 165.02,289.98 165.02,293.02 165.18,293.12 165.19,290.09 						"/>
						<polygon class="st24" points="165.41,290.07 165.18,290.07 165.18,293.12 165.41,293.12 165.43,290.08 						"/>
						<polygon class="st5" points="165.57,289.98 165.41,290.07 165.41,293.12 165.57,293.02 						"/>
					</g>
					<g>
						<polygon class="st24" points="138.03,274.3 137.8,274.31 137.63,274.21 137.63,274.08 137.8,273.99 138.03,273.99 
							138.19,274.08 138.19,274.21 						"/>
						<polygon class="st7" points="137.8,274.31 137.63,274.21 137.63,277.26 137.8,277.35 137.81,274.32 						"/>
						<polygon class="st24" points="138.03,274.3 137.8,274.31 137.8,277.35 138.03,277.35 138.04,274.32 						"/>
						<polygon class="st5" points="138.19,274.21 138.03,274.3 138.03,277.35 138.19,277.26 						"/>
					</g>
				</g>
				<path class="st0" d="M100.92,347.75l-60.93-35.18l80.9-46.71l60.93,35.18L100.92,347.75z"/>
				<g>
					<path class="st58" d="M100.92,347.1l-59.8-34.53l79.77-46.05l59.8,34.53L100.92,347.1z"/>
					<polygon class="st59" points="100.92,345.45 43.08,312.05 120.88,267.13 178.72,300.53 					"/>
					<polygon class="st60" points="180.68,301.05 100.92,347.1 100.01,346.17 100.92,345.45 178.72,300.53 					"/>
					<polygon class="st61" points="100.92,347.1 41.12,312.57 43.08,312.05 100.92,345.45 					"/>
				</g>
				<g>
					<path class="st0" d="M158.09,296.49l-30.22-17.45l8.17-4.72l27.77,16.03l1.88,2.04l0.31,0.17l-1.1-0.01L158.09,296.49z"/>
					<g>
						<polygon class="st24" points="158.09,296.17 128.44,279.04 128.44,278.48 165.7,291.2 						"/>
						<polygon class="st5" points="158.09,296.17 158.09,295.6 160.43,292.31 165.7,291.2 165.7,292.4 164.63,292.39 						"/>
						<polygon class="st39" points="158.09,295.6 128.44,278.48 136.04,274.08 165.7,291.2 						"/>
					</g>
					<g>
						<path class="st7" d="M159.29,290.17h-1.13l-0.8,0.46v0.65l0.8,0.46h1.13l0.8-0.46v-0.65L159.29,290.17z"/>
						<polygon class="st5" points="160.09,291.48 159.29,291.94 159.03,291.85 159.29,291.75 160.09,291.29 						"/>
						<polygon class="st24" points="158.16,291.94 157.35,291.48 157.35,291.29 158.16,291.75 158.61,291.85 						"/>
						<rect x="158.16" y="291.75" class="st62" width="1.13" height="0.19"/>
					</g>
					<g>
						<path class="st7" d="M136.7,277.13h-1.14l-0.8,0.46v0.66l0.8,0.46h1.14l0.8-0.46v-0.66L136.7,277.13z"/>
						<polygon class="st5" points="137.51,278.44 136.7,278.9 136.44,278.81 136.7,278.71 137.51,278.25 						"/>
						<polygon class="st24" points="135.57,278.9 134.77,278.44 134.77,278.25 135.57,278.71 136.03,278.81 						"/>
						<rect x="135.57" y="278.71" class="st62" width="1.14" height="0.19"/>
					</g>
				</g>
				<g>
					<polygon class="st12" points="169,302.7 173.69,300 120.98,269.56 116.58,272.1 124.97,278.71 153.55,296.49 					"/>
					<polygon class="st7" points="116.58,272.1 111.86,275.35 119.02,286.18 149.21,302.22 164.57,305.78 169,302.7 					"/>
					<polygon class="st12" points="111.86,275.35 50.08,311.01 102.79,341.45 164.57,305.78 					"/>
					<g>
						<polygon class="st6" points="115.58,281.92 113.45,283.16 151.77,305.29 153.91,304.06 						"/>
						<polygon class="st6" points="137.58,301.36 109.75,285.29 107.62,286.52 135.44,302.59 						"/>
						<polygon class="st6" points="101.79,289.89 140.11,312.02 142.25,310.79 103.92,288.66 						"/>
						<polygon class="st6" points="95.95,293.26 134.28,315.39 136.41,314.16 98.09,292.03 						"/>
						<polygon class="st6" points="90.12,296.63 128.45,318.75 130.58,317.52 92.25,295.39 						"/>
						<polygon class="st6" points="84.29,299.99 122.62,322.12 124.75,320.89 86.42,298.76 						"/>
						<polygon class="st6" points="94.63,325.94 105.31,332.11 107.45,330.88 96.76,324.71 						"/>
						<polygon class="st6" points="108.42,318.19 80.59,302.13 78.46,303.36 106.29,319.43 						"/>
					</g>
				</g>
				<g>
					<g>
						<polygon class="st24" points="131,278.2 130.89,278 130.73,277.91 130.61,277.98 130.61,278.16 130.73,278.36 130.89,278.45 
							131,278.39 						"/>
						<polygon class="st7" points="130.89,278 130.73,277.91 137.91,273.76 138.07,273.85 130.91,278.01 						"/>
						<polygon class="st24" points="131,278.2 130.89,278 138.07,273.85 138.19,274.05 131.02,278.21 						"/>
						<polygon class="st5" points="131,278.39 131,278.2 138.19,274.05 138.19,274.24 						"/>
					</g>
					<g>
						<polygon class="st24" points="158,293.9 158.11,293.7 158.27,293.6 158.39,293.67 158.39,293.86 158.27,294.06 158.11,294.15 
							158,294.08 						"/>
						<polygon class="st7" points="158.11,293.7 158.27,293.6 131.05,277.91 130.89,278 158.09,293.7 						"/>
						<polygon class="st24" points="158,293.9 158.11,293.7 130.89,278 130.61,278.11 157.98,293.91 						"/>
						<polygon class="st5" points="158.27,294.25 158.27,294.06 130.61,278.11 130.61,278.16 130.73,278.36 						"/>
					</g>
					<g>
						<polygon class="st7" points="158.27,293.79 158.11,293.7 165.29,289.55 165.46,289.65 158.29,293.79 						"/>
						<polygon class="st24" points="158.27,294.06 158.27,293.79 165.46,289.65 165.57,289.84 158.47,294 						"/>
						<polygon class="st5" points="158.27,294.25 158.18,294.14 158.27,294.06 165.57,289.84 165.57,290.03 						"/>
					</g>
				</g>
			</g>
		</g>
		<g>
			<g>
				<rect x="314.96" y="261.71" class="st14" width="0.93" height="9.69"/>
				<rect x="314.96" y="261.35" class="st43" width="0.46" height="9.69"/>
				<rect x="314.7" y="259.88" class="st15" width="0.52" height="9.69"/>
			</g>
			<g>
				<polygon class="st14" points="362.82,287.36 363.72,288.25 363.72,288.56 363.07,288.66 362.6,287.77 				"/>
				<polygon class="st15" points="343.22,287.36 362.82,287.36 362.82,287.67 353.47,288.61 343.22,287.67 				"/>
				<polygon class="st42" points="363.72,288.56 362.82,287.67 343.22,287.67 343.22,318.21 362.82,318.21 363.72,317.32 				"/>
				<g>
					<polygon class="st33" points="362.24,303.16 361.41,303.16 361.41,303.28 361.96,303.53 362.24,303.28 					"/>
					<polygon class="st32" points="361.41,303.16 360.82,303.74 360.82,303.87 361.23,303.76 361.41,303.28 					"/>
					<polygon class="st31" points="362.24,303.16 362.83,303.74 362.83,303.87 362.42,303.76 362.24,303.28 					"/>
					<polygon class="st35" points="362.83,303.87 362.24,303.28 361.41,303.28 360.82,303.87 360.82,307.35 361.41,307.94 
						362.24,307.94 362.83,307.35 					"/>
					<polygon class="st31" points="362.53,304.1 362.24,303.8 361.82,303.8 361.53,304.1 361.53,306.47 361.82,306.77 
						362.24,306.77 362.53,306.47 					"/>
				</g>
				<polygon class="st13" points="360.11,291.41 359.4,290.69 348.73,290.69 348.01,291.41 348.01,297.95 348.73,298.67 
					359.4,298.67 360.11,297.95 				"/>
				<polygon class="st14" points="359.48,291.48 358.84,290.84 349.29,290.84 348.65,291.48 348.65,297.34 349.29,297.98 
					358.84,297.98 359.48,297.34 				"/>
			</g>
			<polygon class="st0" points="347.55,331.75 271.69,375.54 238.36,356.3 314.23,312.5 			"/>
			<g>
				<g>
					<polygon class="st40" points="255.74,313.56 256.57,313.08 259.37,314.81 260.21,316.25 260.21,319.03 258.7,319.91 
						256.57,317.79 255.74,316.35 					"/>
					<polygon class="st41" points="255.46,313.73 256.29,313.25 258.41,315.38 259.24,316.82 259.24,319.59 258.41,320.07 
						256.29,317.95 255.46,316.52 					"/>
				</g>
				<g>
					<polygon class="st44" points="260.08,319.46 259.33,319.04 259.33,318.65 260.2,319.02 					"/>
					<polygon class="st41" points="260.08,319.08 259.33,318.65 259.56,318.25 260.65,318.48 					"/>
					<polygon class="st43" points="260.31,318.67 259.56,318.25 259.91,318.05 260.65,318.48 					"/>
					<polygon class="st40" points="260.89,318.62 260.65,318.48 260.31,318.67 260.08,319.08 260.08,319.46 260.31,319.6 
						260.65,319.41 260.89,319 					"/>
				</g>
			</g>
			<polygon class="st31" points="290.69,356.29 281.34,350.88 281.34,345.33 296.18,350.76 			"/>
			<g>
				<polygon class="st43" points="286.31,352.18 280.72,348.95 275.45,351.99 281.08,357.39 				"/>
				<g>
					<polygon class="st41" points="280.55,354.94 279.8,354.51 285.08,351.46 285.82,351.9 					"/>
					<polygon class="st41" points="279.26,354.19 278.51,353.76 283.78,350.72 284.53,351.15 					"/>
					<polygon class="st41" points="277.97,353.45 277.22,353.02 282.49,349.97 283.24,350.41 					"/>
					<polygon class="st41" points="281.95,349.66 276.68,352.7 275.93,352.27 281.2,349.22 					"/>
				</g>
				<polygon class="st41" points="281.04,355.22 275.45,351.99 271.72,358.44 277.32,367.75 				"/>
				<g>
					<polygon class="st40" points="276.83,361.39 276.08,360.95 279.8,354.51 280.55,354.94 					"/>
					
						<rect x="273.3" y="356.77" transform="matrix(0.4989 -0.8667 0.8667 0.4989 -170.7553 419.0791)" class="st40" width="7.45" height="0.86"/>
					
						<rect x="272.01" y="356.02" transform="matrix(0.501 -0.8654 0.8654 0.501 -170.9027 416.5003)" class="st40" width="7.45" height="0.86"/>
					
						<rect x="270.72" y="355.28" transform="matrix(0.5 -0.866 0.866 0.5 -170.8349 415.5144)" class="st40" width="7.45" height="0.87"/>
				</g>
				<polygon class="st44" points="277.32,361.67 271.72,358.44 271.72,364.52 277.32,367.75 				"/>
				<g>
					<polygon points="276.83,367.47 276.08,367.04 276.08,360.95 276.83,361.39 					"/>
					<polygon points="275.54,366.72 274.79,366.29 274.79,360.21 275.54,360.64 					"/>
					<polygon points="274.25,365.98 273.5,365.55 273.5,359.46 274.25,359.9 					"/>
					<polygon points="272.96,359.15 272.96,365.23 272.2,364.8 272.2,358.72 					"/>
				</g>
				<polygon class="st40" points="281.04,369.9 277.32,367.75 277.31,361.67 281.04,355.22 286.31,352.18 290.03,354.33 
					290.04,360.41 286.31,366.86 				"/>
				<polygon class="st41" points="282.17,366.08 285.17,364.35 287.29,360.68 287.29,357.23 286.79,356.94 286.79,360.4 
					284.67,364.06 281.68,365.79 				"/>
				<polygon class="st24" points="281.68,365.79 284.67,364.06 286.79,360.4 286.79,356.94 285.17,356 282.82,357.36 281.82,358.36 
					280.06,361.4 280.06,364.85 				"/>
				<polygon class="st5" points="282.21,359.24 282.78,358.91 283.18,358.22 283.18,357.56 282.92,357.42 282.93,358.07 
					282.52,358.76 281.96,359.1 				"/>
				<polygon class="st40" points="281.96,359.1 282.52,358.76 282.93,358.07 282.92,357.42 282.82,357.36 282.18,357.74 
					281.81,358.36 281.81,359.01 				"/>
				<polygon class="st5" points="282.21,364.97 282.78,364.64 283.18,363.94 283.18,363.29 282.93,363.14 282.93,363.8 
					282.53,364.49 281.96,364.82 				"/>
				<polygon class="st40" points="281.96,364.82 282.53,364.49 282.93,363.8 282.93,363.14 282.78,363.06 282.21,363.38 
					281.81,364.08 281.81,364.73 				"/>
				<polygon class="st5" points="281.03,364.12 280.88,364.03 280.88,363.78 281.04,363.51 281.25,363.38 281.4,363.47 
					281.41,363.73 281.25,363.99 				"/>
				<polygon class="st5" points="285.76,359.57 285.61,359.48 285.61,359.23 285.76,358.96 285.98,358.83 286.14,358.92 
					286.14,359.17 285.98,359.44 				"/>
				<polygon class="st5" points="283.8,363.37 283.64,363.28 283.65,363.03 283.8,362.76 284.02,362.64 284.17,362.73 
					284.17,362.98 284.02,363.25 				"/>
				<polygon class="st5" points="283.8,358.03 283.64,357.94 283.65,357.69 283.8,357.42 284.02,357.3 284.17,357.38 284.17,357.64 
					284.02,357.91 				"/>
				<polygon class="st5" points="281.03,360.47 280.88,360.38 280.88,360.13 281.03,359.86 281.25,359.74 281.41,359.82 
					281.4,360.08 281.25,360.34 				"/>
				<polygon class="st5" points="280.44,363.13 281,362.8 281.4,362.11 281.4,361.45 281.15,361.3 281.15,361.96 280.75,362.66 
					280.18,362.98 				"/>
				<polygon class="st40" points="280.18,362.98 280.75,362.66 281.15,361.96 281.15,361.3 281.01,361.22 280.44,361.55 
					280.03,362.24 280.03,362.9 				"/>
				<polygon class="st5" points="284.9,358.85 285.47,358.52 285.87,357.83 285.88,357.17 285.62,357.03 285.62,357.68 
					285.22,358.37 284.65,358.7 				"/>
				<polygon class="st40" points="284.65,358.7 285.22,358.37 285.62,357.68 285.62,357.03 285.62,357.02 285.47,356.95 
					284.9,357.27 284.51,357.96 284.51,358.62 				"/>
				<polygon class="st5" points="284.91,362.25 285.47,361.92 285.87,361.23 285.88,360.57 285.62,360.42 285.62,361.08 
					285.22,361.77 284.65,362.1 				"/>
				<polygon class="st40" points="284.65,362.1 285.22,361.77 285.62,361.08 285.62,360.42 285.47,360.34 284.91,360.67 
					284.51,361.36 284.5,362.02 				"/>
				<g>
					<polygon class="st62" points="282.68,362.09 282.19,361.8 282.19,360.85 282.77,359.84 283.59,359.37 284.09,359.65 
						284.17,360.65 283.6,361.66 					"/>
					<polygon class="st5" points="283.26,362.42 282.68,362.09 282.68,361.14 283.26,360.13 284.09,359.65 284.67,359.99 
						284.66,360.94 284.09,361.95 					"/>
				</g>
			</g>
			<polygon class="st31" points="334.1,331.62 324.75,326.22 324.75,320.67 339.58,326.1 			"/>
			<g>
				<polygon class="st43" points="329.67,327.14 324.08,323.91 318.81,326.96 324.44,332.36 				"/>
				<g>
					<polygon class="st41" points="323.91,329.91 323.16,329.48 328.44,326.43 329.18,326.86 					"/>
					<polygon class="st41" points="322.62,329.16 321.87,328.73 327.14,325.68 327.89,326.11 					"/>
					<polygon class="st41" points="321.33,328.41 320.58,327.98 325.85,324.94 326.6,325.37 					"/>
					<polygon class="st41" points="325.31,324.62 320.04,327.67 319.29,327.23 324.55,324.19 					"/>
				</g>
				<polygon class="st41" points="324.4,330.18 318.81,326.96 315.08,333.41 320.67,342.72 				"/>
				<g>
					<polygon class="st40" points="320.19,336.35 319.44,335.92 323.16,329.48 323.91,329.91 					"/>
					
						<rect x="316.66" y="331.74" transform="matrix(0.4976 -0.8674 0.8674 0.4976 -127.1665 444.7733)" class="st40" width="7.45" height="0.86"/>
					
						<rect x="315.37" y="330.99" transform="matrix(0.4997 -0.8662 0.8662 0.4997 -127.4378 442.1933)" class="st40" width="7.44" height="0.86"/>
					<polygon class="st40" points="320.04,327.67 316.32,334.12 315.56,333.68 319.29,327.23 					"/>
				</g>
				<polygon class="st44" points="320.67,336.63 315.08,333.41 315.08,339.49 320.67,342.72 				"/>
				<g>
					<polygon points="320.19,342.43 319.44,342 319.44,335.92 320.19,336.35 					"/>
					<polygon points="318.9,341.69 318.15,341.25 318.15,335.18 318.9,335.61 					"/>
					<polygon points="317.61,340.94 316.86,340.51 316.86,334.43 317.61,334.86 					"/>
					<polygon points="316.32,334.12 316.32,340.19 315.56,339.77 315.56,333.68 					"/>
				</g>
				<polygon class="st40" points="324.4,344.87 320.67,342.72 320.67,336.63 324.4,330.18 329.67,327.14 333.39,329.29 
					333.39,335.37 329.67,341.82 				"/>
				<polygon class="st41" points="325.53,341.04 328.53,339.31 330.65,335.65 330.64,332.19 330.15,331.91 330.15,335.37 
					328.03,339.03 325.04,340.76 				"/>
				<polygon class="st24" points="325.04,340.76 328.03,339.03 330.15,335.37 330.15,331.91 328.53,330.97 326.18,332.32 
					325.17,333.32 323.42,336.36 323.42,339.82 				"/>
				<polygon class="st5" points="325.57,334.21 326.13,333.88 326.54,333.18 326.54,332.53 326.28,332.38 326.28,333.04 
					325.88,333.73 325.32,334.06 				"/>
				<polygon class="st40" points="325.32,334.06 325.88,333.73 326.28,333.04 326.28,332.38 326.18,332.32 325.53,332.7 
					325.17,333.32 325.17,333.97 				"/>
				<polygon class="st5" points="325.57,339.93 326.14,339.6 326.54,338.91 326.54,338.26 326.28,338.11 326.28,338.77 
					325.88,339.46 325.32,339.78 				"/>
				<polygon class="st40" points="325.32,339.78 325.88,339.46 326.28,338.77 326.28,338.11 326.13,338.02 325.57,338.35 
					325.17,339.04 325.17,339.7 				"/>
				<polygon class="st5" points="324.39,339.08 324.23,339 324.23,338.74 324.4,338.48 324.61,338.35 324.76,338.44 324.76,338.69 
					324.61,338.96 				"/>
				<polygon class="st5" points="329.12,334.54 328.97,334.44 328.97,334.19 329.12,333.92 329.34,333.8 329.49,333.89 
					329.5,334.14 329.34,334.41 				"/>
				<polygon class="st5" points="327.16,338.33 327,338.25 327,338 327.15,337.73 327.38,337.6 327.53,337.69 327.53,337.94 
					327.38,338.21 				"/>
				<polygon class="st5" points="327.15,333 327,332.91 327.01,332.66 327.16,332.39 327.38,332.26 327.53,332.35 327.53,332.6 
					327.38,332.87 				"/>
				<polygon class="st5" points="324.39,335.44 324.24,335.35 324.24,335.09 324.39,334.83 324.61,334.7 324.76,334.79 
					324.76,335.04 324.61,335.31 				"/>
				<polygon class="st5" points="323.8,338.09 324.36,337.77 324.76,337.07 324.76,336.42 324.51,336.27 324.5,336.92 
					324.11,337.62 323.54,337.94 				"/>
				<polygon class="st40" points="323.54,337.94 324.11,337.62 324.5,336.92 324.51,336.27 324.37,336.19 323.8,336.51 
					323.39,337.21 323.39,337.86 				"/>
				<polygon class="st5" points="328.26,333.81 328.83,333.49 329.23,332.79 329.24,332.14 328.98,331.99 328.98,332.64 
					328.58,333.34 328.01,333.67 				"/>
				<polygon class="st40" points="328.01,333.67 328.58,333.34 328.98,332.64 328.98,331.99 328.98,331.99 328.83,331.91 
					328.26,332.23 327.87,332.93 327.87,333.58 				"/>
				<polygon class="st5" points="328.27,337.21 328.83,336.89 329.23,336.19 329.23,335.54 328.98,335.39 328.98,336.04 
					328.58,336.73 328.01,337.06 				"/>
				<polygon class="st40" points="328.01,337.06 328.58,336.73 328.98,336.04 328.98,335.39 328.83,335.31 328.27,335.63 
					327.87,336.33 327.86,336.98 				"/>
				<g>
					<polygon class="st62" points="326.04,337.05 325.54,336.77 325.54,335.82 326.13,334.81 326.95,334.34 327.44,334.62 
						327.53,335.62 326.96,336.63 					"/>
					<polygon class="st5" points="326.62,337.39 326.04,337.05 326.04,336.1 326.62,335.09 327.44,334.62 328.02,334.95 
						328.02,335.9 327.45,336.91 					"/>
				</g>
			</g>
			<polygon class="st15" points="274.02,350.11 242.91,332.15 253.55,321.87 286.31,339.66 			"/>
			<g>
				<polygon class="st5" points="247.51,337.94 242.91,339 246.57,345.86 265.76,358.23 267.2,353.02 267.48,346.79 				"/>
				<polygon class="st41" points="248.68,346.43 248.68,342.75 249.46,339.8 248.69,339.36 247.92,342.3 247.92,345.99 				"/>
				<polygon class="st41" points="250.92,347.73 250.92,344.04 251.7,341.09 250.93,340.65 250.16,343.6 250.16,347.28 				"/>
				<polygon class="st41" points="253.16,349.02 253.16,345.33 253.94,342.38 253.17,341.94 252.4,344.89 252.4,348.58 				"/>
				<polygon class="st41" points="255.4,350.31 255.4,346.63 256.18,343.68 255.41,343.24 254.63,346.18 254.63,349.87 				"/>
				<polygon class="st41" points="257.64,351.61 257.64,347.92 258.42,344.97 257.65,344.53 256.88,347.48 256.88,351.16 				"/>
				<polygon class="st41" points="259.88,352.9 259.88,349.21 260.66,346.26 259.89,345.82 259.11,348.77 259.11,352.46 				"/>
				<polygon class="st41" points="262.12,354.19 262.12,350.51 262.9,347.56 262.13,347.12 261.36,350.06 261.36,353.75 				"/>
				<polygon class="st41" points="264.36,355.49 264.36,351.8 265.14,348.85 264.37,348.41 263.6,351.36 263.6,355.04 				"/>
			</g>
			<g>
				<polygon class="st63" points="246.57,345.86 240.61,342.41 240.61,339.58 246.57,343.02 				"/>
				<polygon class="st24" points="246.57,343.02 240.61,339.58 240.61,338.08 246.57,341.53 				"/>
				<polygon class="st12" points="246.57,341.53 240.61,338.08 241.55,334.5 247.51,337.94 				"/>
			</g>
			
				<rect x="256.43" y="324.34" transform="matrix(0.5 -0.866 0.866 0.5 -167.553 394.3836)" class="st13" width="2.71" height="35.92"/>
			<polygon class="st13" points="284.66,339.83 253.55,321.87 264.07,305.79 290.78,311.58 296.92,326.27 			"/>
			<polygon class="st13" points="307.64,314.5 290.17,308.85 276.63,296.59 276.63,289.18 307.64,307.09 			"/>
			<polygon class="st15" points="276.53,296.53 267.75,302.08 264.07,305.79 295.18,323.76 298.98,324.61 307.64,314.5 			"/>
			<polygon class="st15" points="307.74,307.15 317.33,310.69 344.52,285.92 313.41,267.96 276.63,289.18 			"/>
			<polygon class="st14" points="344.52,285.92 307.64,307.09 307.64,314.5 298.86,320.04 295.18,323.76 284.66,339.83 
				274.02,350.11 272.66,352.46 274.28,351.51 274.83,351.81 274.82,358.58 278.01,356.74 278.01,357.45 280.7,352.78 
				286.98,349.08 290.69,350.96 290.69,356.29 291.92,355.98 319.97,339.78 319.97,334.89 324.11,327.72 330.15,324.11 334.1,326.3 
				334.1,331.62 335.13,331.03 342.78,325.27 344.52,320.92 			"/>
			<g>
				<polygon class="st2" points="343.94,308.33 308.61,328.73 308.61,323.35 343.94,302.96 				"/>
				<polygon class="st2" points="343.94,301.53 308.61,321.92 308.61,320.6 343.94,300.21 				"/>
				<g>
					<path class="st2" d="M313.84,311.37l0.94-0.54c1.2-0.69,1.89-0.46,1.89,0.85c0,1.95-0.98,3.57-2.35,4.36l-1.34,0.77
						L313.84,311.37z M314.3,315.22c0.82-0.47,1.45-1.5,1.45-2.94c0-0.82-0.39-0.95-0.99-0.6l-0.17,0.1l-0.56,3.6L314.3,315.22z"/>
					<path class="st2" d="M317.89,309.04l2.53-1.46l-0.14,0.96l-1.65,0.95l-0.18,1.18l1.4-0.81l-0.14,0.96l-1.4,0.81l-0.22,1.38
						l1.7-0.98l-0.14,0.95l-2.61,1.51L317.89,309.04z"/>
					<path class="st2" d="M321.35,307.04l0.9-0.52l-0.71,4.48l1.62-0.94l-0.14,0.96l-2.53,1.46L321.35,307.04z"/>
					<path class="st2" d="M324.64,305.14l0.9-0.52l-0.85,5.44l-0.91,0.52L324.64,305.14z"/>
					<path class="st2" d="M326.04,304.33l0.94-0.54l0.11,2.37c0.02,0.51,0.04,1.03,0.05,1.56l0.03-0.01c0.2-0.65,0.39-1.29,0.6-1.93
						l0.95-2.98l0.99-0.57l-2.21,6.22l-1.09,0.63L326.04,304.33z"/>
					<path class="st2" d="M330.21,301.92l2.54-1.46l-0.14,0.96l-1.65,0.95l-0.18,1.18l1.4-0.81l-0.14,0.96l-1.4,0.81l-0.22,1.38
						l1.7-0.98l-0.14,0.96l-2.61,1.5L330.21,301.92z"/>
					<path class="st2" d="M333.67,299.92l1.34-0.77c0.84-0.49,1.46-0.5,1.46,0.42c0,0.93-0.46,1.74-1.09,2.35l0.66,1.57l-0.95,0.55
						l-0.55-1.49l-0.53,0.3l-0.31,1.99l-0.91,0.52L333.67,299.92z M334.62,301.68c0.64-0.37,0.96-0.91,0.96-1.45
						c0-0.42-0.26-0.44-0.71-0.18l-0.45,0.26l-0.25,1.62L334.62,301.68z"/>
					<path class="st2" d="M337.62,300.8l-0.68-2.76l0.93-0.54l0.18,1.08c0.06,0.34,0.11,0.64,0.17,0.99l0.03-0.01
						c0.18-0.49,0.33-0.91,0.52-1.4l0.6-1.52l0.96-0.56l-1.81,4.2l-0.31,1.97l-0.89,0.52L337.62,300.8z"/>
				</g>
			</g>
			<polygon class="st15" points="329.96,323.57 323.62,327.23 319.3,334.71 319.3,340.19 319.97,339.78 319.97,334.89 
				324.11,327.72 329.96,324.34 334.1,326.73 334.1,331.62 334.77,331.24 334.77,326.34 			"/>
			<g>
				<polygon class="st43" points="345.7,321.91 343.38,322.72 342.39,322.14 344.52,320.92 344.52,319.27 346.93,320.67 				"/>
				<polygon class="st41" points="344.83,322.97 342.61,324.22 341.62,323.65 342.39,322.14 343.38,322.72 				"/>
				<polygon class="st44" points="342.9,325.14 342.61,326.81 341.62,326.24 341.62,323.65 342.61,324.22 				"/>
				<polygon class="st40" points="346.93,320.67 343.38,322.72 342.61,324.22 342.61,326.81 346.6,324.51 346.93,323.49 				"/>
			</g>
			<path class="st64" d="M308.03,345.89l-15.82,9.13v-5.08l-2.27-1.28v-14.95l5.73-9.6l3.31-3.32l9.05-5.7V345.89z M292.4,354.69
				l15.44-8.91v-30.33l-8.84,5.56l-3.25,3.27l-5.62,9.43v14.75l2.27,1.28V354.69z"/>
			<g>
				<g>
					<polygon class="st13" points="271.1,367.03 238.53,348.23 238.53,345.52 271.1,364.32 272.2,365.36 					"/>
					<polygon class="st14" points="277.32,360.75 274.02,361.97 271.1,364.32 271.1,367.03 272.65,367.42 277.32,364.72 					"/>
				</g>
				<g>
					<polygon class="st43" points="275.54,359.74 270.63,361.88 238.06,343.08 240.61,341.61 240.61,342.41 271.72,360.38 
						278.01,356.74 278.77,357.18 					"/>
					<polygon class="st41" points="270.63,364.59 238.06,345.79 238.06,343.08 270.63,361.88 271.72,362.72 					"/>
					<polygon class="st40" points="277.32,360.38 278.77,357.88 278.77,357.18 270.63,361.88 270.63,364.59 277.32,360.73 					"/>
				</g>
			</g>
			<g>
				<polygon class="st63" points="271.72,360.38 265.76,356.93 265.76,354.1 271.72,357.54 272.41,358.4 				"/>
				<polygon class="st24" points="271.72,357.54 265.76,354.1 265.76,352.6 271.72,356.05 272.2,356.59 				"/>
				<polygon class="st12" points="271.72,356.05 265.76,352.6 266.7,349.01 272.66,352.46 272.82,354.73 				"/>
				<polygon class="st65" points="271.72,357.54 274.82,355.75 274.82,358.58 271.72,360.38 				"/>
				<polygon class="st5" points="274.83,354.25 271.72,356.05 271.72,357.54 274.83,355.75 				"/>
				<polygon class="st6" points="274.83,351.81 274.28,351.51 272.66,352.46 271.72,356.05 274.83,354.25 				"/>
			</g>
			<g>
				<polygon class="st40" points="305.51,317.79 299.27,321.39 295.98,324.8 287.9,338.21 287.9,339.3 305.42,329.19 305.9,328.18 
					305.9,318.18 				"/>
				<polygon class="st44" points="305.46,318.21 305.27,318.32 305.27,327.94 304.86,328.78 291.64,336.41 291.64,336.75 
					305.16,328.95 305.56,328.11 305.56,318.32 				"/>
				<polygon class="st31" points="299.48,321.66 296.25,325.01 291.64,332.65 291.64,336.41 304.86,328.78 305.27,327.94 
					305.27,318.32 				"/>
			</g>
			<g>
				<polygon class="st43" points="305.41,331.45 305.06,332.05 305.06,334.86 305.41,335.07 306.12,334.65 306.48,334.04 
					306.48,331.23 306.12,331.03 				"/>
				<polygon class="st40" points="304.85,331.93 305.06,332.05 305.06,334.86 304.85,334.74 				"/>
				<polygon class="st44" points="305.2,331.32 305.41,331.45 305.06,332.05 304.85,331.93 				"/>
				<polygon class="st41" points="305.91,330.9 306.12,331.03 305.41,331.45 305.2,331.32 				"/>
			</g>
			<g>
				<polygon class="st40" points="284.51,338.95 254.55,321.66 264.31,306.76 294.26,324.05 				"/>
				<polygon class="st31" points="284.57,338.24 284.4,338.5 255.03,321.54 264.41,307.21 264.56,307.29 255.35,321.36 				"/>
				<polygon class="st66" points="293.78,324.17 284.57,338.24 255.35,321.36 264.56,307.29 265.68,307.94 268.12,311.82 
					273.01,312.17 				"/>
				<polygon class="st67" points="265.68,307.94 261.33,315.15 261.33,318.91 273.01,312.17 				"/>
			</g>
			<g>
				<g>
					<polygon class="st44" points="291.38,336.99 290.63,336.57 290.63,336.18 291.49,336.55 					"/>
					<polygon class="st41" points="291.38,336.61 290.63,336.18 290.87,335.77 291.95,336.01 					"/>
					<polygon class="st43" points="291.61,336.2 290.87,335.77 291.21,335.58 291.95,336.01 					"/>
					<polygon class="st31" points="292.18,336.14 291.95,336.01 291.61,336.2 291.38,336.61 291.38,336.99 291.61,337.13 
						291.95,336.94 292.18,336.53 					"/>
				</g>
				<g>
					<polygon class="st40" points="291.57,334.61 293.08,333.74 296.09,335.36 296.92,336.79 296.92,339.56 296.09,340.05 
						292.4,338.83 291.57,337.38 					"/>
					<polygon class="st41" points="291.29,334.78 292.12,334.29 295.81,335.51 296.64,336.95 296.64,339.73 295.81,340.21 
						292.12,338.99 291.29,337.55 					"/>
				</g>
			</g>
			<g>
				<polygon class="st42" points="334.85,332.05 334.1,331.62 334.1,326.17 334.85,326.6 				"/>
				<polygon class="st14" points="330.71,324 324.37,327.66 320.05,335.14 320.05,340.59 320.72,340.18 320.72,335.32 
					324.86,328.15 330.71,324.77 334.85,327.16 334.85,332.05 335.52,331.67 335.52,326.77 				"/>
				<polygon class="st15" points="324.37,327.66 323.62,327.23 329.96,323.57 330.71,324 				"/>
				
					<rect x="317.52" y="330.75" transform="matrix(0.4986 -0.8668 0.8668 0.4986 -125.7154 445.0197)" class="st13" width="8.64" height="0.86"/>
				<polygon class="st42" points="320.05,340.59 319.3,340.16 319.3,334.71 320.05,335.14 				"/>
			</g>
			<g>
				<polygon class="st13" points="291.44,356.72 290.69,356.29 290.69,350.83 291.44,351.26 				"/>
				<polygon class="st14" points="287.3,348.66 280.96,352.32 277.85,357.71 279.03,357.03 281.45,352.81 287.3,349.43 
					291.44,351.82 291.44,356.72 292.11,356.33 292.11,351.44 				"/>
				<polygon class="st15" points="280.96,352.32 280.21,351.89 286.55,348.23 287.3,348.66 				"/>
				<polygon class="st42" points="277.09,357.27 280.21,351.89 280.96,352.32 277.85,357.71 				"/>
			</g>
		</g>
		<g>
			<polygon class="st12" points="269.27,70.57 261.81,66.26 268.26,62.53 275.72,66.84 			"/>
			<polygon class="st7" points="269.27,66.27 269.27,70.57 261.81,66.26 256.54,69.31 256.54,77.92 261.81,87.05 294.73,106.06 
				300,103.01 300,94.4 294.73,85.27 287.27,80.96 287.27,76.65 282,67.54 274.54,63.23 			"/>
			<polygon class="st12" points="282,67.54 274.54,63.23 281,59.5 288.45,63.8 			"/>
			<polygon class="st12" points="294.73,85.27 287.27,80.96 293.73,77.24 301.18,81.54 			"/>
			<polygon class="st6" points="287.27,76.65 282,67.54 288.45,63.8 293.73,72.93 			"/>
			
				<rect x="296.87" y="82.7" transform="matrix(0.8662 -0.4997 0.4997 0.8662 -3.7362 161.9893)" class="st6" width="7.45" height="10.54"/>
			<polygon class="st29" points="293.73,77.23 287.27,80.96 287.27,76.65 293.73,72.93 			"/>
			<polygon class="st29" points="306.45,99.29 300,103.01 300,94.4 306.45,90.67 			"/>
		</g>
		<g>
			<polygon class="st12" points="315.86,53.86 311.29,51.22 315.25,48.93 319.82,51.58 			"/>
			<polygon class="st7" points="315.87,51.23 315.87,53.87 311.29,51.22 308.05,53.09 308.05,58.38 311.29,63.98 331.49,75.65 
				334.73,73.78 334.73,68.49 331.49,62.89 326.91,60.24 326.91,57.6 323.68,52 319.1,49.36 			"/>
			<polygon class="st12" points="323.68,52 319.1,49.36 323.06,47.07 327.64,49.71 			"/>
			<polygon class="st12" points="331.49,62.89 326.91,60.24 330.88,57.96 335.45,60.6 			"/>
			<polygon class="st6" points="326.91,57.6 323.68,52 327.64,49.71 330.88,55.31 			"/>
			
				<rect x="332.8" y="61.31" transform="matrix(0.8662 -0.4998 0.4998 0.8662 12.5899 176.1035)" class="st6" width="4.57" height="6.47"/>
			<polygon class="st29" points="330.88,57.95 326.91,60.24 326.91,57.6 330.88,55.31 			"/>
			<polygon class="st29" points="338.69,71.49 334.73,73.78 334.73,68.49 338.69,66.2 			"/>
		</g>
		<g>
			<polygon class="st12" points="58.78,60.31 54.58,57.89 58.21,55.79 62.41,58.21 			"/>
			<polygon class="st7" points="58.78,57.89 58.78,60.31 54.58,57.89 51.62,59.6 51.62,64.44 54.58,69.57 73.09,80.26 76.05,78.54 
				76.05,73.7 73.09,68.57 68.9,66.15 68.9,63.73 65.93,58.6 61.74,56.18 			"/>
			<polygon class="st12" points="65.93,58.6 61.74,56.18 65.37,54.08 69.56,56.5 			"/>
			<polygon class="st12" points="73.09,68.57 68.9,66.15 72.53,64.06 76.72,66.47 			"/>
			
				<rect x="67.13" y="57.15" transform="matrix(0.8655 -0.5009 0.5009 0.8655 -20.8011 42.766)" class="st6" width="4.19" height="5.92"/>
			
				<rect x="74.29" y="67.13" transform="matrix(0.8662 -0.4998 0.4998 0.8662 -24.805 47.5582)" class="st6" width="4.19" height="5.93"/>
			<polygon class="st29" points="72.53,64.05 68.9,66.15 68.9,63.73 72.53,61.63 			"/>
			<polygon class="st29" points="79.68,76.45 76.05,78.54 76.05,73.7 79.68,71.61 			"/>
		</g>
		<g>
			<polygon class="st12" points="213.14,31.3 207.13,27.82 212.33,24.82 218.34,28.29 			"/>
			<polygon class="st7" points="213.15,27.83 213.15,31.3 207.13,27.82 202.89,30.28 202.89,37.22 207.13,44.58 233.67,59.89 
				237.91,57.44 237.91,50.5 233.67,43.14 227.65,39.67 227.65,36.2 223.4,28.85 217.39,25.38 			"/>
			<polygon class="st12" points="223.4,28.85 217.39,25.38 222.59,22.37 228.61,25.84 			"/>
			<polygon class="st12" points="233.67,43.14 227.65,39.67 232.86,36.67 238.86,40.14 			"/>
			<polygon class="st6" points="227.65,36.2 223.4,28.85 228.61,25.84 232.85,33.19 			"/>
			
				<rect x="235.39" y="41.07" transform="matrix(0.8662 -0.4997 0.4997 0.8662 9.2519 125.1874)" class="st6" width="6" height="8.5"/>
			<polygon class="st29" points="232.85,36.66 227.65,39.67 227.65,36.2 232.85,33.19 			"/>
			<polygon class="st29" points="243.11,54.44 237.91,57.44 237.91,50.5 243.11,47.5 			"/>
		</g>
		<g>
			<polygon class="st12" points="354.06,29.31 348.54,26.12 353.31,23.36 358.83,26.55 			"/>
			<polygon class="st7" points="354.06,26.13 354.06,29.31 348.54,26.12 344.64,28.37 344.64,34.75 348.54,41.51 372.91,55.57 
				376.8,53.31 376.8,46.94 372.91,40.19 367.38,37 367.38,33.81 363.48,27.06 357.96,23.87 			"/>
			<polygon class="st12" points="363.48,27.06 357.96,23.87 362.74,21.11 368.26,24.29 			"/>
			<polygon class="st12" points="372.91,40.19 367.38,37 372.16,34.24 377.68,37.43 			"/>
			<polygon class="st6" points="367.38,33.81 363.48,27.06 368.26,24.29 372.16,31.05 			"/>
			
				<rect x="374.48" y="38.28" transform="matrix(0.8662 -0.4997 0.4997 0.8662 29.4012 194.165)" class="st6" width="5.51" height="7.8"/>
			<polygon class="st29" points="372.16,34.24 367.38,37 367.38,33.81 372.16,31.05 			"/>
			<polygon class="st29" points="381.58,50.56 376.8,53.31 376.8,46.94 381.58,44.19 			"/>
		</g>
		<g>
			<polygon class="st12" points="97.61,42.99 92.11,39.81 96.87,37.06 102.37,40.24 			"/>
			<polygon class="st7" points="97.61,39.82 97.61,43 92.11,39.81 88.22,42.06 88.22,48.42 92.11,55.16 116.41,69.18 120.29,66.93 
				120.29,60.58 116.41,53.84 110.9,50.66 110.9,47.48 107.01,40.76 101.5,37.58 			"/>
			<polygon class="st12" points="107.01,40.76 101.5,37.58 106.27,34.82 111.77,37.99 			"/>
			<polygon class="st12" points="116.41,53.84 110.9,50.66 115.67,47.91 121.16,51.09 			"/>
			<polygon class="st6" points="110.9,47.48 107.01,40.76 111.77,37.99 115.66,44.73 			"/>
			
				<rect x="117.98" y="51.95" transform="matrix(0.8662 -0.4997 0.4997 0.8662 -11.7472 67.7976)" class="st6" width="5.5" height="7.78"/>
			<polygon class="st29" points="115.66,47.91 110.9,50.66 110.9,47.48 115.66,44.73 			"/>
			<polygon class="st29" points="125.06,64.19 120.29,66.93 120.29,60.58 125.06,57.83 			"/>
		</g>
	</g>
</g>
</svg>
