<svg xmlns="http://www.w3.org/2000/svg" xmlns:xlink="http://www.w3.org/1999/xlink" viewBox="0 0 263.39 201.78"><defs><style>.cls-1{isolation:isolate;}.cls-2{fill:#e1eafb;}.cls-3{fill:#becdd4;}.cls-18,.cls-20,.cls-21,.cls-28,.cls-3,.cls-44{mix-blend-mode:multiply;}.cls-4{fill:#ffc536;}.cls-5{fill:#dd9a36;}.cls-6{fill:#ffe25b;}.cls-7{fill:#c99a6b;}.cls-8{fill:#ae835b;}.cls-9{fill:#e8b687;}.cls-10{fill:#9c754e;}.cls-11{fill:#54493e;mix-blend-mode:screen;}.cls-12{fill:#87623f;}.cls-13{fill:#d1a986;}.cls-14{fill:#5e2638;}.cls-15{fill:#febfbf;}.cls-16{fill:#ffdc6e;}.cls-17{fill:#7282b5;}.cls-18{fill:#e8d0c8;}.cls-19{fill:#fdd249;}.cls-20{fill:#ffeecf;}.cls-21{fill:#dedede;}.cls-22{fill:#ffadb7;}.cls-23{fill:url(#Áåçûìÿííûé_ãðàäèåíò_46);}.cls-24{fill:#754554;}.cls-25{fill:url(#Áåçûìÿííûé_ãðàäèåíò_43);}.cls-26{fill:url(#Áåçûìÿííûé_ãðàäèåíò_46-2);}.cls-27{fill:#fecb4c;}.cls-28{fill:#fcf5e8;}.cls-29{fill:#725e6d;}.cls-30{fill:#5c6467;}.cls-31{fill:#ebe7e3;}.cls-32{fill:#d9d3cc;}.cls-33{fill:#ded8d1;}.cls-34{fill:#c5c9d8;}.cls-35{fill:#dadae8;}.cls-36{fill:#e7e7f0;}.cls-37{fill:#f4f5fa;}.cls-38{fill:#57565e;}.cls-39{fill:#e5e8f5;}.cls-40{fill:url(#Áåçûìÿííûé_ãðàäèåíò_1914);}.cls-41{fill:#d3d3e3;}.cls-42{fill:#eff0f5;}.cls-43{fill:#fa9698;}.cls-44{fill:#ff8e8c;}.cls-45{fill:#de4037;}.cls-46{fill:#f5b53d;}.cls-47{fill:#907a7d;}.cls-48{fill:#a0978f;}.cls-49{fill:#fcfbfa;}.cls-50{fill:#f1d6bc;}.cls-51{fill:#e6f1ff;}.cls-52{fill:#c98398;}.cls-53{fill:#8a5757;}.cls-54{fill:#504f60;}.cls-55{fill:#975f5f;}.cls-56{fill:#dde8f6;}.cls-57{fill:#fec7c6;}.cls-58{fill:url(#Áåçûìÿííûé_ãðàäèåíò_43-2);}.cls-59{fill:#3b4549;}.cls-60{fill:#fff98b;}</style><linearGradient id="Áåçûìÿííûé_ãðàäèåíò_46" x1="330.4" y1="166.63" x2="334.17" y2="171.4" gradientUnits="userSpaceOnUse"><stop offset="0.12" stop-color="#fca4b5"/><stop offset="0.99" stop-color="#ffadb7"/></linearGradient><linearGradient id="Áåçûìÿííûé_ãðàäèåíò_43" x1="2434.89" y1="162.63" x2="2438.72" y2="160.9" gradientTransform="matrix(-1, 0, 0, 1, 2764.26, 0)" gradientUnits="userSpaceOnUse"><stop offset="0.12" stop-color="#feb9b8"/><stop offset="1" stop-color="#ffdede"/></linearGradient><linearGradient id="Áåçûìÿííûé_ãðàäèåíò_46-2" x1="2436.81" y1="161.26" x2="2435.73" y2="162.61" gradientTransform="matrix(-1, 0, 0, 1, 2764.26, 0)" xlink:href="#Áåçûìÿííûé_ãðàäèåíò_46"/><linearGradient id="Áåçûìÿííûé_ãðàäèåíò_1914" x1="353.88" y1="200.58" x2="372.2" y2="168.85" gradientUnits="userSpaceOnUse"><stop offset="0.01" stop-color="#a0a6c0"/><stop offset="0.4" stop-color="#a0a6c0"/><stop offset="0.4" stop-color="#a2a8c2"/><stop offset="0.41" stop-color="#b8bcd0"/><stop offset="0.41" stop-color="#c5c8d9"/><stop offset="0.42" stop-color="#c9ccdc"/><stop offset="0.43" stop-color="#d7d9e6"/><stop offset="0.43" stop-color="#e7e7f0"/></linearGradient><linearGradient id="Áåçûìÿííûé_ãðàäèåíò_43-2" x1="5077.29" y1="137.78" x2="5078.76" y2="137.78" gradientTransform="matrix(-1, 0.02, 0.02, 1, 5462.14, -55.7)" xlink:href="#Áåçûìÿííûé_ãðàäèåíò_43"/></defs><g class="cls-1"><g id="Layer_1" data-name="Layer 1"><ellipse class="cls-2" cx="316.39" cy="223.45" rx="76.03" ry="131.69" transform="translate(-93.47 440.92) rotate(-89.69)"/><polygon class="cls-3" points="67.77 129.56 43.61 115.61 111.22 76.54 135.39 90.49 67.77 129.56"/><polygon class="cls-4" points="113.86 6.94 113.86 37.33 112.02 38.4 112.02 8.01 113.86 6.94"/><polygon class="cls-5" points="112.02 8.01 112.02 38.4 110.52 37.54 110.52 7.14 112.02 8.01"/><polygon class="cls-6" points="112.02 8.01 110.52 7.14 112.37 6.08 113.87 6.94 112.02 8.01"/><polygon class="cls-4" points="131.53 17.14 131.53 47.54 129.68 48.6 129.68 18.21 131.53 17.14"/><polygon class="cls-5" points="129.68 18.21 129.68 48.6 128.19 47.74 128.19 17.35 129.68 18.21"/><polygon class="cls-6" points="129.69 18.21 128.19 17.35 130.03 16.28 131.53 17.14 129.69 18.21"/><polygon class="cls-4" points="131.53 15.29 131.53 17.14 129.69 18.21 129.69 16.36 131.53 15.29"/><polygon class="cls-5" points="129.69 16.36 129.69 18.21 110.52 7.14 110.52 5.29 129.69 16.36"/><polygon class="cls-6" points="129.69 16.36 110.52 5.3 112.37 4.23 131.54 15.29 129.69 16.36"/><polygon class="cls-4" points="113.86 71.43 113.86 81.19 112.02 82.25 112.02 72.5 113.86 71.43"/><polygon class="cls-5" points="112.02 72.5 112.02 82.25 110.52 81.39 110.52 71.63 112.02 72.5"/><polygon class="cls-6" points="112.02 72.5 110.52 71.64 112.37 70.57 113.87 71.43 112.02 72.5"/><polygon class="cls-4" points="131.53 81.64 131.53 91.39 129.68 92.46 129.68 82.7 131.53 81.64"/><polygon class="cls-5" points="129.68 82.7 129.68 92.46 128.19 91.59 128.19 81.84 129.68 82.7"/><polygon class="cls-6" points="129.69 82.7 128.19 81.84 130.03 80.77 131.53 81.63 129.69 82.7"/><polygon class="cls-4" points="131.53 79.78 131.53 81.63 129.69 82.7 129.69 80.85 131.53 79.78"/><polygon class="cls-5" points="129.69 80.85 129.69 82.7 110.52 71.64 110.52 69.78 129.69 80.85"/><polygon class="cls-6" points="129.69 80.85 110.52 69.79 112.37 68.72 131.54 79.78 129.69 80.85"/><polygon class="cls-4" points="129.69 80.85 129.69 82.7 68.87 117.84 68.87 116 129.69 80.85"/><polygon class="cls-5" points="68.87 116 68.87 117.84 49.71 106.78 49.71 104.93 68.87 116"/><polygon class="cls-6" points="68.88 116 49.71 104.93 110.52 69.78 129.69 80.85 68.88 116"/><polygon class="cls-4" points="51.2 107.64 51.2 117.4 49.35 118.47 49.35 108.71 51.2 107.64"/><polygon class="cls-5" points="49.35 108.71 49.35 118.47 47.86 117.6 47.86 107.85 49.35 108.71"/><polygon class="cls-6" points="49.36 108.71 47.86 107.85 49.7 106.78 51.2 107.64 49.36 108.71"/><polygon class="cls-4" points="68.87 117.85 68.87 127.6 67.02 128.67 67.02 118.92 68.87 117.85"/><polygon class="cls-5" points="67.02 118.92 67.02 128.67 65.52 127.81 65.52 118.05 67.02 118.92"/><polygon class="cls-6" points="67.02 118.92 65.52 118.05 67.37 116.98 68.87 117.85 67.02 118.92"/><polygon class="cls-4" points="68.87 116 68.87 117.85 67.02 118.91 67.02 117.06 68.87 116"/><polygon class="cls-5" points="67.02 117.06 67.02 118.91 47.86 107.85 47.86 106 67.02 117.06"/><polygon class="cls-6" points="67.03 117.06 47.86 106 49.7 104.93 68.87 116 67.03 117.06"/><polygon class="cls-4" points="113.86 39.19 113.86 69.58 112.02 70.65 112.02 40.25 113.86 39.19"/><polygon class="cls-5" points="112.02 40.25 112.02 70.65 110.52 69.78 110.52 39.39 112.02 40.25"/><polygon class="cls-6" points="112.02 40.26 110.52 39.39 112.37 38.32 113.87 39.19 112.02 40.26"/><polygon class="cls-4" points="131.53 49.39 131.53 79.78 129.68 80.85 129.68 50.46 131.53 49.39"/><polygon class="cls-5" points="129.68 50.46 129.68 80.85 128.19 79.98 128.19 49.59 129.68 50.46"/><polygon class="cls-6" points="129.69 50.46 128.19 49.59 130.03 48.52 131.53 49.39 129.69 50.46"/><polygon class="cls-4" points="131.53 47.54 131.53 49.39 129.69 50.45 129.69 48.6 131.53 47.54"/><polygon class="cls-5" points="129.69 48.6 129.69 50.45 110.52 39.39 110.52 37.54 129.69 48.6"/><polygon class="cls-6" points="129.69 48.61 110.52 37.54 112.37 36.47 131.54 47.54 129.69 48.61"/><polygon class="cls-3" points="109.82 86.98 98.2 80.27 109.82 73.57 113.67 86.98 109.82 86.98"/><polygon class="cls-7" points="113.67 86.98 125.29 80.27 125.29 71.94 113.67 78.65 113.67 86.98"/><polygon class="cls-8" points="113.67 86.98 102.06 80.27 102.06 71.94 113.67 78.65 113.67 86.98"/><polygon class="cls-9" points="113.67 78.65 102.06 71.94 113.67 65.23 125.29 71.94 113.67 78.65"/><polygon class="cls-10" points="108.69 81.03 106.82 79.96 106.82 74.69 108.69 75.77 108.69 81.03"/><polygon class="cls-11" points="108.69 75.77 120.3 69.06 118.44 67.98 106.82 74.69 108.69 75.77"/><polygon class="cls-12" points="102.06 71.94 113.67 78.65 107.41 75.3 102.06 71.94"/><polygon class="cls-13" points="107.82 75.27 119.44 68.56 119.31 68.49 107.69 75.2 107.82 75.27"/><polygon class="cls-3" points="94.7 95.71 83.08 89 94.7 82.29 98.56 95.71 94.7 95.71"/><polygon class="cls-7" points="98.56 95.71 110.18 89 110.18 80.67 98.56 87.38 98.56 95.71"/><polygon class="cls-8" points="98.56 95.71 86.94 89 86.94 80.67 98.56 87.38 98.56 95.71"/><polygon class="cls-9" points="98.56 87.38 86.94 80.67 98.56 73.96 110.18 80.67 98.56 87.38"/><polygon class="cls-10" points="93.57 89.76 91.7 88.69 91.7 83.42 93.57 84.5 93.57 89.76"/><polygon class="cls-11" points="93.57 84.5 105.19 77.79 103.32 76.71 91.7 83.42 93.57 84.5"/><polygon class="cls-12" points="86.94 80.67 98.56 87.38 92.29 84.02 86.94 80.67"/><polygon class="cls-13" points="92.7 84 104.32 77.29 104.2 77.22 92.58 83.92 92.7 84"/><polygon class="cls-3" points="79.59 104.44 67.97 97.73 79.59 91.02 83.44 104.44 79.59 104.44"/><polygon class="cls-7" points="83.44 104.44 95.06 97.73 95.06 89.4 83.44 96.1 83.44 104.44"/><polygon class="cls-8" points="83.44 104.44 71.83 97.73 71.83 89.4 83.44 96.1 83.44 104.44"/><polygon class="cls-9" points="83.44 96.1 71.83 89.4 83.44 82.69 95.06 89.4 83.44 96.1"/><polygon class="cls-10" points="78.45 98.49 76.59 97.41 76.59 92.14 78.45 93.22 78.45 98.49"/><polygon class="cls-11" points="78.45 93.22 90.07 86.52 88.2 85.44 76.59 92.14 78.45 93.22"/><polygon class="cls-12" points="71.83 89.4 83.44 96.1 77.17 92.75 71.83 89.4"/><polygon class="cls-13" points="77.59 92.72 89.21 86.02 89.08 85.94 77.46 92.65 77.59 92.72"/><polygon class="cls-3" points="64.47 113.16 52.85 106.46 64.47 99.75 68.33 113.16 64.47 113.16"/><polygon class="cls-7" points="68.33 113.16 79.95 106.46 79.95 98.12 68.33 104.83 68.33 113.16"/><polygon class="cls-8" points="68.33 113.16 56.71 106.46 56.71 98.12 68.33 104.83 68.33 113.16"/><polygon class="cls-9" points="68.33 104.83 56.71 98.12 68.33 91.42 79.95 98.12 68.33 104.83"/><polygon class="cls-10" points="63.34 107.22 61.47 106.14 61.47 100.87 63.34 101.95 63.34 107.22"/><polygon class="cls-11" points="63.34 101.95 74.96 95.24 73.09 94.16 61.47 100.87 63.34 101.95"/><polygon class="cls-12" points="56.71 98.12 68.33 104.83 62.06 101.48 56.71 98.12"/><polygon class="cls-13" points="62.47 101.45 74.09 94.74 73.96 94.67 62.34 101.38 62.47 101.45"/><polygon class="cls-7" points="113.67 78.22 125.29 71.51 125.29 63.18 113.67 69.89 113.67 78.22"/><polygon class="cls-8" points="113.67 78.22 102.06 71.51 102.06 63.18 113.67 69.89 113.67 78.22"/><polygon class="cls-9" points="113.67 69.89 102.06 63.18 113.67 56.47 125.29 63.18 113.67 69.89"/><polygon class="cls-10" points="108.69 72.27 106.82 71.19 106.82 65.93 108.69 67 108.69 72.27"/><polygon class="cls-11" points="108.69 67 120.3 60.3 118.44 59.22 106.82 65.93 108.69 67"/><polygon class="cls-12" points="102.06 63.18 113.67 69.89 107.41 66.53 102.06 63.18"/><polygon class="cls-13" points="107.82 66.51 119.44 59.8 119.31 59.73 107.69 66.43 107.82 66.51"/><polygon class="cls-7" points="98.56 86.95 110.18 80.24 110.18 71.91 98.56 78.61 98.56 86.95"/><polygon class="cls-8" points="98.56 86.95 86.94 80.24 86.94 71.91 98.56 78.61 98.56 86.95"/><polygon class="cls-9" points="98.56 78.61 86.94 71.91 98.56 65.2 110.18 71.91 98.56 78.61"/><polygon class="cls-10" points="93.57 81 91.7 79.92 91.7 74.66 93.57 75.73 93.57 81"/><polygon class="cls-11" points="93.57 75.73 105.19 69.02 103.32 67.95 91.7 74.66 93.57 75.73"/><polygon class="cls-12" points="86.94 71.91 98.56 78.61 92.29 75.26 86.94 71.91"/><polygon class="cls-13" points="92.7 75.23 104.32 68.53 104.2 68.45 92.58 75.16 92.7 75.23"/><polygon class="cls-7" points="83.44 95.67 95.06 88.97 95.06 80.63 83.44 87.34 83.44 95.67"/><polygon class="cls-8" points="83.44 95.67 71.83 88.97 71.83 80.63 83.44 87.34 83.44 95.67"/><polygon class="cls-9" points="83.44 87.34 71.83 80.63 83.44 73.92 95.06 80.63 83.44 87.34"/><polygon class="cls-10" points="78.45 89.73 76.59 88.65 76.59 83.38 78.45 84.46 78.45 89.73"/><polygon class="cls-11" points="78.45 84.46 90.07 77.75 88.2 76.67 76.59 83.38 78.45 84.46"/><polygon class="cls-12" points="71.83 80.63 83.44 87.34 77.17 83.99 71.83 80.63"/><polygon class="cls-13" points="77.59 83.96 89.21 77.25 89.08 77.18 77.46 83.89 77.59 83.96"/><polygon class="cls-7" points="68.33 104.4 79.95 97.69 79.95 89.36 68.33 96.07 68.33 104.4"/><polygon class="cls-8" points="68.33 104.4 56.71 97.69 56.71 89.36 68.33 96.07 68.33 104.4"/><polygon class="cls-9" points="68.33 96.07 56.71 89.36 68.33 82.65 79.95 89.36 68.33 96.07"/><polygon class="cls-10" points="63.34 98.45 61.47 97.38 61.47 92.11 63.34 93.19 63.34 98.45"/><polygon class="cls-11" points="63.34 93.19 74.96 86.48 73.09 85.4 61.47 92.11 63.34 93.19"/><polygon class="cls-12" points="56.71 89.36 68.33 96.07 62.06 92.71 56.71 89.36"/><polygon class="cls-13" points="62.47 92.69 74.09 85.98 73.96 85.91 62.34 92.61 62.47 92.69"/><polygon class="cls-4" points="129.69 48.61 129.69 50.46 68.87 85.6 68.87 83.75 129.69 48.61"/><polygon class="cls-5" points="68.87 83.75 68.87 85.6 49.71 74.54 49.71 72.69 68.87 83.75"/><polygon class="cls-6" points="68.88 83.75 49.71 72.69 110.52 37.54 129.69 48.6 68.88 83.75"/><polygon class="cls-4" points="51.2 75.4 51.2 105.79 49.35 106.86 49.35 76.47 51.2 75.4"/><polygon class="cls-5" points="49.35 76.47 49.35 106.86 47.86 106 47.86 75.6 49.35 76.47"/><polygon class="cls-6" points="49.36 76.47 47.86 75.6 49.7 74.53 51.2 75.4 49.36 76.47"/><polygon class="cls-4" points="68.87 85.6 68.87 116 67.02 117.06 67.02 86.67 68.87 85.6"/><polygon class="cls-5" points="67.02 86.67 67.02 117.06 65.52 116.2 65.52 85.81 67.02 86.67"/><polygon class="cls-6" points="67.02 86.67 65.52 85.81 67.37 84.74 68.87 85.6 67.02 86.67"/><polygon class="cls-4" points="68.87 83.75 68.87 85.6 67.02 86.67 67.02 84.82 68.87 83.75"/><polygon class="cls-5" points="67.02 84.82 67.02 86.67 47.86 75.6 47.86 73.75 67.02 84.82"/><polygon class="cls-6" points="67.03 84.82 47.86 73.75 49.7 72.69 68.87 83.75 67.03 84.82"/><polygon class="cls-3" points="109.82 54.09 98.2 47.38 109.82 40.67 113.67 54.09 109.82 54.09"/><polygon class="cls-7" points="113.67 54.09 125.29 47.38 125.29 39.04 113.67 45.75 113.67 54.09"/><polygon class="cls-8" points="113.67 54.09 102.06 47.38 102.06 39.04 113.67 45.75 113.67 54.09"/><polygon class="cls-9" points="113.67 45.75 102.06 39.04 113.67 32.34 125.29 39.04 113.67 45.75"/><polygon class="cls-10" points="108.69 48.14 106.82 47.06 106.82 41.79 108.69 42.87 108.69 48.14"/><polygon class="cls-11" points="108.69 42.87 120.3 36.16 118.44 35.09 106.82 41.79 108.69 42.87"/><polygon class="cls-12" points="102.06 39.04 113.67 45.75 107.41 42.4 102.06 39.04"/><polygon class="cls-13" points="107.82 42.37 119.44 35.66 119.31 35.59 107.69 42.3 107.82 42.37"/><polygon class="cls-3" points="94.7 62.81 83.08 56.1 94.7 49.4 98.56 62.81 94.7 62.81"/><polygon class="cls-7" points="98.56 62.81 110.18 56.1 110.18 47.77 98.56 54.48 98.56 62.81"/><polygon class="cls-8" points="98.56 62.81 86.94 56.1 86.94 47.77 98.56 54.48 98.56 62.81"/><polygon class="cls-9" points="98.56 54.48 86.94 47.77 98.56 41.06 110.18 47.77 98.56 54.48"/><polygon class="cls-10" points="93.57 56.87 91.7 55.79 91.7 50.52 93.57 51.6 93.57 56.87"/><polygon class="cls-11" points="93.57 51.6 105.19 44.89 103.32 43.81 91.7 50.52 93.57 51.6"/><polygon class="cls-12" points="86.94 47.77 98.56 54.48 92.29 51.13 86.94 47.77"/><polygon class="cls-13" points="92.7 51.1 104.32 44.39 104.2 44.32 92.58 51.03 92.7 51.1"/><polygon class="cls-3" points="64.47 80.27 52.85 73.56 64.47 66.85 68.33 80.27 64.47 80.27"/><polygon class="cls-7" points="68.33 80.27 79.95 73.56 79.95 65.23 68.33 71.93 68.33 80.27"/><polygon class="cls-8" points="68.33 80.27 56.71 73.56 56.71 65.23 68.33 71.93 68.33 80.27"/><polygon class="cls-9" points="68.33 71.93 56.71 65.23 68.33 58.52 79.95 65.23 68.33 71.93"/><polygon class="cls-10" points="63.34 74.32 61.47 73.24 61.47 67.97 63.34 69.05 63.34 74.32"/><polygon class="cls-11" points="63.34 69.05 74.96 62.34 73.09 61.27 61.47 67.97 63.34 69.05"/><polygon class="cls-12" points="56.71 65.23 68.33 71.93 62.06 68.58 56.71 65.23"/><polygon class="cls-13" points="62.47 68.55 74.09 61.85 73.96 61.77 62.34 68.48 62.47 68.55"/><polygon class="cls-7" points="113.67 45.32 125.29 38.61 125.29 30.28 113.67 36.99 113.67 45.32"/><polygon class="cls-8" points="113.67 45.32 102.06 38.61 102.06 30.28 113.67 36.99 113.67 45.32"/><polygon class="cls-9" points="113.67 36.99 102.06 30.28 113.67 23.57 125.29 30.28 113.67 36.99"/><polygon class="cls-10" points="108.69 39.38 106.82 38.3 106.82 33.03 108.69 34.11 108.69 39.38"/><polygon class="cls-11" points="108.69 34.11 120.3 27.4 118.44 26.32 106.82 33.03 108.69 34.11"/><polygon class="cls-12" points="102.06 30.28 113.67 36.99 107.41 33.63 102.06 30.28"/><polygon class="cls-13" points="107.82 33.61 119.44 26.9 119.31 26.83 107.69 33.53 107.82 33.61"/><polygon class="cls-7" points="98.56 54.05 110.18 47.34 110.18 39.01 98.56 45.72 98.56 54.05"/><polygon class="cls-8" points="98.56 54.05 86.94 47.34 86.94 39.01 98.56 45.72 98.56 54.05"/><polygon class="cls-9" points="98.56 45.72 86.94 39.01 98.56 32.3 110.18 39.01 98.56 45.72"/><polygon class="cls-10" points="93.57 48.1 91.7 47.02 91.7 41.76 93.57 42.84 93.57 48.1"/><polygon class="cls-11" points="93.57 42.84 105.19 36.13 103.32 35.05 91.7 41.76 93.57 42.84"/><polygon class="cls-12" points="86.94 39.01 98.56 45.72 92.29 42.36 86.94 39.01"/><polygon class="cls-13" points="92.7 42.34 104.32 35.63 104.2 35.55 92.58 42.26 92.7 42.34"/><polygon class="cls-7" points="68.33 71.5 79.95 64.8 79.95 56.46 68.33 63.17 68.33 71.5"/><polygon class="cls-8" points="68.33 71.5 56.71 64.8 56.71 56.46 68.33 63.17 68.33 71.5"/><polygon class="cls-9" points="68.33 63.17 56.71 56.46 68.33 49.76 79.95 56.46 68.33 63.17"/><polygon class="cls-10" points="63.34 65.56 61.47 64.48 61.47 59.21 63.34 60.29 63.34 65.56"/><polygon class="cls-11" points="63.34 60.29 74.96 53.58 73.09 52.5 61.47 59.21 63.34 60.29"/><polygon class="cls-12" points="56.71 56.46 68.33 63.17 62.06 59.82 56.71 56.46"/><polygon class="cls-13" points="62.47 59.79 74.09 53.08 73.96 53.01 62.34 59.72 62.47 59.79"/><polygon class="cls-4" points="129.69 16.36 129.69 18.21 68.87 53.36 68.87 51.51 129.69 16.36"/><polygon class="cls-5" points="68.87 51.51 68.87 53.36 49.71 42.29 49.71 40.44 68.87 51.51"/><polygon class="cls-6" points="68.88 51.51 49.71 40.44 110.52 5.29 129.69 16.36 68.88 51.51"/><polygon class="cls-4" points="51.2 43.16 51.2 73.55 49.35 74.61 49.35 44.22 51.2 43.16"/><polygon class="cls-5" points="49.35 44.22 49.35 74.61 47.86 73.75 47.86 43.36 49.35 44.22"/><polygon class="cls-6" points="49.36 44.22 47.86 43.36 49.7 42.29 51.2 43.15 49.36 44.22"/><polygon class="cls-4" points="68.87 53.36 68.87 83.75 67.02 84.82 67.02 54.42 68.87 53.36"/><polygon class="cls-5" points="67.02 54.42 67.02 84.82 65.52 83.95 65.52 53.56 67.02 54.42"/><polygon class="cls-6" points="67.02 54.43 65.52 53.56 67.37 52.49 68.87 53.36 67.02 54.43"/><polygon class="cls-4" points="68.87 51.51 68.87 53.36 67.02 54.42 67.02 52.57 68.87 51.51"/><polygon class="cls-5" points="67.02 52.57 67.02 54.42 47.86 43.36 47.86 41.51 67.02 52.57"/><polygon class="cls-6" points="67.03 52.58 47.86 41.51 49.7 40.44 68.87 51.51 67.03 52.58"/><polygon class="cls-3" points="109.82 21.79 98.2 15.08 109.82 8.37 113.67 21.79 109.82 21.79"/><polygon class="cls-7" points="113.67 21.79 125.29 15.08 125.29 6.74 113.67 13.45 113.67 21.79"/><polygon class="cls-8" points="113.67 21.79 102.06 15.08 102.06 6.74 113.67 13.45 113.67 21.79"/><polygon class="cls-9" points="113.67 13.45 102.06 6.74 113.67 0.04 125.29 6.74 113.67 13.45"/><polygon class="cls-10" points="108.69 15.84 106.82 14.76 106.82 9.49 108.69 10.57 108.69 15.84"/><polygon class="cls-11" points="108.69 10.57 120.3 3.86 118.44 2.79 106.82 9.49 108.69 10.57"/><polygon class="cls-12" points="102.06 6.74 113.67 13.45 107.41 10.1 102.06 6.74"/><polygon class="cls-13" points="107.82 10.07 119.44 3.36 119.31 3.29 107.69 10 107.82 10.07"/><polygon class="cls-3" points="94.7 30.51 83.08 23.8 94.7 17.1 98.56 30.51 94.7 30.51"/><polygon class="cls-7" points="98.56 30.51 110.18 23.8 110.18 15.47 98.56 22.18 98.56 30.51"/><polygon class="cls-8" points="98.56 30.51 86.94 23.8 86.94 15.47 98.56 22.18 98.56 30.51"/><polygon class="cls-9" points="98.56 22.18 86.94 15.47 98.56 8.76 110.18 15.47 98.56 22.18"/><polygon class="cls-10" points="93.57 24.57 91.7 23.49 91.7 18.22 93.57 19.3 93.57 24.57"/><polygon class="cls-11" points="93.57 19.3 105.19 12.59 103.32 11.51 91.7 18.22 93.57 19.3"/><polygon class="cls-12" points="86.94 15.47 98.56 22.18 92.29 18.82 86.94 15.47"/><polygon class="cls-13" points="92.7 18.8 104.32 12.09 104.2 12.02 92.58 18.73 92.7 18.8"/><polygon class="cls-3" points="79.59 39.24 67.97 32.53 79.59 25.82 83.44 39.24 79.59 39.24"/><polygon class="cls-7" points="83.44 39.24 95.06 32.53 95.06 24.2 83.44 30.91 83.44 39.24"/><polygon class="cls-8" points="83.44 39.24 71.83 32.53 71.83 24.2 83.44 30.91 83.44 39.24"/><polygon class="cls-9" points="83.44 30.91 71.83 24.2 83.44 17.49 95.06 24.2 83.44 30.91"/><polygon class="cls-10" points="78.45 33.29 76.59 32.21 76.59 26.95 78.45 28.02 78.45 33.29"/><polygon class="cls-11" points="78.45 28.02 90.07 21.32 88.2 20.24 76.59 26.95 78.45 28.02"/><polygon class="cls-12" points="71.83 24.2 83.44 30.91 77.17 27.55 71.83 24.2"/><polygon class="cls-13" points="77.59 27.53 89.21 20.82 89.08 20.74 77.46 27.45 77.59 27.53"/><polygon class="cls-3" points="64.47 47.97 52.85 41.26 64.47 34.55 68.33 47.97 64.47 47.97"/><polygon class="cls-7" points="68.33 47.97 79.95 41.26 79.95 32.92 68.33 39.63 68.33 47.97"/><polygon class="cls-8" points="68.33 47.97 56.71 41.26 56.71 32.92 68.33 39.63 68.33 47.97"/><polygon class="cls-9" points="68.33 39.63 56.71 32.92 68.33 26.22 79.95 32.92 68.33 39.63"/><polygon class="cls-10" points="63.34 42.02 61.47 40.94 61.47 35.67 63.34 36.75 63.34 42.02"/><polygon class="cls-11" points="63.34 36.75 74.96 30.04 73.09 28.97 61.47 35.67 63.34 36.75"/><polygon class="cls-12" points="56.71 32.92 68.33 39.63 62.06 36.28 56.71 32.92"/><polygon class="cls-13" points="62.47 36.25 74.09 29.55 73.96 29.47 62.34 36.18 62.47 36.25"/><polygon class="cls-7" points="98.56 21.75 110.18 15.04 110.18 6.71 98.56 13.42 98.56 21.75"/><polygon class="cls-8" points="98.56 21.75 86.94 15.04 86.94 6.71 98.56 13.42 98.56 21.75"/><polygon class="cls-9" points="98.56 13.42 86.94 6.71 98.56 0 110.18 6.71 98.56 13.42"/><polygon class="cls-10" points="93.57 15.8 91.7 14.72 91.7 9.46 93.57 10.54 93.57 15.8"/><polygon class="cls-11" points="93.57 10.54 105.19 3.83 103.32 2.75 91.7 9.46 93.57 10.54"/><polygon class="cls-12" points="86.94 6.71 98.56 13.42 92.29 10.06 86.94 6.71"/><polygon class="cls-13" points="92.7 10.04 104.32 3.33 104.2 3.25 92.58 9.96 92.7 10.04"/><path class="cls-14" d="M331.81,157.32s0-3.47-3.44-2.43c-1.95.59-4.43,3.37-3,8.74s-2.95,9.16-2.95,9.16,3.36,0,4.72-.87,1.15-1.93,1.57-5.36S331.81,157.32,331.81,157.32Z" transform="translate(-184.7 -97.7)"/><path class="cls-15" d="M337.63,167.65s1.61-.9,3,2.44,2.85,10.91,3.53,12,0,2.38-3.65,3.31S337.63,167.65,337.63,167.65Z" transform="translate(-184.7 -97.7)"/><path class="cls-16" d="M342.64,176.6a1.79,1.79,0,0,1-1.57.73c-1.13,0-8.3-9.37-6.62-10a6.14,6.14,0,0,1,4.17.28C339.84,168.14,341.14,170.06,342.64,176.6Z" transform="translate(-184.7 -97.7)"/><path class="cls-17" d="M342.8,242.69c-2.83-1.88-4.14-1.72-4.14-1.72s-2.26.18-3-.85h0a1.27,1.27,0,0,1-.17-1c.33-2.09.88-3.25.85-4-.18-4.53-2.25-11.91-1.7-15.46.81-5.41-1.83-12-1.48-16.15a5.7,5.7,0,0,1,.18-1.12c1.08-4,8.41-5.17,8.41-5.17a38.7,38.7,0,0,1-.24,11.62c-1.71,10-2,24.2-2,27.38,0,1.31,1.77,2.37,2.58,2.83,1.15.64,3.4,2.08,3.4,2.08S345.64,244.58,342.8,242.69Z" transform="translate(-184.7 -97.7)"/><path class="cls-18" d="M336,225.31c.44,3.57,1.15,8.62,1,9.78s-1.33,3.5-1.28,5a1.27,1.27,0,0,1-.17-1c.33-2.09.88-3.25.85-4-.18-4.53-2.25-11.91-1.7-15.46.81-5.41-1.83-12-1.48-16.15a10.13,10.13,0,0,1,4.2-.67,3.6,3.6,0,0,1-.85,2.57l-1.08,1.52a71.42,71.42,0,0,1,.55,10.13C335.88,222.12,335.57,221.73,336,225.31Z" transform="translate(-184.7 -97.7)"/><path class="cls-17" d="M337.57,203.2a3.79,3.79,0,0,1-2.39,2.1s-.5,14-1.68,17-2,14.06-2,14.51a7.86,7.86,0,0,0,2.33,5.22c2.16,2.07,3.09,2.44,3.08,2.77a2.64,2.64,0,0,1-3,1.64c-2-.29-2.58-.43-3.57-1.45-.38-.38-.76-.71-1.09-1a3.26,3.26,0,0,1-1.12-1.48c-.15-.81.51-2.4.06-3.92s-1.55-11-1.31-13.48c.53-5.56,1.17-5,1-6.58s-2.7-9.76-2.7-18.82a1,1,0,0,1,.09-.44c1-2.81,12.22.14,12.22.14A7,7,0,0,1,337.57,203.2Z" transform="translate(-184.7 -97.7)"/><path class="cls-18" d="M329.3,243.93a3.26,3.26,0,0,1-1.12-1.48c-.15-.81.51-2.4.06-3.92s-1.55-11-1.31-13.48c.53-5.56,1.17-5,1-6.58s-2.7-9.76-2.7-18.82a1,1,0,0,1,.09-.44,3.49,3.49,0,0,1,1,.3,33.53,33.53,0,0,0,0,7.57c.49,4.28,2.39,11.21,2.39,12.08s-1.11,3.41-1.07,8.11,1.42,11.33,1.34,12.28A5.15,5.15,0,0,0,329.3,243.93Z" transform="translate(-184.7 -97.7)"/><path class="cls-19" d="M342.23,179.9a12.39,12.39,0,0,1-.16,2.06v0a1.66,1.66,0,0,1,0,.22,12.66,12.66,0,0,1-.51,2.19c-.06.19-.11.36-.15.47-.67,1.83.71,11.83.5,12.62s-.73,1.59-4.12,2.68a16.94,16.94,0,0,1-3.13.67l-.85.1a24.8,24.8,0,0,1-3,.11,4.61,4.61,0,0,1-.53,0l-.84-.05a11.81,11.81,0,0,1-3-.52,3.76,3.76,0,0,1-.92-.44,1.57,1.57,0,0,1-.37-.35s.4-7.48.16-10.38c-.14-1.78-1.17-4.11-2.13-6.41-.43-1-.84-2-1.16-3-.12-.39-.23-.77-.33-1.13-1.55-6,.74-6.73,2.54-8.14a18.61,18.61,0,0,1,5.73-3.26,17,17,0,0,1,6.38-.05c.83.07,2.71.56,3.75,4.12s1.93,6,2.07,7.71A6.61,6.61,0,0,1,342.23,179.9Z" transform="translate(-184.7 -97.7)"/><path class="cls-20" d="M342.23,179.9a12.39,12.39,0,0,1-.16,2.06v0a1.66,1.66,0,0,1,0,.22c-.18.84-.37,1.65-.51,2.19-.06.19-.11.36-.15.47-.67,1.83.71,11.83.5,12.62s-.73,1.59-4.12,2.68a16.94,16.94,0,0,1-3.13.67l-.85.1a24.8,24.8,0,0,1-3,.11,4.61,4.61,0,0,1-.53,0,10.38,10.38,0,0,1-4.72-1,1.57,1.57,0,0,1-.37-.35s.4-7.48.16-10.38c-.14-1.78-1.17-4.11-2.13-6.41,1.84-2.57,3.51-4.11,3.31-3-.48,2.51-.49,6,2.77,6.08,4.6.12,5.74-1.67,7.93-2.47C340.3,182.33,341.65,180.85,342.23,179.9Z" transform="translate(-184.7 -97.7)"/><path class="cls-21" d="M336.17,184.13s-6.88,3.7-9.43,0h0c-.05-2.61-.17-5.42-.17-5.42a7.89,7.89,0,0,0-4.51,1.16c.32,1,.73,2,1.16,3,1,2.3,2,4.63,2.13,6.41.24,2.9-.16,10.37-.16,10.37a2.71,2.71,0,0,0,1.3.8,36.93,36.93,0,0,1-.57-4.84c-.24-5,.74-5.68.83-8.24,0-.49,0-1.12,0-1.81C328,186.2,331.11,187.12,336.17,184.13Z" transform="translate(-184.7 -97.7)"/><path class="cls-15" d="M325.59,189.93s1.49-10.9.78-14.26-3-3.4-4-3-1.5,1.55-1.15,6.61.94,11.49,1.09,12.38S325.59,189.93,325.59,189.93Z" transform="translate(-184.7 -97.7)"/><path class="cls-22" d="M334.65,162.61a51.16,51.16,0,0,0,.18,5.38c.22,1.47.71,2.34-.95,2.88-.94.31-4.49-.67-6-2.33-.14-.2.26-.46.59-1.61a10.39,10.39,0,0,0,.57-4c0-2.27.11-4.36.11-4.36Z" transform="translate(-184.7 -97.7)"/><path class="cls-23" d="M334.86,168.12a3.14,3.14,0,0,1-1.13-.14c-2.26-.57-2.87-.68-3.55,0s-.44,1.43.33,2.23a7.07,7.07,0,0,1-2.61-1.67c-.12-.19.27-.46.6-1.62a10.42,10.42,0,0,0,.57-4v-1.09l5.67,5.17c0,.38.05.72.09,1A.53.53,0,0,0,334.86,168.12Z" transform="translate(-184.7 -97.7)"/><path class="cls-15" d="M332.37,151.77s3.75.78,4.72,3.65.82,3,.76,4.15a19.58,19.58,0,0,1-.13,4.62c-.45,1.87-.88,3.46-1.73,3.74s-5.7-.69-7.47-4-3.43-6.34-2.08-9.41C327.39,152.36,330.47,151.29,332.37,151.77Z" transform="translate(-184.7 -97.7)"/><path class="cls-24" d="M326.15,154.72c.71-1.88,1.63-2.24,1.63-2.24s.88-1,3.35-1a7.77,7.77,0,0,1,5.38,2.26c1.34,1.46.79,2.25.79,2.25v0a.56.56,0,0,0-.73-.29c-.63.26-.89.75-1.41.93-3.64,1.29-4.37.31-4.67,2s-.47,2.3-1.23,2c-1.23-.42-1.17-.16-1.77.67a22.51,22.51,0,0,0,.83,2.39s0,.77-1.44-2.32C326.34,160.14,325,158.42,326.15,154.72Z" transform="translate(-184.7 -97.7)"/><path class="cls-25" d="M328.79,161.09a1.5,1.5,0,0,0-1.74-.78c-1.2.32-1,1.7.32,2.93s1.61-.22,1.67-.32S328.47,161.94,328.79,161.09Z" transform="translate(-184.7 -97.7)"/><path class="cls-26" d="M328.35,161.26s-.53-.63-1.05-.35c-.8.41.35,1.72.47,1.88s.69.1.76-.3S327.94,161.76,328.35,161.26Z" transform="translate(-184.7 -97.7)"/><path class="cls-16" d="M323.07,172.36s-1.7-.08-2.07,2.34.33,8.08.33,8.08a18.93,18.93,0,0,1,2.9-.24,8.94,8.94,0,0,1,2.33.24,45.31,45.31,0,0,0,0-7.08C326.21,173.54,325.4,172.13,323.07,172.36Z" transform="translate(-184.7 -97.7)"/><path class="cls-27" d="M338.48,156l-.26.35L331.89,158c-.31.08-.49.28-1.09.47h0a8.28,8.28,0,0,1-1.91.34,14.92,14.92,0,0,1-3.51-.16,13.15,13.15,0,0,1,0-3.29,6.08,6.08,0,0,1,4.49-4.22,7.32,7.32,0,0,1,1.27-.24c2.81-.29,5.44.91,6.33,2.27A7.32,7.32,0,0,1,338.48,156Z" transform="translate(-184.7 -97.7)"/><path class="cls-28" d="M330.78,158.46a8.28,8.28,0,0,1-1.91.34,14.92,14.92,0,0,1-3.51-.16,13.15,13.15,0,0,1,0-3.29,6.08,6.08,0,0,1,4.49-4.22,2.47,2.47,0,0,0-1.52,2C328.19,154.54,328.18,157.86,330.78,158.46Z" transform="translate(-184.7 -97.7)"/><path class="cls-29" d="M330.69,158.4s4.55,2.88,6.15,1.69c2-1.51,3.45-1.54,4.53-1.22l1.07.32a.27.27,0,0,0,.2-.31,43.14,43.14,0,0,0-4.15-2.87S336.15,154.27,330.69,158.4Z" transform="translate(-184.7 -97.7)"/><path class="cls-30" d="M333.58,241.32a2.17,2.17,0,0,0-1.1,0,6.41,6.41,0,0,0-1.25.44c-.39.18-.41.34-.38.72-.51-.26-2.12-1.07-2.34-1.61a4.94,4.94,0,0,1-.12-1.39s0,.16-.09.82-.21,2.33-.19,2.77,2.38,2.35,3,2.81c1.68,1.18,2.24,1.62,4.6,1.7s2.22-1.54,2.2-1.92-2.35-2.36-3-2.84a4.86,4.86,0,0,1-.91-1.16A.88.88,0,0,0,333.58,241.32Z" transform="translate(-184.7 -97.7)"/><path class="cls-30" d="M340.53,237.92c.66-.19,1.3.74,1.76,1.15a35.69,35.69,0,0,1,3.65,2.35,2.76,2.76,0,0,1,.15,1.26,2.93,2.93,0,0,1-3.12.7c-1.78-.65-2.41-1.25-3.6-1.54s-3.51-.77-3.81-1.42a8.07,8.07,0,0,1,0-2.8s.37-.14.52.13a3.58,3.58,0,0,0,1.63,1.27,4,4,0,0,0,1.78.07c0-.17-.1-.33,0-.48a1.33,1.33,0,0,1,.33-.24c.16-.11.3-.25.46-.35A.54.54,0,0,1,340.53,237.92Z" transform="translate(-184.7 -97.7)"/><polygon class="cls-3" points="115.02 172.86 76.69 150.73 101.08 136.66 108.44 146.04 133.52 172.86 115.02 172.86"/><polygon class="cls-31" points="98.59 152.69 98.59 114.73 133.52 134.89 171.2 101.58 171.2 72.82 215.46 87.6 215.46 125.57 133.52 172.86 98.59 152.69"/><polygon class="cls-32" points="98.59 152.69 98.59 114.73 133.52 134.89 171.2 101.58 171.2 72.82 215.46 87.6 215.46 95.88 133.52 143.18 98.59 152.69"/><polygon class="cls-9" points="98.59 114.73 107.92 109.34 119.68 116.14 182.96 79.61 171.2 72.82 180.53 67.43 215.46 87.6 201.65 95.58 133.52 134.89 98.59 114.73"/><polygon class="cls-33" points="98.59 114.73 133.52 134.89 133.52 172.86 98.59 152.69 98.59 114.73"/><polygon class="cls-7" points="218.85 86.65 218.85 91.64 206.13 98.97 206.13 93.98 218.85 86.65"/><polygon class="cls-8" points="206.13 93.98 206.13 98.97 167.81 76.85 167.81 71.86 206.13 93.98"/><polygon class="cls-9" points="206.13 93.98 167.81 71.86 180.53 64.52 218.85 86.64 206.13 93.98"/><polygon class="cls-7" points="206.13 93.98 206.13 98.97 146.24 133.54 146.24 128.55 206.13 93.98"/><polygon class="cls-8" points="146.24 128.55 146.24 133.54 119.68 118.21 119.68 113.22 146.24 128.55"/><polygon class="cls-9" points="146.25 128.55 119.69 113.22 179.57 78.65 206.14 93.98 146.25 128.55"/><polygon class="cls-7" points="146.24 128.55 146.24 133.54 133.52 140.88 133.52 135.89 146.24 128.55"/><polygon class="cls-8" points="133.52 135.89 133.52 140.88 95.2 118.76 95.2 113.77 133.52 135.89"/><polygon class="cls-9" points="133.52 135.89 95.2 113.77 107.92 106.43 146.24 128.55 133.52 135.89"/><path class="cls-15" d="M341.57,186.08a30.81,30.81,0,0,0,4.47,3.29s.16.2.38.43h0a2.82,2.82,0,0,0,.69.55c.45.22,1.35,1.36,1.57,1.42s.42-.19.66-.13a.15.15,0,0,0,.13,0h0a.1.1,0,0,0,.05,0h0l0,0,0-.05h0l0,0a.93.93,0,0,0,.09-.17l.15-.1.25-.15s0,0,0,0h0s0,0,0,0l.07,0,0,0h.2a.8.8,0,0,0,.3-.14,8.77,8.77,0,0,0,1.06-1.11.5.5,0,0,0,.05-.58,3.07,3.07,0,0,1-.2-.45h0a.14.14,0,0,1,0-.06,3.54,3.54,0,0,0-.65-.86l0,0c-.28-.31-.58-.63-.77-.82a.3.3,0,0,0-.08-.08v0l-.05,0,0,0h0l-.48.08a2.36,2.36,0,0,0-.67-.29c-.23,0-.7.34-1.15.33h0a.69.69,0,0,1-.31-.09c-.52-.32-2.57-4.07-3.13-4.35s-1.44.39-1.44.39C341,184.09,340.6,185,341.57,186.08Z" transform="translate(-184.7 -97.7)"/><path class="cls-34" d="M360.75,190.52l-5.89-3.4a.8.8,0,0,0-.71,0l-14.82,8.61-.67.17v.33h0a.25.25,0,0,0,.15.22l6,3.48a.81.81,0,0,0,.71,0L360.88,191a.23.23,0,0,0,.14-.2h0v-.35Z" transform="translate(-184.7 -97.7)"/><path class="cls-35" d="M338.81,196.11l6,3.48a.81.81,0,0,0,.71,0l15.34-8.92c.19-.12.19-.3,0-.41l-6-3.48a.75.75,0,0,0-.71,0l-15.34,8.92C338.61,195.81,338.61,196,338.81,196.11Z" transform="translate(-184.7 -97.7)"/><path class="cls-36" d="M359.37,190.16v-.08h-.06l-.67-.38a.28.28,0,0,0-.25,0l-.67.39h-.05v.07h0a.07.07,0,0,0,.05.06l.68.4a.28.28,0,0,0,.25,0l.67-.4S359.37,190.19,359.37,190.16Z" transform="translate(-184.7 -97.7)"/><path class="cls-36" d="M355.07,187.68v-.08H355l-.67-.38a.28.28,0,0,0-.25,0l-.66.38h-.06v.08h0s0,0,.05.07l.68.39a.31.31,0,0,0,.25,0l.67-.4S355.07,187.71,355.07,187.68Z" transform="translate(-184.7 -97.7)"/><path class="cls-36" d="M354,188.3v-.08H354l-.67-.39a.28.28,0,0,0-.25,0l-.67.39h-.05v.08h0s0,0,.05.07l.68.39a.28.28,0,0,0,.25,0l.67-.39A.08.08,0,0,0,354,188.3Z" transform="translate(-184.7 -97.7)"/><path class="cls-36" d="M353,188.91v-.08h-.06l-.67-.38a.28.28,0,0,0-.25,0l-.67.39h-.05v.07h0a.06.06,0,0,0,.05.06l.68.4a.28.28,0,0,0,.25,0l.67-.4S353,188.94,353,188.91Z" transform="translate(-184.7 -97.7)"/><path class="cls-36" d="M351.89,189.53v-.08h-.06l-.67-.39a.36.36,0,0,0-.25,0l-.67.39h-.06v.08h0s0,.05.05.07l.68.39a.25.25,0,0,0,.24,0l.68-.39S351.89,189.56,351.89,189.53Z" transform="translate(-184.7 -97.7)"/><path class="cls-36" d="M358.31,190.78v-.08h-.06l-.67-.39a.28.28,0,0,0-.25,0l-.67.39h-.05v.08h0s0,.05.05.07l.68.39a.25.25,0,0,0,.24,0l.68-.39A.08.08,0,0,0,358.31,190.78Z" transform="translate(-184.7 -97.7)"/><path class="cls-36" d="M356.65,190.51v-.08h-.07l-.67-.38a.25.25,0,0,0-.24,0l-.67.38h-.06v.07h0s0,0,.05.06l.68.4a.36.36,0,0,0,.25,0l.67-.4S356.65,190.54,356.65,190.51Z" transform="translate(-184.7 -97.7)"/><path class="cls-36" d="M355.58,191.13v-.08h-.06l-.67-.39a.25.25,0,0,0-.24,0l-.67.39h-.06v.08h0s0,.05.05.07l.68.39a.28.28,0,0,0,.25,0l.67-.39A.08.08,0,0,0,355.58,191.13Z" transform="translate(-184.7 -97.7)"/><path class="cls-36" d="M355,190.19v-.08H355l-.67-.38a.28.28,0,0,0-.25,0l-.67.39h-.05v.07h0a.1.1,0,0,0,.05.07l.68.39a.28.28,0,0,0,.25,0l.67-.39A.08.08,0,0,0,355,190.19Z" transform="translate(-184.7 -97.7)"/><path class="cls-36" d="M354,189.57v-.08h-.06l-.67-.39a.36.36,0,0,0-.25,0l-.67.39h-.06v.08h0s0,.05.05.07l.68.39a.25.25,0,0,0,.24,0l.68-.39S354,189.6,354,189.57Z" transform="translate(-184.7 -97.7)"/><path class="cls-36" d="M352.89,190.19v-.08h-.06l-.67-.39a.28.28,0,0,0-.25,0l-.67.39h-.06v.08h0a.12.12,0,0,0,.05.07l.69.39a.26.26,0,0,0,.24,0l.68-.39A.1.1,0,0,0,352.89,190.19Z" transform="translate(-184.7 -97.7)"/><path class="cls-36" d="M351.83,190.8v-.08h-.07l-.66-.38a.28.28,0,0,0-.25,0l-.67.39h-.06v.07h0s0,.05.05.06l.69.4a.25.25,0,0,0,.24,0l.68-.4S351.83,190.83,351.83,190.8Z" transform="translate(-184.7 -97.7)"/><path class="cls-36" d="M350.77,191.42v-.08h-.07L350,191a.28.28,0,0,0-.25,0l-.67.39h-.06v.08h0s0,.05.05.07l.68.39a.28.28,0,0,0,.25,0l.68-.39A.1.1,0,0,0,350.77,191.42Z" transform="translate(-184.7 -97.7)"/><path class="cls-36" d="M349.71,192V192h-.07l-.66-.39a.28.28,0,0,0-.25,0l-.67.39H348V192h0a.1.1,0,0,0,.05.07l.68.39a.28.28,0,0,0,.25,0l.68-.39A.1.1,0,0,0,349.71,192Z" transform="translate(-184.7 -97.7)"/><path class="cls-36" d="M348.65,192.65v-.08h-.07l-.67-.38a.25.25,0,0,0-.24,0l-.67.39h-.06v.07h0s0,0,.05.06l.68.4a.28.28,0,0,0,.25,0l.68-.4S348.65,192.68,348.65,192.65Z" transform="translate(-184.7 -97.7)"/><path class="cls-36" d="M347.59,193.27v-.08h-.07l-.67-.39a.26.26,0,0,0-.24,0l-.67.39h-.06v.08h0s0,0,.05.07l.68.39a.28.28,0,0,0,.25,0l.68-.39A.1.1,0,0,0,347.59,193.27Z" transform="translate(-184.7 -97.7)"/><path class="cls-36" d="M346.53,193.88v-.07h-.07l-.67-.39a.25.25,0,0,0-.24,0l-.67.39h-.06v.07h0a.1.1,0,0,0,.05.07l.68.39a.28.28,0,0,0,.25,0l.68-.39A.1.1,0,0,0,346.53,193.88Z" transform="translate(-184.7 -97.7)"/><path class="cls-36" d="M343.76,194.5v.08h.06l.67.39a.28.28,0,0,0,.25,0l.67-.39h0v-.08h0s0-.05,0-.07l-.68-.39a.25.25,0,0,0-.24,0l-.68.39A.08.08,0,0,0,343.76,194.5Z" transform="translate(-184.7 -97.7)"/><path class="cls-36" d="M344.33,193.92v-.07h-.07l-.66-.39a.28.28,0,0,0-.25,0l-.67.39h-.06v.07h0a.1.1,0,0,0,.05.07l.68.39a.28.28,0,0,0,.25,0l.68-.39A.1.1,0,0,0,344.33,193.92Z" transform="translate(-184.7 -97.7)"/><path class="cls-36" d="M343.27,194.54v-.08h-.07l-.66-.38a.28.28,0,0,0-.25,0l-.67.39h-.06v.07h0s0,0,.05.06l.68.4a.28.28,0,0,0,.25,0l.68-.4S343.27,194.57,343.27,194.54Z" transform="translate(-184.7 -97.7)"/><path class="cls-36" d="M341.12,195.79v-.08h-.07l-.66-.39a.31.31,0,0,0-.25,0l-.67.39h-.06v.08h0a.12.12,0,0,0,0,.07l.69.39a.25.25,0,0,0,.24,0l.68-.39S341.12,195.82,341.12,195.79Z" transform="translate(-184.7 -97.7)"/><path class="cls-36" d="M342.22,196.27l-.67-.38a.28.28,0,0,0-.25,0l-.09.05h0l-.58.34h-.05v0l0,0h-.06v.08h0a.1.1,0,0,0,0,.07l.68.39a.28.28,0,0,0,.25,0l.77-.45s0,0,0-.07v-.08Z" transform="translate(-184.7 -97.7)"/><path class="cls-36" d="M344.4,195.12V195h-.06l-.67-.39a.28.28,0,0,0-.25,0l-.66.39h-.06v.08h0s0,0,.05.07l.68.39a.28.28,0,0,0,.25,0l.67-.39A.08.08,0,0,0,344.4,195.12Z" transform="translate(-184.7 -97.7)"/><path class="cls-36" d="M343.34,195.73v-.08h-.06l-.67-.38a.28.28,0,0,0-.25,0l-.67.39h-.05v.07h0a.1.1,0,0,0,.05.07l.68.39a.28.28,0,0,0,.25,0l.67-.39A.08.08,0,0,0,343.34,195.73Z" transform="translate(-184.7 -97.7)"/><path class="cls-36" d="M354,190.81v-.08h-.06l-.67-.38a.28.28,0,0,0-.25,0l-.67.39h-.05v.07h0s0,0,.05.06l.68.4a.36.36,0,0,0,.25,0l.67-.4S354,190.84,354,190.81Z" transform="translate(-184.7 -97.7)"/><path class="cls-36" d="M352.91,191.43v-.08h-.06l-.67-.39a.28.28,0,0,0-.25,0l-.67.39h-.06v.08h0s0,0,.05.07l.68.39a.25.25,0,0,0,.24,0l.68-.39A.08.08,0,0,0,352.91,191.43Z" transform="translate(-184.7 -97.7)"/><path class="cls-36" d="M351.85,192V192h-.06l-.67-.38a.28.28,0,0,0-.25,0l-.67.39h-.06V192h0a.13.13,0,0,0,.06.07l.68.39a.25.25,0,0,0,.24,0l.68-.39A.1.1,0,0,0,351.85,192Z" transform="translate(-184.7 -97.7)"/><path class="cls-36" d="M350.79,192.66v-.08h-.07l-.66-.38a.28.28,0,0,0-.25,0l-.67.38h-.06v.08h0a.12.12,0,0,0,.05.07l.69.39a.29.29,0,0,0,.24,0l.68-.4S350.79,192.69,350.79,192.66Z" transform="translate(-184.7 -97.7)"/><path class="cls-36" d="M349.73,193.28v-.08h-.07l-.66-.39a.28.28,0,0,0-.25,0l-.67.39H348v.08h0a.12.12,0,0,0,.05.07l.68.39a.28.28,0,0,0,.25,0l.68-.39A.1.1,0,0,0,349.73,193.28Z" transform="translate(-184.7 -97.7)"/><path class="cls-36" d="M348.67,193.89v-.08h-.07l-.66-.38a.28.28,0,0,0-.25,0l-.67.39H347v.07h0a.07.07,0,0,0,.05.06l.68.4a.28.28,0,0,0,.25,0l.68-.4S348.67,193.92,348.67,193.89Z" transform="translate(-184.7 -97.7)"/><path class="cls-36" d="M347.61,194.51v-.08h-.07l-.66-.39a.36.36,0,0,0-.25,0l-.67.39h-.06v.08h0s0,.05.05.07l.68.39a.28.28,0,0,0,.25,0l.68-.39S347.61,194.54,347.61,194.51Z" transform="translate(-184.7 -97.7)"/><path class="cls-36" d="M346.55,195.13v-.08h-.07l-.67-.39a.25.25,0,0,0-.24,0l-.67.39h-.06v.08h0s0,.05.05.07l.68.39a.28.28,0,0,0,.25,0l.68-.39A.1.1,0,0,0,346.55,195.13Z" transform="translate(-184.7 -97.7)"/><path class="cls-36" d="M345.49,195.74v-.08h-.07l-.67-.38a.25.25,0,0,0-.24,0l-.67.39h-.06v.07h0a.07.07,0,0,0,.05.06l.68.4a.28.28,0,0,0,.25,0l.68-.4S345.49,195.77,345.49,195.74Z" transform="translate(-184.7 -97.7)"/><path class="cls-36" d="M354.52,191.74v-.08h-.06l-.67-.38a.28.28,0,0,0-.25,0l-.67.39h-.05v.07h0a.07.07,0,0,0,.05.06l.68.4a.28.28,0,0,0,.25,0l.67-.4A.06.06,0,0,0,354.52,191.74Z" transform="translate(-184.7 -97.7)"/><path class="cls-36" d="M353.46,192.36v-.08h-.06l-.67-.38a.28.28,0,0,0-.25,0l-.67.38h-.05v.08h0s0,0,.05.07l.68.39a.28.28,0,0,0,.25,0l.67-.39S353.46,192.39,353.46,192.36Z" transform="translate(-184.7 -97.7)"/><path class="cls-36" d="M352.4,193v-.08h-.06l-.67-.39a.28.28,0,0,0-.25,0l-.67.39h-.05V193h0s0,.05.05.07l.68.39a.25.25,0,0,0,.24,0l.68-.39A.08.08,0,0,0,352.4,193Z" transform="translate(-184.7 -97.7)"/><path class="cls-36" d="M351.34,193.59v-.08h-.06l-.67-.38a.28.28,0,0,0-.25,0l-.67.39h-.06v.07h0a.06.06,0,0,0,.05.06l.68.4a.25.25,0,0,0,.24,0l.68-.4S351.34,193.62,351.34,193.59Z" transform="translate(-184.7 -97.7)"/><path class="cls-36" d="M350.28,194.21v-.08h-.06l-.67-.39a.31.31,0,0,0-.25,0l-.67.39h-.06v.08h0a.12.12,0,0,0,.05.07l.69.39a.25.25,0,0,0,.24,0l.68-.39S350.28,194.24,350.28,194.21Z" transform="translate(-184.7 -97.7)"/><path class="cls-36" d="M349.22,194.83v-.08h-.07l-.66-.39a.28.28,0,0,0-.25,0l-.67.39h-.06v.08h0a.15.15,0,0,0,.05.07l.69.39a.25.25,0,0,0,.24,0l.68-.39A.1.1,0,0,0,349.22,194.83Z" transform="translate(-184.7 -97.7)"/><path class="cls-36" d="M348.16,195.44v-.08h-.07l-.66-.38a.28.28,0,0,0-.25,0l-.67.39h-.06v.07h0a.07.07,0,0,0,.05.06l.68.4a.28.28,0,0,0,.25,0l.68-.4S348.16,195.47,348.16,195.44Z" transform="translate(-184.7 -97.7)"/><path class="cls-36" d="M347.1,196.06V196H347l-.66-.39a.28.28,0,0,0-.25,0l-.67.39h-.06v.08h0s0,.05.05.07l.68.39a.28.28,0,0,0,.25,0l.68-.39A.1.1,0,0,0,347.1,196.06Z" transform="translate(-184.7 -97.7)"/><path class="cls-36" d="M346,196.68v-.08H346l-.67-.39a.25.25,0,0,0-.24,0l-.67.39h-.06v.08h0a.1.1,0,0,0,.05.07l.68.39a.28.28,0,0,0,.25,0l.68-.39A.1.1,0,0,0,346,196.68Z" transform="translate(-184.7 -97.7)"/><path class="cls-36" d="M357.25,191.39v-.07h-.06l-.67-.39a.28.28,0,0,0-.25,0l-.67.39h-.06v.08h0a.08.08,0,0,0,.05.07l.68.39a.25.25,0,0,0,.24,0l.68-.39A.08.08,0,0,0,357.25,191.39Z" transform="translate(-184.7 -97.7)"/><path class="cls-36" d="M356.19,192v-.08h-.06l-.67-.38a.28.28,0,0,0-.25,0l-.67.39h-.06V192h0a.11.11,0,0,0,.06.06l.68.4a.25.25,0,0,0,.24,0l.68-.4S356.19,192,356.19,192Z" transform="translate(-184.7 -97.7)"/><path class="cls-36" d="M355.13,192.63v-.08h-.07l-.66-.39a.28.28,0,0,0-.25,0l-.67.39h-.06v.08h0a.12.12,0,0,0,.05.07l.69.39a.25.25,0,0,0,.24,0l.68-.39A.1.1,0,0,0,355.13,192.63Z" transform="translate(-184.7 -97.7)"/><path class="cls-36" d="M354.07,193.24v-.08H354l-.66-.39a.28.28,0,0,0-.25,0l-.67.39h-.06v.07h0a.15.15,0,0,0,.05.07l.68.39a.28.28,0,0,0,.25,0l.68-.39A.1.1,0,0,0,354.07,193.24Z" transform="translate(-184.7 -97.7)"/><path class="cls-36" d="M353,193.86v-.08h-.07l-.66-.38a.28.28,0,0,0-.25,0l-.67.39h-.06v.07h0s0,0,.05.06l.68.4a.28.28,0,0,0,.25,0l.68-.4S353,193.89,353,193.86Z" transform="translate(-184.7 -97.7)"/><path class="cls-36" d="M352,194.48v-.08h-.07l-.66-.39a.28.28,0,0,0-.25,0l-.67.39h-.06v.08h0s0,.05.05.07l.68.39a.28.28,0,0,0,.25,0l.68-.39A.1.1,0,0,0,352,194.48Z" transform="translate(-184.7 -97.7)"/><path class="cls-36" d="M350.89,195.09V195h-.07l-.67-.38a.25.25,0,0,0-.24,0l-.67.39h-.06v.07h0a.1.1,0,0,0,.05.07l.68.39a.28.28,0,0,0,.25,0l.68-.39A.1.1,0,0,0,350.89,195.09Z" transform="translate(-184.7 -97.7)"/><path class="cls-36" d="M349.83,195.71v-.08h-.07l-.67-.38a.25.25,0,0,0-.24,0l-.67.38h-.06v.08h0s0,0,.05.06l.68.4a.36.36,0,0,0,.25,0l.68-.4S349.83,195.74,349.83,195.71Z" transform="translate(-184.7 -97.7)"/><path class="cls-36" d="M348.77,196.33v-.08h-.07l-.67-.39a.25.25,0,0,0-.24,0l-.67.39h-.06v.08h0s0,0,.05.07l.68.39a.28.28,0,0,0,.25,0l.68-.39A.1.1,0,0,0,348.77,196.33Z" transform="translate(-184.7 -97.7)"/><path class="cls-36" d="M347.7,196.94v-.08h-.06l-.67-.38a.25.25,0,0,0-.24,0l-.67.39H346v.07h0a.07.07,0,0,0,.05.06l.68.4a.28.28,0,0,0,.25,0l.67-.4A.06.06,0,0,0,347.7,196.94Z" transform="translate(-184.7 -97.7)"/><path class="cls-36" d="M346.64,197.56v-.08h-.06l-.67-.38a.28.28,0,0,0-.25,0l-.66.38h-.06v.08h0s0,.05.05.07l.68.39a.28.28,0,0,0,.25,0l.67-.39S346.64,197.59,346.64,197.56Z" transform="translate(-184.7 -97.7)"/><path class="cls-36" d="M345.58,198.09h-.06l-.67-.39a.28.28,0,0,0-.25,0l-.82.48h-.07v.08h0s0,.05.05.06l.68.4a.28.28,0,0,0,.25,0l.84-.49a.08.08,0,0,0,.05-.08h0Z" transform="translate(-184.7 -97.7)"/><path class="cls-36" d="M350.83,190.14v-.07h-.06l-.67-.39a.25.25,0,0,0-.19,0l-.06,0-.67.39h-.06v0l-4.71,2.74h0l-.67.39h-.06v.08h0v0h0l0,0h0l.68.39.06,0h.07a.24.24,0,0,0,.12,0l.68-.39h0l5.44-3.16A.08.08,0,0,0,350.83,190.14Z" transform="translate(-184.7 -97.7)"/><path class="cls-36" d="M358.72,191.2h0v-.07h-.05l-.19-.1a.26.26,0,0,0-.24,0l-.63.36-.1,0v.08s0,0,.05.07l.18.11a.28.28,0,0,0,.25,0l.68-.4a.07.07,0,0,0,.05-.06h0Z" transform="translate(-184.7 -97.7)"/><path class="cls-36" d="M357.66,191.82h0v-.08h-.05l-.19-.11a.25.25,0,0,0-.24,0l-.63.37-.1,0v.08s0,0,.05.07l.18.1a.28.28,0,0,0,.25,0l.68-.39s.05,0,.05-.07Z" transform="translate(-184.7 -97.7)"/><path class="cls-36" d="M356.6,192.44h0v-.08h-.05l-.19-.1a.25.25,0,0,0-.24,0l-.63.36-.1,0v.08a.07.07,0,0,0,.05.06l.18.11a.28.28,0,0,0,.25,0l.68-.39a.1.1,0,0,0,.05-.07Z" transform="translate(-184.7 -97.7)"/><path class="cls-36" d="M355.54,193.05h0V193h-.06l-.18-.1a.28.28,0,0,0-.25,0l-.62.36-.1,0v.08s0,0,.05.07l.18.11a.28.28,0,0,0,.25,0l.68-.4s.05,0,.05-.07Z" transform="translate(-184.7 -97.7)"/><path class="cls-36" d="M354.48,193.67h0v-.08h-.06l-.18-.11a.28.28,0,0,0-.25,0l-.62.37-.1,0V194a.1.1,0,0,0,.05.07l.18.1a.28.28,0,0,0,.25,0l.68-.39a.12.12,0,0,0,.05-.07Z" transform="translate(-184.7 -97.7)"/><path class="cls-36" d="M353.41,194.29h0v-.07h-.05l-.18-.1a.28.28,0,0,0-.25,0l-.62.36-.1,0v.08a.06.06,0,0,0,.05.06l.18.11a.28.28,0,0,0,.25,0l.67-.39a.08.08,0,0,0,.05-.07Z" transform="translate(-184.7 -97.7)"/><path class="cls-36" d="M352.35,194.9h0v-.07h-.05l-.18-.11a.31.31,0,0,0-.25,0l-.62.37-.11,0v.08s0,.05.05.07l.18.11a.28.28,0,0,0,.25,0l.67-.4s.05,0,.05-.07Z" transform="translate(-184.7 -97.7)"/><path class="cls-36" d="M351.29,195.52h0v-.08h-.05l-.18-.11a.28.28,0,0,0-.25,0l-.63.36-.1,0v.08a.13.13,0,0,0,.06.07l.18.1a.28.28,0,0,0,.25,0l.67-.39s.05,0,.05-.07Z" transform="translate(-184.7 -97.7)"/><path class="cls-36" d="M350.23,196.14h0v-.07h-.05L350,196a.28.28,0,0,0-.25,0l-.63.36-.1,0v.08a.13.13,0,0,0,.05.06l.19.11a.28.28,0,0,0,.25,0l.67-.39a.08.08,0,0,0,.05-.07Z" transform="translate(-184.7 -97.7)"/><path class="cls-36" d="M349.17,196.75h0v-.07h-.05l-.18-.11a.28.28,0,0,0-.25,0l-.63.37-.1,0V197s0,.05.05.07l.19.11a.25.25,0,0,0,.24,0l.68-.4s.05,0,.05-.07Z" transform="translate(-184.7 -97.7)"/><path class="cls-36" d="M348.11,197.37h0v-.08h-.05l-.18-.11a.28.28,0,0,0-.25,0l-.63.36-.1,0v.08a.1.1,0,0,0,.05.07l.19.1a.25.25,0,0,0,.24,0l.68-.39a.1.1,0,0,0,.05-.07Z" transform="translate(-184.7 -97.7)"/><path class="cls-36" d="M347.05,198h0v-.07H347l-.19-.1a.25.25,0,0,0-.24,0l-.63.36-.1,0v.09s0,0,.05.06l.19.11a.25.25,0,0,0,.24,0l.68-.39a.1.1,0,0,0,.05-.07Z" transform="translate(-184.7 -97.7)"/><path class="cls-36" d="M346,198.6h0v-.08h-.05l-.19-.11a.25.25,0,0,0-.24,0l-.63.37-.1,0v.08s0,.05.05.07l.19.11a.29.29,0,0,0,.24,0l.68-.4s.05,0,.05-.07Z" transform="translate(-184.7 -97.7)"/><path class="cls-36" d="M358.3,189.47h-.05l-.68-.39a.28.28,0,0,0-.25,0l-1.26.73H356v.07h0s0,.05.05.07l.68.39a.28.28,0,0,0,.25,0l1.28-.74s.05,0,.05-.07h0Z" transform="translate(-184.7 -97.7)"/><path class="cls-36" d="M357.22,188.84h-.05l-.68-.39a.28.28,0,0,0-.25,0l-1.76,1-.09,0v.08h0a.08.08,0,0,0,.05.07l.68.39a.28.28,0,0,0,.25,0l1.8-1s.05,0,.05-.07h0Z" transform="translate(-184.7 -97.7)"/><path class="cls-36" d="M356.14,188.22h-.05l-.68-.39a.28.28,0,0,0-.25,0l-1.76,1-.1,0V189h0a.06.06,0,0,0,.05.07l.68.4a.25.25,0,0,0,.24,0l1.81-1a.1.1,0,0,0,.05-.07h0Z" transform="translate(-184.7 -97.7)"/><path class="cls-36" d="M345,197.21h-.05l-.68-.4a.28.28,0,0,0-.25,0l-1.28.75h-.07v.07h0s0,0,.05.07l.68.4a.31.31,0,0,0,.25,0l1.3-.76a.1.1,0,0,0,.05-.07h0Z" transform="translate(-184.7 -97.7)"/><path class="cls-36" d="M344.37,196.29l-.68-.4a.25.25,0,0,0-.24,0L341.61,197a.08.08,0,0,0,0,.14l.69.4a.33.33,0,0,0,.24,0l1.83-1.07c.07,0,.07-.1,0-.14Z" transform="translate(-184.7 -97.7)"/><path class="cls-36" d="M342.21,195.16h0v-.08h0L342,195a.25.25,0,0,0-.24,0l-.63.36-.1,0v.08a.1.1,0,0,0,.05.07l.18.1a.28.28,0,0,0,.25,0l.68-.39s0,0,0-.07Z" transform="translate(-184.7 -97.7)"/><path class="cls-36" d="M341.71,194.87h0v-.08h0l-.19-.11a.25.25,0,0,0-.24,0l-.63.37-.1,0v.08s0,.05.05.07l.19.11a.33.33,0,0,0,.24,0l.68-.4s0,0,0-.07Z" transform="translate(-184.7 -97.7)"/><path class="cls-36" d="M359.94,190.49h0v-.08h-.05l-.18-.11a.28.28,0,0,0-.25,0l-.78.46-.11,0v.08h0a.12.12,0,0,0,.05.07l.19.1a.25.25,0,0,0,.24,0l.84-.49S359.94,190.52,359.94,190.49Z" transform="translate(-184.7 -97.7)"/><path class="cls-37" d="M357.72,190.17l.68.39a.28.28,0,0,0,.25,0l.67-.39c.07,0,.07-.1,0-.14l-.68-.4a.28.28,0,0,0-.25,0l-.67.4c-.07,0-.07.1,0,.14Z" transform="translate(-184.7 -97.7)"/><path class="cls-37" d="M356.66,190.79l.68.39a.25.25,0,0,0,.24,0l.68-.39a.08.08,0,0,0,0-.15l-.68-.39a.28.28,0,0,0-.25,0l-.67.39a.08.08,0,0,0,0,.15Z" transform="translate(-184.7 -97.7)"/><path class="cls-37" d="M355.6,191.4l.68.4a.33.33,0,0,0,.24,0l.68-.4c.07,0,.07-.1,0-.14l-.68-.39a.28.28,0,0,0-.25,0l-.67.39c-.07,0-.07.1,0,.14Z" transform="translate(-184.7 -97.7)"/><path class="cls-37" d="M354.54,192l.68.39a.25.25,0,0,0,.24,0l.68-.39c.07,0,.07-.11,0-.14l-.68-.4a.28.28,0,0,0-.25,0l-.68.4c-.06,0-.06.1,0,.14Z" transform="translate(-184.7 -97.7)"/><path class="cls-37" d="M353.47,192.63l.69.4a.25.25,0,0,0,.24,0l.68-.4c.07,0,.07-.1,0-.14l-.68-.39a.28.28,0,0,0-.25,0l-.68.39a.08.08,0,0,0,0,.14Z" transform="translate(-184.7 -97.7)"/><path class="cls-37" d="M352.41,193.25l.69.39a.25.25,0,0,0,.24,0l.68-.39c.07,0,.07-.1,0-.14l-.68-.4a.36.36,0,0,0-.25,0l-.68.4a.08.08,0,0,0,0,.14Z" transform="translate(-184.7 -97.7)"/><path class="cls-37" d="M351.35,193.87l.68.39a.28.28,0,0,0,.25,0l.68-.39a.08.08,0,0,0,0-.15l-.68-.39a.28.28,0,0,0-.25,0l-.68.39a.08.08,0,0,0,0,.15Z" transform="translate(-184.7 -97.7)"/><path class="cls-37" d="M350.29,194.48l.68.4a.28.28,0,0,0,.25,0l.68-.4c.07,0,.06-.1,0-.14l-.68-.39a.28.28,0,0,0-.25,0l-.68.39c-.07,0-.07.1,0,.14Z" transform="translate(-184.7 -97.7)"/><path class="cls-37" d="M349.23,195.1l.68.39a.28.28,0,0,0,.25,0l.68-.39a.08.08,0,0,0,0-.14l-.69-.4a.25.25,0,0,0-.24,0l-.68.4c-.07,0-.07.1,0,.14Z" transform="translate(-184.7 -97.7)"/><path class="cls-37" d="M348.17,195.72l.68.39a.28.28,0,0,0,.25,0l.68-.39a.08.08,0,0,0,0-.15l-.68-.39a.26.26,0,0,0-.24,0l-.68.39a.08.08,0,0,0,0,.15Z" transform="translate(-184.7 -97.7)"/><path class="cls-37" d="M347.11,196.33l.68.4a.28.28,0,0,0,.25,0l.67-.4c.07,0,.07-.1,0-.14l-.68-.39a.25.25,0,0,0-.24,0l-.68.39c-.07,0-.07.1,0,.14Z" transform="translate(-184.7 -97.7)"/><path class="cls-37" d="M353.93,191.13l.68.4a.28.28,0,0,0,.25,0l.67-.4c.07,0,.07-.1,0-.14l-.68-.39a.25.25,0,0,0-.24,0l-.68.39c-.07,0-.07.1,0,.14Z" transform="translate(-184.7 -97.7)"/><path class="cls-37" d="M352.87,191.75l.68.39a.28.28,0,0,0,.25,0l.67-.39c.07,0,.07-.1,0-.14l-.68-.4a.28.28,0,0,0-.25,0l-.67.4c-.07,0-.07.1,0,.14Z" transform="translate(-184.7 -97.7)"/><path class="cls-37" d="M351.81,192.37l.68.39a.28.28,0,0,0,.25,0l.67-.39a.08.08,0,0,0,0-.15l-.68-.39a.28.28,0,0,0-.25,0l-.67.39a.08.08,0,0,0,0,.15Z" transform="translate(-184.7 -97.7)"/><path class="cls-37" d="M350.75,193l.68.4a.25.25,0,0,0,.24,0l.68-.4c.07,0,.07-.1,0-.14l-.68-.39a.28.28,0,0,0-.25,0l-.67.39c-.07,0-.07.1,0,.14Z" transform="translate(-184.7 -97.7)"/><path class="cls-37" d="M349.69,193.6l.68.39a.25.25,0,0,0,.24,0l.68-.39c.07,0,.07-.1,0-.14l-.68-.4a.28.28,0,0,0-.25,0l-.67.4c-.07,0-.07.1,0,.14Z" transform="translate(-184.7 -97.7)"/><path class="cls-37" d="M348.63,194.22l.68.39a.26.26,0,0,0,.24,0l.68-.39a.08.08,0,0,0,0-.15l-.68-.39a.28.28,0,0,0-.25,0l-.68.39a.08.08,0,0,0,0,.15Z" transform="translate(-184.7 -97.7)"/><path class="cls-37" d="M347.56,194.83l.69.4a.25.25,0,0,0,.24,0l.68-.4c.07,0,.07-.1,0-.14l-.68-.39a.28.28,0,0,0-.25,0l-.68.39a.08.08,0,0,0,0,.14Z" transform="translate(-184.7 -97.7)"/><path class="cls-37" d="M346.5,195.45l.69.39a.25.25,0,0,0,.24,0l.68-.39c.07,0,.07-.1,0-.14l-.68-.4a.28.28,0,0,0-.25,0l-.68.4c-.07,0-.06.1,0,.14Z" transform="translate(-184.7 -97.7)"/><path class="cls-37" d="M345.44,196.07l.68.39a.28.28,0,0,0,.25,0l.68-.39a.08.08,0,0,0,0-.15l-.68-.39a.28.28,0,0,0-.25,0l-.68.39a.08.08,0,0,0,0,.15Z" transform="translate(-184.7 -97.7)"/><path class="cls-37" d="M344.38,196.68l.68.39a.28.28,0,0,0,.25,0l.68-.39a.08.08,0,0,0,0-.14l-.69-.39a.25.25,0,0,0-.24,0l-.68.39c-.07,0-.07.1,0,.14Z" transform="translate(-184.7 -97.7)"/><path class="cls-37" d="M346.05,197l.68.39a.28.28,0,0,0,.25,0l.67-.39c.07,0,.07-.1,0-.14l-.68-.4a.25.25,0,0,0-.24,0l-.68.4c-.07,0-.07.1,0,.14Z" transform="translate(-184.7 -97.7)"/><path class="cls-37" d="M345,197.57l.68.39a.28.28,0,0,0,.25,0l.67-.39a.08.08,0,0,0,0-.15l-.68-.39a.28.28,0,0,0-.25,0l-.67.39a.08.08,0,0,0,0,.15Z" transform="translate(-184.7 -97.7)"/><path class="cls-37" d="M353.42,187.69l.68.39a.28.28,0,0,0,.25,0l.67-.39a.08.08,0,0,0,0-.15l-.68-.39a.28.28,0,0,0-.25,0l-.67.39a.08.08,0,0,0,0,.15Z" transform="translate(-184.7 -97.7)"/><path class="cls-37" d="M352.36,188.3l.68.4a.28.28,0,0,0,.25,0l.67-.4c.07,0,.07-.1,0-.14l-.68-.39a.28.28,0,0,0-.25,0l-.67.39c-.07,0-.07.1,0,.14Z" transform="translate(-184.7 -97.7)"/><path class="cls-37" d="M351.3,188.92l.68.39a.25.25,0,0,0,.24,0l.68-.39c.07,0,.07-.1,0-.14l-.68-.4a.28.28,0,0,0-.25,0l-.67.4c-.07,0-.07.1,0,.14Z" transform="translate(-184.7 -97.7)"/><path class="cls-37" d="M350.24,189.54l.68.39a.25.25,0,0,0,.24,0l.68-.39a.08.08,0,0,0,0-.15l-.68-.39a.28.28,0,0,0-.25,0l-.67.39a.08.08,0,0,0,0,.15Z" transform="translate(-184.7 -97.7)"/><path class="cls-37" d="M355,190.52l.68.39a.28.28,0,0,0,.25,0l.67-.39a.08.08,0,0,0,0-.15l-.68-.39a.25.25,0,0,0-.24,0l-.68.39a.08.08,0,0,0,0,.15Z" transform="translate(-184.7 -97.7)"/><path class="cls-37" d="M343.76,198.28l.68.39a.28.28,0,0,0,.25,0l.84-.49c.07,0,.07-.1,0-.14l-.68-.39a.28.28,0,0,0-.25,0l-.84.48a.08.08,0,0,0,0,.15Z" transform="translate(-184.7 -97.7)"/><path class="cls-37" d="M343.73,193.32l.68.39a.28.28,0,0,0,.25,0l6.12-3.56c.07,0,.07-.1,0-.14l-.68-.39a.28.28,0,0,0-.25,0l-6.12,3.55a.08.08,0,0,0,0,.15Z" transform="translate(-184.7 -97.7)"/><path class="cls-37" d="M357.56,191.5l.18.1a.28.28,0,0,0,.25,0l.68-.39c.07,0,.07-.1,0-.14l-.19-.11a.25.25,0,0,0-.24,0l-.68.39a.08.08,0,0,0,0,.15Z" transform="translate(-184.7 -97.7)"/><path class="cls-37" d="M356.5,192.11l.18.11a.28.28,0,0,0,.25,0l.68-.39a.08.08,0,0,0,0-.15l-.19-.1a.25.25,0,0,0-.24,0l-.68.39c-.07,0-.07.1,0,.14Z" transform="translate(-184.7 -97.7)"/><path class="cls-37" d="M355.44,192.73l.18.11a.28.28,0,0,0,.25,0l.68-.4a.08.08,0,0,0,0-.14l-.19-.11a.28.28,0,0,0-.25,0l-.67.4c-.07,0-.07.1,0,.14Z" transform="translate(-184.7 -97.7)"/><path class="cls-37" d="M354.38,193.35l.18.1a.28.28,0,0,0,.25,0l.68-.39c.06,0,.06-.1,0-.14l-.18-.11a.28.28,0,0,0-.25,0l-.67.39a.08.08,0,0,0,0,.15Z" transform="translate(-184.7 -97.7)"/><path class="cls-37" d="M353.32,194l.18.11a.28.28,0,0,0,.25,0l.67-.39a.08.08,0,0,0,0-.15l-.18-.1a.28.28,0,0,0-.25,0l-.67.39c-.07,0-.07.1,0,.14Z" transform="translate(-184.7 -97.7)"/><path class="cls-37" d="M352.26,194.58l.18.11a.36.36,0,0,0,.25,0l.67-.4c.07,0,.07-.1,0-.14l-.18-.11a.28.28,0,0,0-.25,0l-.67.4c-.07,0-.07.1,0,.14Z" transform="translate(-184.7 -97.7)"/><path class="cls-37" d="M351.2,195.2l.18.1a.28.28,0,0,0,.25,0l.67-.39c.07,0,.07-.11,0-.14l-.18-.11a.28.28,0,0,0-.25,0l-.67.39a.08.08,0,0,0,0,.15Z" transform="translate(-184.7 -97.7)"/><path class="cls-37" d="M350.14,195.81l.18.11a.28.28,0,0,0,.25,0l.67-.4c.07,0,.07-.1,0-.14l-.18-.1a.28.28,0,0,0-.25,0l-.68.39c-.06,0-.06.1,0,.14Z" transform="translate(-184.7 -97.7)"/><path class="cls-37" d="M349.07,196.43l.19.1a.28.28,0,0,0,.25,0l.67-.39c.07,0,.07-.1,0-.14l-.18-.11a.28.28,0,0,0-.25,0l-.68.4a.08.08,0,0,0,0,.14Z" transform="translate(-184.7 -97.7)"/><path class="cls-37" d="M348,197.05l.19.1a.25.25,0,0,0,.24,0l.68-.39a.08.08,0,0,0,0-.15l-.18-.1a.28.28,0,0,0-.25,0l-.68.39a.08.08,0,0,0,0,.15Z" transform="translate(-184.7 -97.7)"/><path class="cls-37" d="M347,197.66l.19.11a.25.25,0,0,0,.24,0l.68-.4c.07,0,.07-.1,0-.14l-.18-.1a.28.28,0,0,0-.25,0l-.68.39c-.07,0-.07.1,0,.14Z" transform="translate(-184.7 -97.7)"/><path class="cls-37" d="M345.89,198.28l.19.1a.26.26,0,0,0,.24,0L347,198c.07,0,.07-.1,0-.14l-.18-.11a.28.28,0,0,0-.25,0l-.68.4c-.07,0-.07.1,0,.14Z" transform="translate(-184.7 -97.7)"/><path class="cls-37" d="M344.83,198.89l.18.11a.28.28,0,0,0,.25,0l.68-.39a.08.08,0,0,0,0-.15l-.19-.1a.25.25,0,0,0-.24,0l-.68.39c-.07,0-.07.11,0,.14Z" transform="translate(-184.7 -97.7)"/><path class="cls-37" d="M358.62,190.88l.19.11a.25.25,0,0,0,.24,0l.84-.49c.07,0,.07-.11,0-.14l-.18-.11a.28.28,0,0,0-.25,0l-.84.49c-.07,0-.07.1,0,.14Z" transform="translate(-184.7 -97.7)"/><path class="cls-37" d="M356,189.9l.68.39a.28.28,0,0,0,.25,0l1.28-.74c.07,0,.07-.11,0-.14l-.68-.4a.28.28,0,0,0-.25,0l-1.28.74a.08.08,0,0,0,0,.15Z" transform="translate(-184.7 -97.7)"/><path class="cls-37" d="M354.44,189.58l.68.4a.28.28,0,0,0,.25,0l1.8-1a.08.08,0,0,0,0-.15l-.68-.39a.28.28,0,0,0-.25,0l-1.8,1.05c-.07,0-.07.1,0,.14Z" transform="translate(-184.7 -97.7)"/><path class="cls-37" d="M353.36,189l.68.39a.25.25,0,0,0,.24,0l1.81-1c.07,0,.07-.1,0-.14l-.68-.39a.28.28,0,0,0-.25,0l-1.8,1c-.07,0-.07.1,0,.14Z" transform="translate(-184.7 -97.7)"/><path class="cls-37" d="M342.69,197.66l.68.39a.28.28,0,0,0,.25,0l1.3-.76c.07,0,.07-.1,0-.14l-.68-.39a.28.28,0,0,0-.25,0l-1.3.75a.08.08,0,0,0,0,.15Z" transform="translate(-184.7 -97.7)"/><path class="cls-37" d="M341.61,197l.69.39a.25.25,0,0,0,.24,0l1.83-1.06a.08.08,0,0,0,0-.15l-.68-.39a.25.25,0,0,0-.24,0l-1.84,1.06a.08.08,0,0,0,0,.15Z" transform="translate(-184.7 -97.7)"/><path class="cls-37" d="M341.05,195.45l.18.11a.28.28,0,0,0,.25,0l.68-.4a.08.08,0,0,0,0-.14l-.19-.1a.28.28,0,0,0-.25,0l-.67.39c-.07,0-.07.1,0,.14Z" transform="translate(-184.7 -97.7)"/><path class="cls-37" d="M340.55,195.16l.19.11a.25.25,0,0,0,.24,0l.68-.39a.08.08,0,0,0,0-.15l-.19-.1a.25.25,0,0,0-.24,0l-.68.39c-.07,0-.07.1,0,.14Z" transform="translate(-184.7 -97.7)"/><path class="cls-37" d="M344.89,195.13l.68.4a.31.31,0,0,0,.25,0l.68-.4a.08.08,0,0,0,0-.14l-.69-.39a.25.25,0,0,0-.24,0l-.68.39c-.07,0-.07.1,0,.14Z" transform="translate(-184.7 -97.7)"/><path class="cls-37" d="M343.83,195.75l.68.39a.28.28,0,0,0,.25,0l.68-.39c.06,0,.06-.1,0-.14l-.68-.4a.25.25,0,0,0-.24,0l-.68.4c-.07,0-.07.1,0,.14Z" transform="translate(-184.7 -97.7)"/><path class="cls-37" d="M343.81,194.51l.68.39a.28.28,0,0,0,.25,0l.67-.39a.08.08,0,0,0,0-.15l-.68-.39a.25.25,0,0,0-.24,0l-.68.39a.08.08,0,0,0,0,.15Z" transform="translate(-184.7 -97.7)"/><path class="cls-37" d="M342.75,195.12l.68.4a.28.28,0,0,0,.25,0l.67-.4c.07,0,.07-.1,0-.14l-.68-.39a.28.28,0,0,0-.25,0l-.67.39c-.07,0-.07.1,0,.14Z" transform="translate(-184.7 -97.7)"/><path class="cls-37" d="M341.69,195.74l.68.39a.28.28,0,0,0,.25,0l.67-.39c.07,0,.07-.1,0-.14l-.68-.4a.31.31,0,0,0-.25,0l-.67.4c-.07,0-.07.1,0,.14Z" transform="translate(-184.7 -97.7)"/><path class="cls-37" d="M340.53,196.41l.68.4a.28.28,0,0,0,.25,0l.77-.45a.08.08,0,0,0,0-.15l-.68-.39a.28.28,0,0,0-.25,0l-.77.45c-.07,0-.07.1,0,.14Z" transform="translate(-184.7 -97.7)"/><path class="cls-37" d="M347,193.9l.68.39a.28.28,0,0,0,.25,0l.68-.39c.07,0,.07-.1,0-.14l-.68-.4a.28.28,0,0,0-.25,0l-.68.4c-.07,0-.07.1,0,.14Z" transform="translate(-184.7 -97.7)"/><path class="cls-37" d="M346,194.52l.68.39a.28.28,0,0,0,.25,0l.68-.39a.08.08,0,0,0,0-.15l-.69-.39a.25.25,0,0,0-.24,0l-.68.39a.08.08,0,0,0,0,.15Z" transform="translate(-184.7 -97.7)"/><path class="cls-37" d="M345.93,193.27l.68.4a.28.28,0,0,0,.25,0l.68-.4a.08.08,0,0,0,0-.14l-.69-.39a.25.25,0,0,0-.24,0l-.68.39c-.07,0-.07.11,0,.14Z" transform="translate(-184.7 -97.7)"/><path class="cls-37" d="M344.87,193.89l.68.39a.28.28,0,0,0,.25,0l.68-.39c.06,0,.06-.1,0-.14l-.68-.39a.25.25,0,0,0-.24,0l-.68.39c-.07,0-.07.1,0,.14Z" transform="translate(-184.7 -97.7)"/><path class="cls-37" d="M349.13,192.67l.69.39a.25.25,0,0,0,.24,0l.68-.39a.08.08,0,0,0,0-.15l-.68-.39a.28.28,0,0,0-.25,0l-.68.39a.08.08,0,0,0,0,.15Z" transform="translate(-184.7 -97.7)"/><path class="cls-37" d="M348.07,193.28l.68.4a.28.28,0,0,0,.25,0l.68-.4c.07,0,.07-.1,0-.14l-.68-.39a.28.28,0,0,0-.25,0l-.68.39a.08.08,0,0,0,0,.14Z" transform="translate(-184.7 -97.7)"/><path class="cls-37" d="M348.05,192l.68.4a.36.36,0,0,0,.25,0l.68-.4c.07,0,.06-.1,0-.14l-.68-.39a.28.28,0,0,0-.25,0l-.68.39c-.07,0-.07.1,0,.14Z" transform="translate(-184.7 -97.7)"/><path class="cls-37" d="M347,192.66l.68.39a.28.28,0,0,0,.25,0l.68-.39a.08.08,0,0,0,0-.14l-.69-.4a.25.25,0,0,0-.24,0l-.68.4c-.07,0-.07.1,0,.14Z" transform="translate(-184.7 -97.7)"/><path class="cls-37" d="M351.26,191.43l.68.4a.25.25,0,0,0,.24,0l.68-.4c.07,0,.07-.1,0-.14l-.68-.39a.28.28,0,0,0-.25,0l-.67.39c-.07,0-.07.1,0,.14Z" transform="translate(-184.7 -97.7)"/><path class="cls-37" d="M350.2,192.05l.68.39a.25.25,0,0,0,.24,0l.68-.39c.07,0,.07-.1,0-.14l-.68-.4a.28.28,0,0,0-.25,0l-.68.4c-.06,0-.06.1,0,.14Z" transform="translate(-184.7 -97.7)"/><path class="cls-37" d="M350.17,190.81l.69.39a.25.25,0,0,0,.24,0l.68-.39c.07,0,.07-.1,0-.14l-.68-.4a.28.28,0,0,0-.25,0l-.68.4a.08.08,0,0,0,0,.14Z" transform="translate(-184.7 -97.7)"/><path class="cls-37" d="M349.11,191.43l.68.39a.28.28,0,0,0,.25,0l.68-.39a.08.08,0,0,0,0-.15l-.68-.39a.28.28,0,0,0-.25,0l-.68.39a.08.08,0,0,0,0,.15Z" transform="translate(-184.7 -97.7)"/><path class="cls-37" d="M353.38,190.2l.68.39a.28.28,0,0,0,.25,0l.67-.39c.07,0,.07-.1,0-.14l-.68-.4a.31.31,0,0,0-.25,0l-.67.4c-.07,0-.07.1,0,.14Z" transform="translate(-184.7 -97.7)"/><path class="cls-37" d="M352.32,190.82l.68.39a.28.28,0,0,0,.25,0l.67-.39a.08.08,0,0,0,0-.15l-.68-.39a.28.28,0,0,0-.25,0l-.67.39a.08.08,0,0,0,0,.15Z" transform="translate(-184.7 -97.7)"/><path class="cls-37" d="M352.3,189.58l.68.39a.25.25,0,0,0,.24,0l.68-.39a.08.08,0,0,0,0-.15l-.68-.39a.28.28,0,0,0-.25,0l-.67.39a.08.08,0,0,0,0,.15Z" transform="translate(-184.7 -97.7)"/><path class="cls-37" d="M351.23,190.19l.69.4a.25.25,0,0,0,.24,0l.68-.4c.07,0,.07-.1,0-.14l-.68-.39a.28.28,0,0,0-.25,0l-.68.39a.08.08,0,0,0,0,.14Z" transform="translate(-184.7 -97.7)"/><path class="cls-37" d="M342.67,193.93l.68.39a.28.28,0,0,0,.25,0l.68-.39c.07,0,.06-.1,0-.14l-.68-.39a.28.28,0,0,0-.25,0l-.68.39c-.07,0-.07.1,0,.14Z" transform="translate(-184.7 -97.7)"/><path class="cls-37" d="M341.61,194.55l.68.39a.28.28,0,0,0,.25,0l.68-.39a.08.08,0,0,0,0-.14l-.69-.4a.25.25,0,0,0-.24,0l-.68.39a.08.08,0,0,0,0,.15Z" transform="translate(-184.7 -97.7)"/><path class="cls-37" d="M339.46,195.8l.69.39a.25.25,0,0,0,.24,0l.68-.39a.08.08,0,0,0,0-.15l-.68-.39a.28.28,0,0,0-.25,0l-.68.39a.08.08,0,0,0,0,.15Z" transform="translate(-184.7 -97.7)"/><path class="cls-38" d="M340.85,205.72l4.58-2.64c.32-.19.28-.51-.09-.73l-6.2-3.58a1.44,1.44,0,0,0-1.26-.05l-4.58,2.64c-.32.19-.28.51.09.73l6.21,3.58A1.35,1.35,0,0,0,340.85,205.72Z" transform="translate(-184.7 -97.7)"/><path class="cls-34" d="M339.54,203.53s-2.1-1.23-2.28-1.37c-.43-.33-.33-.5-.16-.73a2.8,2.8,0,0,1,2.36-.72,3.79,3.79,0,0,1,2.29,1.79c.09.29,0,.5-.43.74A2,2,0,0,1,339.54,203.53Z" transform="translate(-184.7 -97.7)"/><path class="cls-39" d="M339.54,203.15s-2.1-1.23-2.28-1.37c-.43-.33-.33-.5-.16-.73a2.8,2.8,0,0,1,2.36-.72,3.79,3.79,0,0,1,2.29,1.79c.09.29,0,.5-.43.74A2,2,0,0,1,339.54,203.15Z" transform="translate(-184.7 -97.7)"/><path class="cls-3" d="M375.29,196.51l-5.14-3a1.25,1.25,0,0,0-1.13,0l-.36.22-.37-.22a1.25,1.25,0,0,0-1.13,0l-14.31,8.24c-.32.18-.31.47,0,.66l5.14,3a1,1,0,0,0,.65.07,8.1,8.1,0,0,0,2-.07L375.29,197C375.52,196.85,375.52,196.64,375.29,196.51Z" transform="translate(-184.7 -97.7)"/><path class="cls-34" d="M371.21,197.69l-3.36-9.88-2.79,1.61v0l0,5.95-.19,0a2.24,2.24,0,0,0-1.38.29L359,198.07a.81.81,0,0,0-.26.26l-.13,0v.48a.82.82,0,0,0,.4.7l4.61,2.66,0,0a2.62,2.62,0,0,0,.62.26h0l.16,0a2,2,0,0,0,.35.05,2.68,2.68,0,0,0,1.33-.25l.08,0,.12-.06,1.91-1.1,2.15-1.24a2.06,2.06,0,0,0,.37-.29,1.67,1.67,0,0,0,.33-.47,1,1,0,0,0,.09-.21,1,1,0,0,0,.06-.23A1.82,1.82,0,0,0,371.21,197.69Z" transform="translate(-184.7 -97.7)"/><path class="cls-40" d="M375.24,170.69l-.78-.54h0a.53.53,0,0,0-.53.07l-20.16,11.64a1.9,1.9,0,0,0-.86,1.29l-1.4,15.46a.65.65,0,0,0,.23.65h0l.74.51.84-1.07L372,187.9a2.67,2.67,0,0,0,1.21-1.83l1.31-14.49Z" transform="translate(-184.7 -97.7)"/><path class="cls-34" d="M375.39,171.14,374,186.59a2.67,2.67,0,0,1-1.21,1.83l-19.51,11.27c-.61.35-1.06.1-1-.56l1.4-15.45a1.66,1.66,0,0,1,.25-.69,1.84,1.84,0,0,1,.6-.61l20.16-11.64a.53.53,0,0,1,.56-.05A.47.47,0,0,1,375.39,171.14Z" transform="translate(-184.7 -97.7)"/><path class="cls-36" d="M370.74,197.24l-2.82-9.34-2.71,1.56-.46,5.54a2.22,2.22,0,0,0-1.53.25l-4.2,2.42a.79.79,0,0,0,0,1.36l4.4,2.54a2.64,2.64,0,0,0,2.61,0l3.94-2.28A1.71,1.71,0,0,0,370.74,197.24Z" transform="translate(-184.7 -97.7)"/><path class="cls-41" d="M365.82,187.23c-5.36,3.56-9.34,0-11.9-4.24a1.84,1.84,0,0,1,.6-.61l20.16-11.64a.53.53,0,0,1,.56-.05S376,180.48,365.82,187.23Z" transform="translate(-184.7 -97.7)"/><path class="cls-42" d="M371.41,198.61a1,1,0,0,1-.06.23,1.8,1.8,0,0,1-.08.21,1.94,1.94,0,0,1-.34.47,1.76,1.76,0,0,1-.37.29l-2.15,1.24-1.9,1.1-.13.06-.08,0a2.85,2.85,0,0,1-1.32.25,2.23,2.23,0,0,1-.36-.05l-.15,0h0V202c.39.06.73-.12.73-.87h0l0-11.72v0l2.78-1.61,3.36,9.88A1.71,1.71,0,0,1,371.41,198.61Z" transform="translate(-184.7 -97.7)"/><path class="cls-34" d="M365.17,201.17v.89c0,.17-.22.33-.33.44h0a2,2,0,0,1-.35-.05l-.16,0h0a2.62,2.62,0,0,1-.62-.26l0,0c-.1-.2-.25-.58.08-.41.88.43,1-.28,1-.28l0-6.26v-2.12l.46-3.6Z" transform="translate(-184.7 -97.7)"/><path class="cls-15" d="M322.41,192.06c1.47,3,15.64,1.78,16.6,1.84s1.23.68,2,1.09a8.26,8.26,0,0,0,2.17.62s1.06-.31,1.57-.49a1.28,1.28,0,0,0,.69-.78l.52.19.84-.15.43-.62-1.15-.48L344,191.52a14.09,14.09,0,0,0,1.65,1c.36.12,1.24.08,1.26-.12s0-.36-.81-.72-1.16-.83-1.87-.85-2.07.07-4.75.31-13.67-2-13.67-2-3.39.86-3.45,2.55A.76.76,0,0,0,322.41,192.06Z" transform="translate(-184.7 -97.7)"/><path class="cls-43" d="M322.41,192.06c1.47,3,15.64,1.78,16.6,1.84s1.23.68,2,1.09a8.26,8.26,0,0,0,2.17.62s1.06-.31,1.57-.49a1.28,1.28,0,0,0,.69-.78l-1.11-.8-.53-.27s.14.71.38.83,1,.45,1,.45l-.52.46s-1.31.43-1.59.46a11.06,11.06,0,0,1-2.64-1.13,3.86,3.86,0,0,0-1.12-.63c-1.13.13-8.65.15-10.26.08a25.3,25.3,0,0,1-4.72-.62,2.76,2.76,0,0,1-2-1.47A.76.76,0,0,0,322.41,192.06Z" transform="translate(-184.7 -97.7)"/><path class="cls-15" d="M346.08,189a5.29,5.29,0,0,0,.34.81h0a2.82,2.82,0,0,0,.69.55c.45.22,1.35,1.36,1.57,1.42s.42-.19.66-.13a.15.15,0,0,0,.13,0h0a.1.1,0,0,0,.05,0h0l0,0,0-.05h0l0,0a.93.93,0,0,0,.09-.17l.15-.1.25-.15s0,0,0,0h0s0,0,0,0l.07,0,0,0h.2a.8.8,0,0,0,.3-.14,8.77,8.77,0,0,0,1.06-1.11.5.5,0,0,0,.05-.58,3.07,3.07,0,0,1-.2-.45h0a.14.14,0,0,0,0-.06,5.62,5.62,0,0,0-.65-.86l0,0c-.28-.31-.58-.63-.77-.82a.3.3,0,0,0-.08-.08v0l-.05,0,0,0h0l-.48.08a2.36,2.36,0,0,0-.67-.29c-.23,0-.7.34-1.15.33h0c-.47.32-.93.27-1.17.54S345.87,188.39,346.08,189Z" transform="translate(-184.7 -97.7)"/><path class="cls-43" d="M348.79,191.28a3.15,3.15,0,0,0-.34-1c-.23-.37-.77-1-.77-1s-.21-1-.07-1.15.5-.51.5-.51.72,1,.81,1.18a3.8,3.8,0,0,1,0,1,1.51,1.51,0,0,0-.08,1,6.2,6.2,0,0,1,.28.94Z" transform="translate(-184.7 -97.7)"/><path class="cls-43" d="M350.74,190.4a7.57,7.57,0,0,1-.55.67.36.36,0,0,0,.13.08c.06-.18.79-1,.85-1.07a8.37,8.37,0,0,0,.5-1.13,4.27,4.27,0,0,0-.62-1l0,0a7.65,7.65,0,0,1,.4.9A5.58,5.58,0,0,1,350.74,190.4Z" transform="translate(-184.7 -97.7)"/><path class="cls-43" d="M349.67,191.46a.93.93,0,0,0,.09-.17l.15-.1c-.09,0-.12-.07-.08-.17l.28-.91a8.23,8.23,0,0,0,.46-1.33,2.85,2.85,0,0,0-1.25-1.5,5.4,5.4,0,0,1,.93,1.26,13.46,13.46,0,0,1-.57,2.33S349.75,191.32,349.67,191.46Z" transform="translate(-184.7 -97.7)"/><path class="cls-44" d="M340.65,233.36v2.42c0,1.21,1.27,1.08,2-.2l2.12-3.65c.74-1.28.22-2.44-.84-1.83l-2.11,1.22A2.59,2.59,0,0,0,340.65,233.36Z" transform="translate(-184.7 -97.7)"/><path class="cls-44" d="M350.52,236.27v-2.42c0-1.21-1.28-1.08-2,.2l-2.12,3.65c-.74,1.28-.21,2.44.84,1.83l2.12-1.22A2.62,2.62,0,0,0,350.52,236.27Z" transform="translate(-184.7 -97.7)"/><path class="cls-45" d="M340.65,233.36v2.42c0,1.21,1.27,1.08,2-.2l2.12-3.65c.74-1.28.22-2.44-.84-1.83l-2.11,1.22A2.59,2.59,0,0,0,340.65,233.36Z" transform="translate(-184.7 -97.7)"/><path class="cls-45" d="M350.52,236.27v-2.42c0-1.21-1.28-1.08-2,.2l-2.12,3.65c-.74,1.28-.21,2.44.84,1.83l2.12-1.22A2.62,2.62,0,0,0,350.52,236.27Z" transform="translate(-184.7 -97.7)"/><path class="cls-46" d="M341.83,242.65l2.11-1.23c1.06-.6,1.58-2.37.84-2.79l-2.12-1.21c-.74-.42-2,.92-2,2.13V242C340.65,242.72,341.17,243,341.83,242.65Z" transform="translate(-184.7 -97.7)"/><path class="cls-46" d="M349.34,227l-2.12,1.23c-1.05.6-1.58,2.37-.84,2.79l2.12,1.21c.74.42,2-.92,2-2.13v-2.42C350.52,226.91,350,226.61,349.34,227Z" transform="translate(-184.7 -97.7)"/><path class="cls-47" d="M353.87,225l1.56-.9c1.16-.67,2.11-.13,2.11,1.21a4.65,4.65,0,0,1-2.11,3.63l-1.56.9Zm1.1,3,.47-.27a2.23,2.23,0,0,0,1-1.73c0-.63-.45-.88-1-.56l-.47.26Z" transform="translate(-184.7 -97.7)"/><path class="cls-47" d="M358.31,222.42l2.61-1.51V222l-1.51.87v.79l1.34-.77v1.07l-1.34.77v.89l1.51-.87v1l-2.61,1.51Z" transform="translate(-184.7 -97.7)"/><path class="cls-47" d="M361.72,220.45l1.1-.64v3.56l1.52-.87v1.28l-2.62,1.51Z" transform="translate(-184.7 -97.7)"/><path class="cls-47" d="M365.13,218.48l1.11-.64v4.84l-1.11.64Z" transform="translate(-184.7 -97.7)"/><path class="cls-47" d="M371.15,215l-2,6-.51.29-2-3.71,1.11-.64,1.11,2.11,1.11-3.39Z" transform="translate(-184.7 -97.7)"/><path class="cls-47" d="M371.64,214.72l2.61-1.51v1.06l-1.51.87v.79l1.34-.78v1.08l-1.34.77v.89l1.51-.87v1l-2.61,1.52Z" transform="translate(-184.7 -97.7)"/><path class="cls-47" d="M377.49,216.18l-.65-.9-.68.39V217l-1.11.63v-4.84l1.77-1c.86-.49,1.55-.09,1.55.89a3.15,3.15,0,0,1-.5,1.59l.9,1.24Zm-1.33-1.61.68-.39a1.32,1.32,0,0,0,.61-1c0-.39-.27-.54-.61-.35l-.68.4Z" transform="translate(-184.7 -97.7)"/><path class="cls-47" d="M381.36,212.17V214l-1.1.64v-1.78l-1.54-2.18,1.28-.73.8,1.14.82-2.08,1.27-.73Z" transform="translate(-184.7 -97.7)"/><path class="cls-47" d="M354.86,232.39c0-.15-.11-.21-.23-.13a.49.49,0,0,0-.23.39c0,.14.1.2.23.13a.59.59,0,0,1,.72,0,.7.7,0,0,1,.2.55,2,2,0,0,1-.92,1.6c-.52.29-.93.07-.93-.54l.7-.41c0,.15.1.21.23.13a.5.5,0,0,0,.23-.39.14.14,0,0,0-.23-.13c-.52.3-.93.07-.93-.52a2,2,0,0,1,.93-1.6c.51-.3.92-.07.92.52Z" transform="translate(-184.7 -97.7)"/><path class="cls-47" d="M356.12,230.6l1.87-1.08v.75l-1.08.62v.57l.95-.56v.77l-.95.55v.64l1.08-.63V233l-1.87,1.09Z" transform="translate(-184.7 -97.7)"/><path class="cls-47" d="M360.3,231.64l-.47-.65-.48.28v.92l-.8.46v-3.46l1.27-.73c.61-.35,1.11-.07,1.11.63a2.28,2.28,0,0,1-.36,1.14l.64.88Zm-.95-1.15.48-.28a.93.93,0,0,0,.44-.75c0-.27-.19-.38-.44-.24l-.48.28Z" transform="translate(-184.7 -97.7)"/><path class="cls-47" d="M364.39,225.82,363,230.09l-.36.21-1.4-2.65.79-.46.79,1.51.8-2.43Z" transform="translate(-184.7 -97.7)"/><path class="cls-47" d="M364.73,225.63l.79-.46v3.46l-.79.45Z" transform="translate(-184.7 -97.7)"/><path class="cls-47" d="M368.06,224.84a.5.5,0,0,0-.5.07,1.5,1.5,0,0,0-.71,1.22c0,.47.3.64.71.4a1.39,1.39,0,0,0,.5-.52l.57.31a3.15,3.15,0,0,1-1.07,1.13c-.83.48-1.51.1-1.51-.86a3.34,3.34,0,0,1,1.51-2.6,1.09,1.09,0,0,1,1.06-.11Z" transform="translate(-184.7 -97.7)"/><path class="cls-47" d="M369.23,223,371.1,222v.75l-1.08.62v.57l1-.56v.77l-1,.55v.64l1.08-.63v.74l-1.87,1.09Z" transform="translate(-184.7 -97.7)"/><polygon class="cls-3" points="136.59 127.49 124.98 120.78 136.59 114.08 140.45 127.49 136.59 127.49"/><polygon class="cls-31" points="140.45 127.49 152.07 120.78 152.07 112.45 140.45 119.16 140.45 127.49"/><polygon class="cls-33" points="140.45 127.49 128.83 120.78 128.83 112.45 140.45 119.16 140.45 127.49"/><polygon class="cls-48" points="128.83 112.45 140.45 119.16 134.18 115.81 128.83 112.45"/><polygon class="cls-49" points="140.45 119.16 128.83 112.45 140.45 105.74 152.07 112.45 140.45 119.16"/><polygon class="cls-10" points="135.46 121.54 133.6 120.47 133.6 115.2 135.46 116.28 135.46 121.54"/><polygon class="cls-50" points="135.46 116.28 147.08 109.57 145.21 108.49 133.6 115.2 135.46 116.28"/><polygon class="cls-13" points="134.6 115.78 146.22 109.07 146.09 109 134.47 115.7 134.6 115.78"/><path class="cls-3" d="M378.36,256.68c5.74-3.31,15-3.33,20.72,0s5.68,8.65-.06,12-15,3.33-20.72,0S372.62,260,378.36,256.68Z" transform="translate(-184.7 -97.7)"/><path class="cls-15" d="M398.65,192.13a3.53,3.53,0,0,1,2.65,1.8c1.06,1.74,1.57,14.25-.27,16.63-1.42,1-7-1.08-7-1.08Z" transform="translate(-184.7 -97.7)"/><path class="cls-51" d="M396.88,192.45a2.79,2.79,0,0,1,2.78,0c1.78.8,2.53,3,2.67,3.6s.16,7.49.16,7.49-.83,2-4.08,1.16S396.88,192.45,396.88,192.45Z" transform="translate(-184.7 -97.7)"/><path class="cls-52" d="M392.85,255.69a7.66,7.66,0,0,0-3.21-1.07c-1.34,0-1.24,1.65-1,2.39s2.56,2.71,2.56,2.71l1.07,1.08a14.41,14.41,0,0,0,1.54,1.53,2.53,2.53,0,0,0,2.2.13c.72-.3.87-.45.91-.51a5.05,5.05,0,0,0,.05-3C396.47,257.49,392.85,255.69,392.85,255.69Z" transform="translate(-184.7 -97.7)"/><path class="cls-53" d="M398.93,219.18a12.56,12.56,0,0,1-.4,7.7,41.14,41.14,0,0,0-2,10.54c0,1.16.84,5.67,1,8.52s.14,6.53.07,9.4a42.22,42.22,0,0,1-.26,4.23,2.49,2.49,0,0,1-2.2,1,6.12,6.12,0,0,1-3.58-1.93,8.26,8.26,0,0,1,.17-2.27,30.42,30.42,0,0,0,0-8.37c-.64-3.83-2-9.73-2-11.61s1.16-10.23,1.16-10.23Z" transform="translate(-184.7 -97.7)"/><path class="cls-52" d="M378.19,263.5c.29.68.63,1.68,3,2.31s3.08.43,3.6.66,1.49.75,1.79.81a6.46,6.46,0,0,0,2.8.05,1.86,1.86,0,0,0,1.11-1,1.58,1.58,0,0,0,.06-.23,6,6,0,0,0,0-2c-.2-.28-4.82-2.89-4.82-2.89s-3.89.12-4.72.09a7.51,7.51,0,0,0-2.36.22,2.07,2.07,0,0,0-.47,1.12A1.6,1.6,0,0,0,378.19,263.5Z" transform="translate(-184.7 -97.7)"/><path class="cls-15" d="M385.22,261.57a6.4,6.4,0,0,0-2.09.25c-.44.29-.79,1.28.05,2.52a3,3,0,0,0,2.42,1.36,2.23,2.23,0,0,0,1.51-.31,8.06,8.06,0,0,0,.1-2.5Z" transform="translate(-184.7 -97.7)"/><path class="cls-54" d="M378.19,263.5c.29.68.63,1.68,3,2.31s3.08.43,3.6.66,1.49.75,1.79.81a6.46,6.46,0,0,0,2.8.05,1.86,1.86,0,0,0,1.11-1,.86.86,0,0,0-.36.22c-.66.69-2.75.53-3.45.28a7.68,7.68,0,0,0-2.41-.59,21.81,21.81,0,0,1-2.48-.56,7.28,7.28,0,0,1-2.82-1.38,3.59,3.59,0,0,1-.83-1.68A1.6,1.6,0,0,0,378.19,263.5Z" transform="translate(-184.7 -97.7)"/><path class="cls-55" d="M396.06,226.88a5.71,5.71,0,0,1-.71,3.26c-.91,1.47-3.81,3.54-4,4.61a43.28,43.28,0,0,0-1.11,10.49,108,108,0,0,1,.44,11.13c-.12,4.62-.06,8-.06,8a3.15,3.15,0,0,1-3,1,3.47,3.47,0,0,1-3.08-2.5c0-.64-.55-12.07-1.51-17.52s-2.21-15.75-1.3-19.62S396.06,226.88,396.06,226.88Z" transform="translate(-184.7 -97.7)"/><path class="cls-56" d="M381.13,225.89s1.21,2.56,5.25,2.9a16.81,16.81,0,0,0,10-2.41c1.67-1.25,2.38-1.49,3-2.45s.46-4.41.37-5.85-1-3.41-.39-6.46,1.91-8.5,2.14-12.86-1.37-5.86-1.83-6.27-3.12-.77-4.62-.64-5.45,1.07-7.19,2.48-4.77,3-5.64,6,.05,13.32.14,16.33S381.13,225.89,381.13,225.89Z" transform="translate(-184.7 -97.7)"/><path class="cls-15" d="M385.41,198.58s2.35.53,2.19,3.89a21.4,21.4,0,0,1-3.88,10.59c-2.24,3.21-2.6,4.15-4,4.5s-2.53-3.63-1.76-5.31a54.21,54.21,0,0,0,2.73-6.63C381.44,203.21,382.55,196.78,385.41,198.58Z" transform="translate(-184.7 -97.7)"/><path class="cls-15" d="M369.58,207.47a9.7,9.7,0,0,1,1.49,1c.18.26,0,.23.41.57a67.67,67.67,0,0,0,6.57,3.08c.32,0,3.21,6,1.49,5.47a20.8,20.8,0,0,1-6.34-3.52c-1.43-1.35-2.76-3-3.94-3.59s-2.24-.72-2.93-1.22a36.28,36.28,0,0,1-3.5-2.83c-.2-.35.49-.6.49-.6a1.68,1.68,0,0,1,.44-.2,3.35,3.35,0,0,1,.5.12.64.64,0,0,1,.7,0c.39.21,2.65,1.62,3,1.76S369.27,207.29,369.58,207.47Z" transform="translate(-184.7 -97.7)"/><path class="cls-57" d="M366.64,207.86l-.45-.9s-.69-.36-.68-.93.3-.62.3-.62.44.28.51.46a2.31,2.31,0,0,0,.17.34,8.61,8.61,0,0,1,.95.65c.1.12,1.43.69,1.7,1.38s-.74,1.15-1.23,1S367,209,366.64,207.86Z" transform="translate(-184.7 -97.7)"/><path class="cls-15" d="M395.5,184.92a22.2,22.2,0,0,0-.68,4.58,3.92,3.92,0,0,0,.62,2.06c.31.36.57.62.57.62s-.15,1.12-3,1.57-4.2.42-4.56.52l-.36.09.39-.45s-.36-3.18-.48-3.56-.81-.09-1.64-.27a1,1,0,0,1-.9-1c-.05-.3-.35-3.5-.38-3.75a2.8,2.8,0,0,0-.48-.85l.49-.86a1.89,1.89,0,0,1-.45-1.08c0-.6.17-3.14.84-3.93s5.06-1.23,6.24-.85A6.71,6.71,0,0,1,395.5,184.92Z" transform="translate(-184.7 -97.7)"/><path class="cls-24" d="M385.48,179.83a.84.84,0,0,1,.16.51c0,.36-.34.71-.33,1.25s.12,1.59.12,1.59a.71.71,0,0,1,.65.5,10.41,10.41,0,0,1,.32,1.26v.51l.5.16s.14-1.24,1-1a3.3,3.3,0,0,1,2.11,1.79c.47,1,.59,1.76,1.09,2.09a4.76,4.76,0,0,0,2.71.18,3.33,3.33,0,0,0,1.06-.51,17,17,0,0,0,2.05-4.25c1.09-3,.48-4.79.08-5.38a4.36,4.36,0,0,0-1.6-1.07s.08-1.33-3-2-6.75,1.91-7.17,2.35a3.32,3.32,0,0,0-.5,1.61Z" transform="translate(-184.7 -97.7)"/><path class="cls-58" d="M387.25,185.27a.92.92,0,0,1,.12-.86c.31-.39,1.17.23,1.29,1.37s-.11,1.92-.56,2.17-.67-.48-.67-.48A2.49,2.49,0,0,0,387.25,185.27Z" transform="translate(-184.7 -97.7)"/><path class="cls-51" d="M378.37,208.76a3.89,3.89,0,0,0,2.07,2.18,11.79,11.79,0,0,0,4.36,1,43.2,43.2,0,0,0,2.88-6.62c.44-2,.82-4.08-1.16-6.12a2.53,2.53,0,0,0-4.18.21c-.47.72-4.28,8.71-4.28,8.71Z" transform="translate(-184.7 -97.7)"/><polygon class="cls-30" points="21.8 97.44 26.48 100.08 25.58 101.61 20.91 98.98 21.8 97.44"/><polygon class="cls-30" points="34.31 91.03 39.04 93.7 39.85 92.12 35.23 89.51 34.31 91.03"/><polygon class="cls-3" points="49.11 158.36 25.6 144.78 39.13 136.97 62.64 150.55 49.11 158.36"/><polygon class="cls-3" points="27.96 153.34 12.31 144.31 27.2 135.71 40.61 135.71 44.46 153.34 27.96 153.34"/><polygon class="cls-3" points="27.07 146.5 45.41 135.91 38 131.63 19.66 142.22 27.07 146.5"/><path class="cls-30" d="M220.12,187.62a1.39,1.39,0,0,1-.63,1.09c-.35.2-.63,0-.63-.36a1.4,1.4,0,0,1,.63-1.09C219.84,187.06,220.12,187.22,220.12,187.62Z" transform="translate(-184.7 -97.7)"/><path class="cls-30" d="M206.69,195.55a1.39,1.39,0,0,1-.63,1.09c-.35.2-.63,0-.63-.36a1.39,1.39,0,0,1,.63-1.09C206.41,195,206.69,195.15,206.69,195.55Z" transform="translate(-184.7 -97.7)"/><path class="cls-59" d="M224.84,189.38l-.41-.23h0l0,0h0a.7.7,0,0,0-.67.08,2.21,2.21,0,0,0-1,1.73.68.68,0,0,0,.29.64h0l.41.24.15-.24.15-.07a2.23,2.23,0,0,0,1-1.74c0-.05,0-.1,0-.15Z" transform="translate(-184.7 -97.7)"/><path class="cls-30" d="M225.14,190a2.21,2.21,0,0,1-1,1.73c-.56.32-1,.07-1-.57a2.21,2.21,0,0,1,1-1.73C224.69,189.14,225.14,189.4,225.14,190Z" transform="translate(-184.7 -97.7)"/><path class="cls-4" d="M224.77,190.25a1.39,1.39,0,0,1-.63,1.09c-.35.2-.63,0-.63-.36a1.39,1.39,0,0,1,.63-1.09C224.49,189.69,224.77,189.85,224.77,190.25Z" transform="translate(-184.7 -97.7)"/><path class="cls-59" d="M211.42,197.31l-.42-.24h0a.75.75,0,0,0-.68.09,2.21,2.21,0,0,0-1,1.73.71.71,0,0,0,.29.64h0l.42.24.14-.24.15-.07a2.19,2.19,0,0,0,1-1.73.61.61,0,0,0,0-.15Z" transform="translate(-184.7 -97.7)"/><path class="cls-30" d="M211.72,198a2.21,2.21,0,0,1-1,1.73c-.55.32-1,.06-1-.57a2.23,2.23,0,0,1,1-1.74C211.27,197.06,211.72,197.32,211.72,198Z" transform="translate(-184.7 -97.7)"/><path class="cls-4" d="M211.34,198.17a1.39,1.39,0,0,1-.63,1.09c-.35.2-.63,0-.63-.36a1.39,1.39,0,0,1,.63-1.09C211.06,197.61,211.34,197.77,211.34,198.17Z" transform="translate(-184.7 -97.7)"/><path class="cls-59" d="M221.79,225.54a7.74,7.74,0,0,0,3.52,6.08c1.95,1.13,3.53.23,3.53-2a7.78,7.78,0,0,0-3.53-6.08C223.36,222.41,221.79,223.31,221.79,225.54Z" transform="translate(-184.7 -97.7)"/><polygon class="cls-59" points="38.25 125.51 36.59 126.46 41.68 134.99 43.29 134.05 41.9 128.26 38.25 125.51"/><path class="cls-30" d="M220.28,226.41a7.76,7.76,0,0,0,3.52,6.08c1.95,1.13,3.53.23,3.53-2a7.78,7.78,0,0,0-3.53-6.08C221.86,223.28,220.28,224.18,220.28,226.41Z" transform="translate(-184.7 -97.7)"/><path class="cls-4" d="M221.59,227.17A4.89,4.89,0,0,0,223.8,231c1.23.71,2.22.14,2.22-1.26a4.88,4.88,0,0,0-2.22-3.83C222.58,225.2,221.59,225.76,221.59,227.17Z" transform="translate(-184.7 -97.7)"/><polygon class="cls-60" points="44.46 136.16 38.61 130.41 39.11 130.12 44.46 131.51 44.46 136.16"/><polygon class="cls-6" points="43.97 136.45 38.61 131.65 38.61 130.41 43.97 131.79 43.97 136.45"/><polygon class="cls-4" points="62.64 145.96 49.11 153.77 49.11 154.47 62.64 146.66 62.64 145.96"/><path class="cls-4" d="M230,234.08h-1V198.7a8.62,8.62,0,0,0-1.74-4.79,7.6,7.6,0,0,0-2.29-2.16l-1.08-.62.51-.88,1.07.63a8.62,8.62,0,0,1,2.61,2.43A9.67,9.67,0,0,1,230,198.7Z" transform="translate(-184.7 -97.7)"/><path class="cls-5" d="M229.56,217.8a.17.17,0,0,0,.06-.14.49.49,0,0,0-.22-.37.17.17,0,0,0-.15,0h0l-13.61,7.86.28.54,13.64-7.87h0Z" transform="translate(-184.7 -97.7)"/><path class="cls-5" d="M229.56,203.45a.16.16,0,0,0,.06-.13.49.49,0,0,0-.22-.38c-.06,0-.11,0-.15,0h0l-13.61,7.86.28.54,13.64-7.87h0Z" transform="translate(-184.7 -97.7)"/><polygon class="cls-60" points="30.6 139.04 30.6 142.99 44.13 135.18 44.13 131.23 30.6 139.04"/><path class="cls-5" d="M224.06,228.7a.27.27,0,0,0,.1-.23.81.81,0,0,0-.37-.64.26.26,0,0,0-.25,0h0l-12.34,7.13.48.92,12.38-7.14h0Z" transform="translate(-184.7 -97.7)"/><polygon class="cls-60" points="31.42 143.69 26.07 138.89 26.07 137.65 31.42 139.04 31.42 143.69"/><polygon class="cls-6" points="49.11 153.77 30.93 143.27 44.46 135.46 62.64 145.96 49.11 153.77"/><polygon class="cls-5" points="30.93 139.32 30.93 143.27 44.46 135.46 44.46 131.51 30.93 139.32"/><polygon class="cls-6" points="30.93 143.97 25.58 139.18 25.58 137.94 30.93 139.32 30.93 143.97"/><polygon class="cls-4" points="49.11 153.77 30.93 143.27 30.93 143.97 49.11 154.47 49.11 153.77"/><path class="cls-4" d="M216.5,241.89h-1V206.51a8.62,8.62,0,0,0-1.74-4.79,7.73,7.73,0,0,0-2.29-2.16l-1.08-.62.5-.88,1.08.63a8.62,8.62,0,0,1,2.61,2.43,9.67,9.67,0,0,1,1.93,5.39Z" transform="translate(-184.7 -97.7)"/><path class="cls-59" d="M206.75,234.24a7.76,7.76,0,0,0,3.52,6.08c1.95,1.13,3.53.23,3.53-2a7.75,7.75,0,0,0-3.53-6.07C208.33,231.11,206.75,232,206.75,234.24Z" transform="translate(-184.7 -97.7)"/><polygon class="cls-59" points="28.16 142.82 26.57 143.74 24.85 140.04 21.45 135.23 23.15 134.24 28.16 142.82"/><path class="cls-30" d="M205.24,235.11a7.75,7.75,0,0,0,3.53,6.08c1.94,1.13,3.52.23,3.52-2a7.8,7.8,0,0,0-3.52-6.08C206.82,232,205.24,232.88,205.24,235.11Z" transform="translate(-184.7 -97.7)"/><path class="cls-4" d="M206.55,235.87a4.86,4.86,0,0,0,2.22,3.82c1.22.71,2.21.14,2.21-1.26a4.9,4.9,0,0,0-2.21-3.83C207.54,233.9,206.55,234.46,206.55,235.87Z" transform="translate(-184.7 -97.7)"/><path class="cls-30" d="M208.23,236.84a1.18,1.18,0,0,0,.54.93c.3.17.54,0,.54-.31a1.18,1.18,0,0,0-.54-.93C208.47,236.35,208.23,236.49,208.23,236.84Z" transform="translate(-184.7 -97.7)"/><polygon class="cls-7" points="45.52 151.11 58.06 143.87 58.06 134.88 45.52 142.12 45.52 151.11"/><polygon class="cls-8" points="45.52 151.11 32.98 143.87 32.98 134.88 45.52 142.12 45.52 151.11"/><polygon class="cls-9" points="45.52 142.12 32.98 134.88 45.52 127.64 58.06 134.88 45.52 142.12"/><polygon class="cls-10" points="40.13 144.69 38.12 143.53 38.12 137.84 40.13 139 40.13 144.69"/><polygon class="cls-11" points="40.13 139 52.67 131.76 50.66 130.6 38.12 137.84 40.13 139"/><polygon class="cls-12" points="32.98 134.88 45.52 142.12 38.75 138.5 32.98 134.88"/><polygon class="cls-13" points="39.2 138.47 51.74 131.23 51.6 131.15 39.06 138.39 39.2 138.47"/><polygon class="cls-7" points="45.52 141.81 58.06 134.57 58.06 125.58 45.52 132.82 45.52 141.81"/><polygon class="cls-8" points="45.52 141.81 32.98 134.57 32.98 125.58 45.52 132.82 45.52 141.81"/><polygon class="cls-9" points="45.52 132.82 32.98 125.58 45.52 118.34 58.06 125.58 45.52 132.82"/><polygon class="cls-10" points="40.13 135.4 38.12 134.23 38.12 128.55 40.13 129.71 40.13 135.4"/><polygon class="cls-11" points="40.13 129.71 52.67 122.47 50.66 121.31 38.12 128.55 40.13 129.71"/><polygon class="cls-12" points="32.98 125.58 45.52 132.82 38.75 129.2 32.98 125.58"/><polygon class="cls-13" points="39.2 129.17 51.74 121.93 51.6 121.85 39.06 129.09 39.2 129.17"/><polygon class="cls-7" points="45.52 132.52 58.06 125.28 58.06 116.29 45.52 123.53 45.52 132.52"/><polygon class="cls-8" points="45.52 132.52 32.98 125.28 32.98 116.29 45.52 123.53 45.52 132.52"/><polygon class="cls-9" points="45.52 123.53 32.98 116.29 45.52 109.05 58.06 116.29 45.52 123.53"/><polygon class="cls-10" points="40.13 126.1 38.12 124.94 38.12 119.26 40.13 120.42 40.13 126.1"/><polygon class="cls-11" points="40.13 120.42 52.67 113.18 50.66 112.02 38.12 119.26 40.13 120.42"/><polygon class="cls-12" points="32.98 116.29 45.52 123.53 38.75 119.91 32.98 116.29"/><polygon class="cls-13" points="39.2 119.88 51.74 112.64 51.6 112.56 39.06 119.8 39.2 119.88"/><path class="cls-12" d="M229.77,243.23l-2.72-1.57v-3.13l2.72,1.57Zm-2.54-1.68,2.36,1.37v-2.71l-2.36-1.37Z" transform="translate(-184.7 -97.7)"/><polygon class="cls-12" points="44.01 144.52 43.41 144.18 43.41 142.6 44.01 142.95 44.01 144.52"/><polygon class="cls-12" points="44.6 143.59 42.82 142.56 43.71 142 44.6 143.59"/><path class="cls-12" d="M229.77,234l-2.72-1.57v-3.13l2.72,1.57Zm-2.54-1.68,2.36,1.37V231l-2.36-1.37Z" transform="translate(-184.7 -97.7)"/><polygon class="cls-12" points="44.01 135.31 43.41 134.97 43.41 133.39 44.01 133.74 44.01 135.31"/><polygon class="cls-12" points="44.6 134.38 42.82 133.35 43.71 132.79 44.6 134.38"/><path class="cls-12" d="M229.77,224.81l-2.72-1.57v-3.13l2.72,1.57Zm-2.54-1.68,2.36,1.37v-2.71l-2.36-1.37Z" transform="translate(-184.7 -97.7)"/><polygon class="cls-12" points="44.01 126.11 43.41 125.76 43.41 124.19 44.01 124.53 44.01 126.11"/><polygon class="cls-12" points="44.6 125.17 42.82 124.14 43.71 123.58 44.6 125.17"/></g></g></svg>